<svg xmlns="http://www.w3.org/2000/svg" xmlns:xlink="http://www.w3.org/1999/xlink" width="336" zoomAndPan="magnify" viewBox="0 0 252 143.999998" height="192" preserveAspectRatio="xMidYMid meet" version="1.0"><defs><g/><clipPath id="1b47e0bc27"><path d="M 6.554688 42.085938 L 33 42.085938 L 33 95 L 6.554688 95 Z M 6.554688 42.085938 " clip-rule="nonzero"/></clipPath><clipPath id="9bc8a44b58"><path d="M 30 42.085938 L 56.804688 42.085938 L 56.804688 95 L 30 95 Z M 30 42.085938 " clip-rule="nonzero"/></clipPath><clipPath id="d09e7a410c"><path d="M 28 95 L 36 95 L 36 102.085938 L 28 102.085938 Z M 28 95 " clip-rule="nonzero"/></clipPath></defs><rect x="-25.2" width="302.4" fill="#ffffff" y="-14.4" height="172.799997" fill-opacity="1"/><rect x="-25.2" width="302.4" fill="#efe9e2" y="-14.4" height="172.799997" fill-opacity="1"/><path stroke-linecap="butt" transform="matrix(0.000000000000000046, -0.74833, 0.75, 0.000000000000000046, 66.259085, 106.201167)" fill="none" stroke-linejoin="miter" d="M 0.00260337 -0.0016973 L 91.216173 -0.0016973 " stroke="#5b5c38" stroke-width="1" stroke-opacity="1" stroke-miterlimit="4"/><path fill="#5b5c38" d="M 26.300781 66.945312 C 22.757812 66.945312 19.257812 66.253906 16.617188 65.097656 C 14.105469 63.996094 12.605469 62.578125 12.277344 60.992188 C 12.042969 59.871094 12 58.8125 12.152344 57.84375 C 12.460938 55.851562 14.300781 54.414062 16.339844 54.570312 C 19.617188 54.820312 22.746094 55.511719 25.894531 56.6875 C 25.914062 56.695312 25.929688 56.703125 25.949219 56.707031 C 25.96875 56.695312 25.992188 56.683594 26.011719 56.675781 C 37.535156 51.804688 45.871094 50.539062 49.484375 53.101562 C 50.722656 53.980469 51.320312 55.277344 51.210938 56.851562 C 50.988281 60.101562 46.785156 60.847656 45.402344 61.09375 C 41.644531 61.757812 37.863281 61.699219 34.464844 60.914062 C 32.085938 60.367188 29.792969 59.476562 27.582031 58.613281 C 26.890625 58.34375 26.179688 58.066406 25.476562 57.804688 C 22.433594 56.671875 19.414062 56.003906 16.25 55.757812 C 14.828125 55.648438 13.550781 56.644531 13.335938 58.027344 C 13.207031 58.855469 13.246094 59.773438 13.449219 60.75 C 13.691406 61.921875 14.988281 63.078125 17.097656 64.003906 C 22.039062 66.171875 30.585938 66.605469 35.773438 63.527344 C 36.058594 63.359375 36.425781 63.453125 36.59375 63.734375 C 36.761719 64.019531 36.671875 64.386719 36.386719 64.554688 C 33.5625 66.230469 29.910156 66.945312 26.300781 66.945312 Z M 27.5625 57.324219 C 27.714844 57.386719 27.867188 57.445312 28.015625 57.503906 C 30.191406 58.351562 32.441406 59.226562 34.734375 59.753906 C 37.976562 60.5 41.59375 60.558594 45.191406 59.917969 C 48.332031 59.363281 49.910156 58.332031 50.019531 56.773438 C 50.097656 55.617188 49.683594 54.710938 48.792969 54.078125 C 45.726562 51.902344 37.839844 53.121094 27.5625 57.324219 Z M 27.5625 57.324219 " fill-opacity="1" fill-rule="nonzero"/><path fill="#5b5c38" d="M 40.253906 64.769531 C 38.253906 64.769531 36.304688 64.558594 34.464844 64.136719 C 32.085938 63.585938 29.792969 62.695312 27.578125 61.832031 C 26.890625 61.566406 26.175781 61.289062 25.476562 61.027344 C 22.433594 59.890625 19.414062 59.222656 16.25 58.980469 C 15.066406 58.886719 13.96875 59.546875 13.515625 60.613281 C 13.386719 60.917969 13.035156 61.058594 12.730469 60.933594 C 12.425781 60.804688 12.28125 60.453125 12.410156 60.148438 C 13.066406 58.605469 14.648438 57.65625 16.339844 57.785156 C 19.617188 58.039062 22.746094 58.730469 25.894531 59.90625 C 26.605469 60.171875 27.320312 60.449219 28.015625 60.71875 C 30.191406 61.566406 32.4375 62.441406 34.734375 62.96875 C 37.976562 63.714844 41.59375 63.773438 45.191406 63.136719 C 48.332031 62.578125 49.910156 61.546875 50.019531 59.988281 C 50.128906 58.351562 50.144531 56.265625 49.988281 55.890625 C 49.835938 55.597656 49.949219 55.242188 50.242188 55.089844 C 50.539062 54.9375 50.902344 55.054688 51.054688 55.34375 C 51.453125 56.101562 51.277344 59.152344 51.210938 60.070312 C 50.988281 63.324219 46.785156 64.070312 45.402344 64.3125 C 43.679688 64.617188 41.949219 64.769531 40.253906 64.769531 Z M 40.253906 64.769531 " fill-opacity="1" fill-rule="nonzero"/><path fill="#5b5c38" d="M 49.699219 59.167969 C 49.566406 59.167969 49.433594 59.125 49.324219 59.035156 L 41.855469 53.015625 C 41.597656 52.808594 41.558594 52.429688 41.765625 52.175781 C 41.976562 51.917969 42.351562 51.878906 42.609375 52.085938 L 50.078125 58.105469 C 50.335938 58.3125 50.375 58.691406 50.164062 58.945312 C 50.050781 59.09375 49.875 59.167969 49.699219 59.167969 Z M 49.699219 59.167969 " fill-opacity="1" fill-rule="nonzero"/><path fill="#5b5c38" d="M 44.050781 61.128906 C 43.917969 61.128906 43.785156 61.085938 43.671875 60.996094 L 35.46875 54.382812 C 35.210938 54.171875 35.171875 53.796875 35.378906 53.539062 C 35.585938 53.285156 35.964844 53.246094 36.222656 53.453125 L 44.425781 60.070312 C 44.683594 60.277344 44.722656 60.652344 44.515625 60.910156 C 44.398438 61.054688 44.226562 61.128906 44.050781 61.128906 Z M 44.050781 61.128906 " fill-opacity="1" fill-rule="nonzero"/><path fill="#5b5c38" d="M 36.078125 61.222656 C 35.945312 61.222656 35.8125 61.179688 35.703125 61.089844 L 29.863281 56.382812 C 29.605469 56.175781 29.570312 55.800781 29.777344 55.542969 C 29.984375 55.285156 30.363281 55.246094 30.621094 55.453125 L 36.457031 60.160156 C 36.714844 60.367188 36.753906 60.746094 36.546875 61 C 36.425781 61.148438 36.253906 61.222656 36.078125 61.222656 Z M 36.078125 61.222656 " fill-opacity="1" fill-rule="nonzero"/><path fill="#5b5c38" d="M 32.449219 65.882812 C 32.316406 65.882812 32.183594 65.839844 32.070312 65.75 L 27.027344 61.683594 C 26.769531 61.476562 26.730469 61.101562 26.9375 60.84375 C 27.148438 60.585938 27.523438 60.546875 27.78125 60.753906 L 32.824219 64.820312 C 33.082031 65.027344 33.121094 65.40625 32.914062 65.664062 C 32.796875 65.808594 32.621094 65.882812 32.449219 65.882812 Z M 32.449219 65.882812 " fill-opacity="1" fill-rule="nonzero"/><path fill="#5b5c38" d="M 26.820312 66.792969 C 26.6875 66.792969 26.554688 66.75 26.441406 66.660156 L 16.855469 58.933594 C 16.597656 58.726562 16.558594 58.347656 16.765625 58.089844 C 16.972656 57.835938 17.351562 57.796875 17.609375 58.003906 L 27.195312 65.734375 C 27.453125 65.941406 27.492188 66.316406 27.285156 66.574219 C 27.167969 66.71875 26.992188 66.792969 26.820312 66.792969 Z M 26.820312 66.792969 " fill-opacity="1" fill-rule="nonzero"/><path fill="#5b5c38" d="M 30.527344 94.367188 C 30.195312 94.367188 29.929688 94.101562 29.929688 93.769531 L 29.929688 91.417969 C 29.929688 89.679688 29.144531 88.0625 27.777344 86.984375 C 26.472656 85.953125 25.453125 84.472656 24.828125 83.414062 C 24.214844 82.375 23.890625 81.183594 23.890625 79.960938 L 23.890625 69.519531 C 23.890625 69.1875 24.160156 68.921875 24.492188 68.921875 C 24.820312 68.921875 25.089844 69.1875 25.089844 69.519531 L 25.089844 79.960938 C 25.089844 80.972656 25.355469 81.953125 25.859375 82.804688 C 26.433594 83.777344 27.363281 85.128906 28.523438 86.046875 C 30.179688 87.355469 31.128906 89.3125 31.128906 91.417969 L 31.128906 93.769531 C 31.128906 94.101562 30.859375 94.367188 30.527344 94.367188 Z M 30.527344 94.367188 " fill-opacity="1" fill-rule="nonzero"/><path fill="#5b5c38" d="M 32.835938 94.367188 C 32.503906 94.367188 32.238281 94.101562 32.238281 93.769531 L 32.238281 91.417969 C 32.238281 89.3125 33.1875 87.355469 34.839844 86.046875 C 36.003906 85.128906 36.929688 83.777344 37.503906 82.804688 C 38.007812 81.953125 38.273438 80.972656 38.273438 79.960938 L 38.273438 69.519531 C 38.273438 69.1875 38.542969 68.921875 38.875 68.921875 C 39.203125 68.921875 39.472656 69.1875 39.472656 69.519531 L 39.472656 79.960938 C 39.472656 81.183594 39.148438 82.375 38.539062 83.414062 C 37.910156 84.472656 36.890625 85.949219 35.585938 86.984375 C 34.21875 88.0625 33.4375 89.679688 33.4375 91.417969 L 33.4375 93.769531 C 33.4375 94.101562 33.167969 94.367188 32.835938 94.367188 Z M 32.835938 94.367188 " fill-opacity="1" fill-rule="nonzero"/><path fill="#5b5c38" d="M 31.679688 81.695312 C 31.347656 81.695312 31.082031 81.429688 31.082031 81.097656 L 31.082031 69.519531 C 31.082031 69.1875 31.347656 68.921875 31.679688 68.921875 C 32.011719 68.921875 32.28125 69.1875 32.28125 69.519531 L 32.28125 81.097656 C 32.28125 81.429688 32.011719 81.695312 31.679688 81.695312 Z M 31.679688 81.695312 " fill-opacity="1" fill-rule="nonzero"/><g clip-path="url(#1b47e0bc27)"><path fill="#5b5c38" d="M 30.527344 94.4375 L 20.9375 94.4375 C 18.054688 94.4375 15.554688 92.394531 14.988281 89.578125 L 6.914062 49.34375 C 6.554688 47.5625 7.011719 45.734375 8.167969 44.328125 C 9.324219 42.925781 11.035156 42.117188 12.859375 42.117188 L 31.847656 42.117188 C 32.179688 42.117188 32.449219 42.386719 32.449219 42.714844 C 32.449219 43.046875 32.179688 43.3125 31.847656 43.3125 L 12.859375 43.3125 C 11.398438 43.3125 10.027344 43.960938 9.097656 45.085938 C 8.171875 46.214844 7.804688 47.679688 8.089844 49.109375 L 16.164062 89.34375 C 16.617188 91.601562 18.625 93.242188 20.9375 93.242188 L 30.527344 93.242188 C 30.859375 93.242188 31.128906 93.507812 31.128906 93.839844 C 31.128906 94.167969 30.859375 94.4375 30.527344 94.4375 Z M 30.527344 94.4375 " fill-opacity="1" fill-rule="nonzero"/></g><g clip-path="url(#9bc8a44b58)"><path fill="#5b5c38" d="M 42.429688 94.4375 L 32.835938 94.4375 C 32.503906 94.4375 32.238281 94.167969 32.238281 93.839844 C 32.238281 93.507812 32.503906 93.242188 32.835938 93.242188 L 42.429688 93.242188 C 44.738281 93.242188 46.746094 91.601562 47.199219 89.34375 L 55.273438 49.109375 C 55.5625 47.683594 55.195312 46.214844 54.265625 45.085938 C 53.339844 43.960938 51.96875 43.3125 50.503906 43.3125 L 31.515625 43.3125 C 31.183594 43.3125 30.914062 43.046875 30.914062 42.714844 C 30.914062 42.386719 31.183594 42.117188 31.515625 42.117188 L 50.503906 42.117188 C 52.328125 42.117188 54.035156 42.925781 55.195312 44.328125 C 56.347656 45.734375 56.808594 47.5625 56.453125 49.34375 L 48.375 89.578125 C 47.808594 92.394531 45.308594 94.4375 42.429688 94.4375 Z M 42.429688 94.4375 " fill-opacity="1" fill-rule="nonzero"/></g><g clip-path="url(#d09e7a410c)"><path fill="#5b5c38" d="M 31.679688 95.671875 L 32.476562 98.113281 L 35.050781 98.113281 L 32.96875 99.621094 L 33.765625 102.058594 L 31.679688 100.550781 L 29.601562 102.058594 L 30.394531 99.621094 L 28.3125 98.113281 L 30.886719 98.113281 Z M 31.679688 95.671875 " fill-opacity="1" fill-rule="nonzero"/></g><path fill="#5b5c38" d="M 26.4375 99.34375 L 24.039062 99.34375 C 23.84375 99.34375 23.6875 99.1875 23.6875 98.996094 C 23.6875 98.800781 23.84375 98.644531 24.039062 98.644531 L 26.4375 98.644531 C 26.632812 98.644531 26.789062 98.800781 26.789062 98.996094 C 26.792969 99.1875 26.632812 99.34375 26.4375 99.34375 Z M 26.4375 99.34375 " fill-opacity="1" fill-rule="nonzero"/><path fill="#5b5c38" d="M 39.324219 99.34375 L 36.925781 99.34375 C 36.730469 99.34375 36.574219 99.1875 36.574219 98.996094 C 36.574219 98.800781 36.730469 98.644531 36.925781 98.644531 L 39.324219 98.644531 C 39.519531 98.644531 39.675781 98.800781 39.675781 98.996094 C 39.675781 99.1875 39.519531 99.34375 39.324219 99.34375 Z M 39.324219 99.34375 " fill-opacity="1" fill-rule="nonzero"/><g fill="#32230f" fill-opacity="1"><g transform="translate(76.389871, 61.259324)"><g><path d="M 10.265625 -6.078125 L 10.265625 0 L 6.296875 0 L 6.296875 -6.125 L -0.34375 -17.15625 L 3.875 -17.15625 L 8.453125 -9.53125 L 13.046875 -17.15625 L 16.9375 -17.15625 Z M 10.265625 -6.078125 "/></g></g></g><g fill="#32230f" fill-opacity="1"><g transform="translate(92.962392, 61.259324)"><g><path d="M 8.046875 0.203125 C 6.648438 0.203125 5.398438 -0.0859375 4.296875 -0.671875 C 3.191406 -1.253906 2.328125 -2.0625 1.703125 -3.09375 C 1.085938 -4.125 0.78125 -5.289062 0.78125 -6.59375 C 0.78125 -7.90625 1.085938 -9.070312 1.703125 -10.09375 C 2.328125 -11.125 3.191406 -11.929688 4.296875 -12.515625 C 5.398438 -13.097656 6.648438 -13.390625 8.046875 -13.390625 C 9.429688 -13.390625 10.671875 -13.097656 11.765625 -12.515625 C 12.859375 -11.929688 13.710938 -11.125 14.328125 -10.09375 C 14.953125 -9.070312 15.265625 -7.90625 15.265625 -6.59375 C 15.265625 -5.289062 14.953125 -4.125 14.328125 -3.09375 C 13.710938 -2.0625 12.859375 -1.253906 11.765625 -0.671875 C 10.671875 -0.0859375 9.429688 0.203125 8.046875 0.203125 Z M 8.046875 -2.9375 C 9.023438 -2.9375 9.828125 -3.265625 10.453125 -3.921875 C 11.085938 -4.585938 11.40625 -5.476562 11.40625 -6.59375 C 11.40625 -7.707031 11.085938 -8.59375 10.453125 -9.25 C 9.828125 -9.914062 9.023438 -10.25 8.046875 -10.25 C 7.054688 -10.25 6.242188 -9.914062 5.609375 -9.25 C 4.972656 -8.59375 4.65625 -7.707031 4.65625 -6.59375 C 4.65625 -5.476562 4.972656 -4.585938 5.609375 -3.921875 C 6.242188 -3.265625 7.054688 -2.9375 8.046875 -2.9375 Z M 8.046875 -2.9375 "/></g></g></g><g fill="#32230f" fill-opacity="1"><g transform="translate(109.020088, 61.259324)"><g><path d="M 15.046875 -13.1875 L 15.046875 0 L 11.421875 0 L 11.421875 -1.5625 C 10.921875 -1 10.316406 -0.5625 9.609375 -0.25 C 8.910156 0.0507812 8.148438 0.203125 7.328125 0.203125 C 5.597656 0.203125 4.222656 -0.296875 3.203125 -1.296875 C 2.191406 -2.296875 1.6875 -3.773438 1.6875 -5.734375 L 1.6875 -13.1875 L 5.515625 -13.1875 L 5.515625 -6.296875 C 5.515625 -4.171875 6.40625 -3.109375 8.1875 -3.109375 C 9.101562 -3.109375 9.835938 -3.40625 10.390625 -4 C 10.953125 -4.601562 11.234375 -5.492188 11.234375 -6.671875 L 11.234375 -13.1875 Z M 15.046875 -13.1875 "/></g></g></g><g fill="#32230f" fill-opacity="1"><g transform="translate(125.862288, 61.259324)"><g/></g></g><g fill="#32230f" fill-opacity="1"><g transform="translate(132.800188, 61.259324)"><g><path d="M 15.375 -13.1875 L 15.375 -2.203125 C 15.375 0.210938 14.742188 2.007812 13.484375 3.1875 C 12.222656 4.363281 10.382812 4.953125 7.96875 4.953125 C 6.695312 4.953125 5.488281 4.796875 4.34375 4.484375 C 3.195312 4.171875 2.25 3.722656 1.5 3.140625 L 3.015625 0.390625 C 3.566406 0.847656 4.269531 1.210938 5.125 1.484375 C 5.976562 1.753906 6.828125 1.890625 7.671875 1.890625 C 8.992188 1.890625 9.96875 1.585938 10.59375 0.984375 C 11.226562 0.390625 11.546875 -0.507812 11.546875 -1.71875 L 11.546875 -2.28125 C 10.546875 -1.1875 9.15625 -0.640625 7.375 -0.640625 C 6.164062 -0.640625 5.054688 -0.90625 4.046875 -1.4375 C 3.046875 -1.96875 2.25 -2.710938 1.65625 -3.671875 C 1.070312 -4.640625 0.78125 -5.753906 0.78125 -7.015625 C 0.78125 -8.273438 1.070312 -9.382812 1.65625 -10.34375 C 2.25 -11.3125 3.046875 -12.0625 4.046875 -12.59375 C 5.054688 -13.125 6.164062 -13.390625 7.375 -13.390625 C 9.289062 -13.390625 10.75 -12.757812 11.75 -11.5 L 11.75 -13.1875 Z M 8.140625 -3.78125 C 9.148438 -3.78125 9.976562 -4.078125 10.625 -4.671875 C 11.269531 -5.265625 11.59375 -6.046875 11.59375 -7.015625 C 11.59375 -7.972656 11.269531 -8.75 10.625 -9.34375 C 9.976562 -9.945312 9.148438 -10.25 8.140625 -10.25 C 7.128906 -10.25 6.296875 -9.945312 5.640625 -9.34375 C 4.984375 -8.75 4.65625 -7.972656 4.65625 -7.015625 C 4.65625 -6.046875 4.984375 -5.265625 5.640625 -4.671875 C 6.296875 -4.078125 7.128906 -3.78125 8.140625 -3.78125 Z M 8.140625 -3.78125 "/></g></g></g><g fill="#32230f" fill-opacity="1"><g transform="translate(149.961083, 61.259324)"><g><path d="M 8.046875 0.203125 C 6.648438 0.203125 5.398438 -0.0859375 4.296875 -0.671875 C 3.191406 -1.253906 2.328125 -2.0625 1.703125 -3.09375 C 1.085938 -4.125 0.78125 -5.289062 0.78125 -6.59375 C 0.78125 -7.90625 1.085938 -9.070312 1.703125 -10.09375 C 2.328125 -11.125 3.191406 -11.929688 4.296875 -12.515625 C 5.398438 -13.097656 6.648438 -13.390625 8.046875 -13.390625 C 9.429688 -13.390625 10.671875 -13.097656 11.765625 -12.515625 C 12.859375 -11.929688 13.710938 -11.125 14.328125 -10.09375 C 14.953125 -9.070312 15.265625 -7.90625 15.265625 -6.59375 C 15.265625 -5.289062 14.953125 -4.125 14.328125 -3.09375 C 13.710938 -2.0625 12.859375 -1.253906 11.765625 -0.671875 C 10.671875 -0.0859375 9.429688 0.203125 8.046875 0.203125 Z M 8.046875 -2.9375 C 9.023438 -2.9375 9.828125 -3.265625 10.453125 -3.921875 C 11.085938 -4.585938 11.40625 -5.476562 11.40625 -6.59375 C 11.40625 -7.707031 11.085938 -8.59375 10.453125 -9.25 C 9.828125 -9.914062 9.023438 -10.25 8.046875 -10.25 C 7.054688 -10.25 6.242188 -9.914062 5.609375 -9.25 C 4.972656 -8.59375 4.65625 -7.707031 4.65625 -6.59375 C 4.65625 -5.476562 4.972656 -4.585938 5.609375 -3.921875 C 6.242188 -3.265625 7.054688 -2.9375 8.046875 -2.9375 Z M 8.046875 -2.9375 "/></g></g></g><g fill="#32230f" fill-opacity="1"><g transform="translate(166.01878, 61.259324)"><g><path d="M 10.265625 -0.640625 C 9.890625 -0.359375 9.425781 -0.144531 8.875 0 C 8.332031 0.132812 7.757812 0.203125 7.15625 0.203125 C 5.59375 0.203125 4.378906 -0.195312 3.515625 -1 C 2.660156 -1.800781 2.234375 -2.976562 2.234375 -4.53125 L 2.234375 -9.953125 L 0.203125 -9.953125 L 0.203125 -12.890625 L 2.234375 -12.890625 L 2.234375 -16.109375 L 6.0625 -16.109375 L 6.0625 -12.890625 L 9.34375 -12.890625 L 9.34375 -9.953125 L 6.0625 -9.953125 L 6.0625 -4.578125 C 6.0625 -4.023438 6.203125 -3.597656 6.484375 -3.296875 C 6.765625 -2.992188 7.171875 -2.84375 7.703125 -2.84375 C 8.304688 -2.84375 8.820312 -3.003906 9.25 -3.328125 Z M 10.265625 -0.640625 "/></g></g></g><g fill="#32230f" fill-opacity="1"><g transform="translate(176.683047, 61.259324)"><g><path d="M 10.265625 -0.640625 C 9.890625 -0.359375 9.425781 -0.144531 8.875 0 C 8.332031 0.132812 7.757812 0.203125 7.15625 0.203125 C 5.59375 0.203125 4.378906 -0.195312 3.515625 -1 C 2.660156 -1.800781 2.234375 -2.976562 2.234375 -4.53125 L 2.234375 -9.953125 L 0.203125 -9.953125 L 0.203125 -12.890625 L 2.234375 -12.890625 L 2.234375 -16.109375 L 6.0625 -16.109375 L 6.0625 -12.890625 L 9.34375 -12.890625 L 9.34375 -9.953125 L 6.0625 -9.953125 L 6.0625 -4.578125 C 6.0625 -4.023438 6.203125 -3.597656 6.484375 -3.296875 C 6.765625 -2.992188 7.171875 -2.84375 7.703125 -2.84375 C 8.304688 -2.84375 8.820312 -3.003906 9.25 -3.328125 Z M 10.265625 -0.640625 "/></g></g></g><g fill="#32230f" fill-opacity="1"><g transform="translate(187.347315, 61.259324)"><g><path d="M 7.078125 -13.390625 C 9.128906 -13.390625 10.703125 -12.898438 11.796875 -11.921875 C 12.890625 -10.953125 13.4375 -9.488281 13.4375 -7.53125 L 13.4375 0 L 9.859375 0 L 9.859375 -1.640625 C 9.140625 -0.410156 7.796875 0.203125 5.828125 0.203125 C 4.816406 0.203125 3.9375 0.03125 3.1875 -0.3125 C 2.445312 -0.65625 1.878906 -1.128906 1.484375 -1.734375 C 1.097656 -2.335938 0.90625 -3.023438 0.90625 -3.796875 C 0.90625 -5.023438 1.363281 -5.988281 2.28125 -6.6875 C 3.207031 -7.394531 4.632812 -7.75 6.5625 -7.75 L 9.609375 -7.75 C 9.609375 -8.582031 9.351562 -9.222656 8.84375 -9.671875 C 8.34375 -10.117188 7.582031 -10.34375 6.5625 -10.34375 C 5.863281 -10.34375 5.175781 -10.234375 4.5 -10.015625 C 3.820312 -9.796875 3.242188 -9.5 2.765625 -9.125 L 1.390625 -11.796875 C 2.109375 -12.296875 2.96875 -12.6875 3.96875 -12.96875 C 4.976562 -13.25 6.015625 -13.390625 7.078125 -13.390625 Z M 6.796875 -2.375 C 7.441406 -2.375 8.019531 -2.523438 8.53125 -2.828125 C 9.039062 -3.128906 9.398438 -3.578125 9.609375 -4.171875 L 9.609375 -5.515625 L 6.984375 -5.515625 C 5.421875 -5.515625 4.640625 -5 4.640625 -3.96875 C 4.640625 -3.476562 4.828125 -3.085938 5.203125 -2.796875 C 5.585938 -2.515625 6.117188 -2.375 6.796875 -2.375 Z M 6.796875 -2.375 "/></g></g></g><g fill="#32230f" fill-opacity="1"><g transform="translate(202.473417, 61.259324)"><g/></g></g><g fill="#32230f" fill-opacity="1"><g transform="translate(209.411317, 61.259324)"><g><path d="M 10.265625 -0.640625 C 9.890625 -0.359375 9.425781 -0.144531 8.875 0 C 8.332031 0.132812 7.757812 0.203125 7.15625 0.203125 C 5.59375 0.203125 4.378906 -0.195312 3.515625 -1 C 2.660156 -1.800781 2.234375 -2.976562 2.234375 -4.53125 L 2.234375 -9.953125 L 0.203125 -9.953125 L 0.203125 -12.890625 L 2.234375 -12.890625 L 2.234375 -16.109375 L 6.0625 -16.109375 L 6.0625 -12.890625 L 9.34375 -12.890625 L 9.34375 -9.953125 L 6.0625 -9.953125 L 6.0625 -4.578125 C 6.0625 -4.023438 6.203125 -3.597656 6.484375 -3.296875 C 6.765625 -2.992188 7.171875 -2.84375 7.703125 -2.84375 C 8.304688 -2.84375 8.820312 -3.003906 9.25 -3.328125 Z M 10.265625 -0.640625 "/></g></g></g><g fill="#32230f" fill-opacity="1"><g transform="translate(220.075585, 61.259324)"><g><path d="M 5.421875 -11.453125 C 5.878906 -12.085938 6.492188 -12.566406 7.265625 -12.890625 C 8.046875 -13.222656 8.941406 -13.390625 9.953125 -13.390625 L 9.953125 -9.859375 C 9.523438 -9.890625 9.238281 -9.90625 9.09375 -9.90625 C 8 -9.90625 7.140625 -9.597656 6.515625 -8.984375 C 5.898438 -8.367188 5.59375 -7.453125 5.59375 -6.234375 L 5.59375 0 L 1.765625 0 L 1.765625 -13.1875 L 5.421875 -13.1875 Z M 5.421875 -11.453125 "/></g></g></g><g fill="#32230f" fill-opacity="1"><g transform="translate(230.6418, 61.259324)"><g><path d="M 14.859375 -13.1875 L 8.90625 0.8125 C 8.289062 2.332031 7.535156 3.398438 6.640625 4.015625 C 5.753906 4.640625 4.6875 4.953125 3.4375 4.953125 C 2.75 4.953125 2.066406 4.84375 1.390625 4.625 C 0.722656 4.414062 0.175781 4.125 -0.25 3.75 L 1.15625 1.03125 C 1.445312 1.289062 1.785156 1.492188 2.171875 1.640625 C 2.554688 1.785156 2.9375 1.859375 3.3125 1.859375 C 3.832031 1.859375 4.253906 1.734375 4.578125 1.484375 C 4.910156 1.234375 5.207031 0.8125 5.46875 0.21875 L 5.515625 0.09375 L -0.203125 -13.1875 L 3.75 -13.1875 L 7.453125 -4.234375 L 11.171875 -13.1875 Z M 14.859375 -13.1875 "/></g></g></g><g fill="#32230f" fill-opacity="1"><g transform="translate(76.389871, 86.759323)"><g><path d="M 10.265625 -0.640625 C 9.890625 -0.359375 9.425781 -0.144531 8.875 0 C 8.332031 0.132812 7.757812 0.203125 7.15625 0.203125 C 5.59375 0.203125 4.378906 -0.195312 3.515625 -1 C 2.660156 -1.800781 2.234375 -2.976562 2.234375 -4.53125 L 2.234375 -9.953125 L 0.203125 -9.953125 L 0.203125 -12.890625 L 2.234375 -12.890625 L 2.234375 -16.109375 L 6.0625 -16.109375 L 6.0625 -12.890625 L 9.34375 -12.890625 L 9.34375 -9.953125 L 6.0625 -9.953125 L 6.0625 -4.578125 C 6.0625 -4.023438 6.203125 -3.597656 6.484375 -3.296875 C 6.765625 -2.992188 7.171875 -2.84375 7.703125 -2.84375 C 8.304688 -2.84375 8.820312 -3.003906 9.25 -3.328125 Z M 10.265625 -0.640625 "/></g></g></g><g fill="#32230f" fill-opacity="1"><g transform="translate(87.054139, 86.759323)"><g><path d="M 9.78125 -13.390625 C 11.414062 -13.390625 12.734375 -12.894531 13.734375 -11.90625 C 14.742188 -10.925781 15.25 -9.472656 15.25 -7.546875 L 15.25 0 L 11.421875 0 L 11.421875 -6.96875 C 11.421875 -8.007812 11.191406 -8.785156 10.734375 -9.296875 C 10.273438 -9.816406 9.613281 -10.078125 8.75 -10.078125 C 7.789062 -10.078125 7.023438 -9.773438 6.453125 -9.171875 C 5.878906 -8.578125 5.59375 -7.691406 5.59375 -6.515625 L 5.59375 0 L 1.765625 0 L 1.765625 -18.1875 L 5.59375 -18.1875 L 5.59375 -11.8125 C 6.09375 -12.320312 6.703125 -12.710938 7.421875 -12.984375 C 8.140625 -13.253906 8.925781 -13.390625 9.78125 -13.390625 Z M 9.78125 -13.390625 "/></g></g></g><g fill="#32230f" fill-opacity="1"><g transform="translate(103.994393, 86.759323)"><g><path d="M 1.765625 -13.1875 L 5.59375 -13.1875 L 5.59375 0 L 1.765625 0 Z M 3.671875 -15.03125 C 2.972656 -15.03125 2.398438 -15.234375 1.953125 -15.640625 C 1.515625 -16.046875 1.296875 -16.550781 1.296875 -17.15625 C 1.296875 -17.757812 1.515625 -18.265625 1.953125 -18.671875 C 2.398438 -19.085938 2.972656 -19.296875 3.671875 -19.296875 C 4.378906 -19.296875 4.953125 -19.097656 5.390625 -18.703125 C 5.828125 -18.304688 6.046875 -17.816406 6.046875 -17.234375 C 6.046875 -16.597656 5.828125 -16.070312 5.390625 -15.65625 C 4.953125 -15.238281 4.378906 -15.03125 3.671875 -15.03125 Z M 3.671875 -15.03125 "/></g></g></g><g fill="#32230f" fill-opacity="1"><g transform="translate(111.373577, 86.759323)"><g><path d="M 6.203125 0.203125 C 5.109375 0.203125 4.035156 0.0664062 2.984375 -0.203125 C 1.941406 -0.472656 1.109375 -0.8125 0.484375 -1.21875 L 1.765625 -3.96875 C 2.347656 -3.59375 3.054688 -3.285156 3.890625 -3.046875 C 4.722656 -2.816406 5.539062 -2.703125 6.34375 -2.703125 C 7.96875 -2.703125 8.78125 -3.097656 8.78125 -3.890625 C 8.78125 -4.273438 8.554688 -4.546875 8.109375 -4.703125 C 7.671875 -4.867188 6.992188 -5.007812 6.078125 -5.125 C 5.003906 -5.289062 4.113281 -5.476562 3.40625 -5.6875 C 2.707031 -5.894531 2.097656 -6.269531 1.578125 -6.8125 C 1.066406 -7.351562 0.8125 -8.125 0.8125 -9.125 C 0.8125 -9.957031 1.050781 -10.695312 1.53125 -11.34375 C 2.007812 -11.988281 2.710938 -12.488281 3.640625 -12.84375 C 4.566406 -13.207031 5.65625 -13.390625 6.90625 -13.390625 C 7.84375 -13.390625 8.769531 -13.285156 9.6875 -13.078125 C 10.613281 -12.867188 11.378906 -12.585938 11.984375 -12.234375 L 10.71875 -9.515625 C 9.550781 -10.171875 8.28125 -10.5 6.90625 -10.5 C 6.09375 -10.5 5.484375 -10.382812 5.078125 -10.15625 C 4.671875 -9.925781 4.46875 -9.628906 4.46875 -9.265625 C 4.46875 -8.859375 4.6875 -8.570312 5.125 -8.40625 C 5.5625 -8.238281 6.265625 -8.082031 7.234375 -7.9375 C 8.304688 -7.757812 9.1875 -7.566406 9.875 -7.359375 C 10.5625 -7.160156 11.15625 -6.789062 11.65625 -6.25 C 12.164062 -5.707031 12.421875 -4.957031 12.421875 -4 C 12.421875 -3.175781 12.175781 -2.445312 11.6875 -1.8125 C 11.195312 -1.175781 10.484375 -0.679688 9.546875 -0.328125 C 8.609375 0.0234375 7.492188 0.203125 6.203125 0.203125 Z M 6.203125 0.203125 "/></g></g></g><g fill="#32230f" fill-opacity="1"><g transform="translate(124.391345, 86.759323)"><g/></g></g><g fill="#32230f" fill-opacity="1"><g transform="translate(131.329245, 86.759323)"><g><path d="M 5.421875 -11.453125 C 5.878906 -12.085938 6.492188 -12.566406 7.265625 -12.890625 C 8.046875 -13.222656 8.941406 -13.390625 9.953125 -13.390625 L 9.953125 -9.859375 C 9.523438 -9.890625 9.238281 -9.90625 9.09375 -9.90625 C 8 -9.90625 7.140625 -9.597656 6.515625 -8.984375 C 5.898438 -8.367188 5.59375 -7.453125 5.59375 -6.234375 L 5.59375 0 L 1.765625 0 L 1.765625 -13.1875 L 5.421875 -13.1875 Z M 5.421875 -11.453125 "/></g></g></g><g fill="#32230f" fill-opacity="1"><g transform="translate(141.89546, 86.759323)"><g><path d="M 14.6875 -6.546875 C 14.6875 -6.492188 14.660156 -6.148438 14.609375 -5.515625 L 4.640625 -5.515625 C 4.816406 -4.703125 5.238281 -4.054688 5.90625 -3.578125 C 6.570312 -3.109375 7.40625 -2.875 8.40625 -2.875 C 9.09375 -2.875 9.703125 -2.972656 10.234375 -3.171875 C 10.765625 -3.378906 11.257812 -3.703125 11.71875 -4.140625 L 13.75 -1.9375 C 12.507812 -0.507812 10.695312 0.203125 8.3125 0.203125 C 6.820312 0.203125 5.503906 -0.0859375 4.359375 -0.671875 C 3.210938 -1.253906 2.328125 -2.0625 1.703125 -3.09375 C 1.085938 -4.125 0.78125 -5.289062 0.78125 -6.59375 C 0.78125 -7.882812 1.085938 -9.046875 1.703125 -10.078125 C 2.316406 -11.117188 3.15625 -11.929688 4.21875 -12.515625 C 5.289062 -13.097656 6.492188 -13.390625 7.828125 -13.390625 C 9.109375 -13.390625 10.269531 -13.109375 11.3125 -12.546875 C 12.363281 -11.992188 13.1875 -11.195312 13.78125 -10.15625 C 14.382812 -9.125 14.6875 -7.921875 14.6875 -6.546875 Z M 7.84375 -10.5 C 6.976562 -10.5 6.25 -10.25 5.65625 -9.75 C 5.070312 -9.257812 4.710938 -8.59375 4.578125 -7.75 L 11.078125 -7.75 C 10.953125 -8.582031 10.59375 -9.25 10 -9.75 C 9.414062 -10.25 8.695312 -10.5 7.84375 -10.5 Z M 7.84375 -10.5 "/></g></g></g><g fill="#32230f" fill-opacity="1"><g transform="translate(157.364781, 86.759323)"><g><path d="M 8.140625 0.203125 C 6.734375 0.203125 5.46875 -0.0859375 4.34375 -0.671875 C 3.226562 -1.253906 2.351562 -2.0625 1.71875 -3.09375 C 1.09375 -4.125 0.78125 -5.289062 0.78125 -6.59375 C 0.78125 -7.90625 1.09375 -9.070312 1.71875 -10.09375 C 2.351562 -11.125 3.226562 -11.929688 4.34375 -12.515625 C 5.46875 -13.097656 6.734375 -13.390625 8.140625 -13.390625 C 9.523438 -13.390625 10.738281 -13.097656 11.78125 -12.515625 C 12.820312 -11.929688 13.578125 -11.101562 14.046875 -10.03125 L 11.078125 -8.4375 C 10.390625 -9.644531 9.398438 -10.25 8.109375 -10.25 C 7.117188 -10.25 6.296875 -9.921875 5.640625 -9.265625 C 4.984375 -8.609375 4.65625 -7.71875 4.65625 -6.59375 C 4.65625 -5.46875 4.984375 -4.578125 5.640625 -3.921875 C 6.296875 -3.265625 7.117188 -2.9375 8.109375 -2.9375 C 9.421875 -2.9375 10.410156 -3.539062 11.078125 -4.75 L 14.046875 -3.140625 C 13.578125 -2.085938 12.820312 -1.265625 11.78125 -0.671875 C 10.738281 -0.0859375 9.523438 0.203125 8.140625 0.203125 Z M 8.140625 0.203125 "/></g></g></g><g fill="#32230f" fill-opacity="1"><g transform="translate(171.853482, 86.759323)"><g><path d="M 1.765625 -13.1875 L 5.59375 -13.1875 L 5.59375 0 L 1.765625 0 Z M 3.671875 -15.03125 C 2.972656 -15.03125 2.398438 -15.234375 1.953125 -15.640625 C 1.515625 -16.046875 1.296875 -16.550781 1.296875 -17.15625 C 1.296875 -17.757812 1.515625 -18.265625 1.953125 -18.671875 C 2.398438 -19.085938 2.972656 -19.296875 3.671875 -19.296875 C 4.378906 -19.296875 4.953125 -19.097656 5.390625 -18.703125 C 5.828125 -18.304688 6.046875 -17.816406 6.046875 -17.234375 C 6.046875 -16.597656 5.828125 -16.070312 5.390625 -15.65625 C 4.953125 -15.238281 4.378906 -15.03125 3.671875 -15.03125 Z M 3.671875 -15.03125 "/></g></g></g><g fill="#32230f" fill-opacity="1"><g transform="translate(179.232666, 86.759323)"><g><path d="M 9.5625 -13.390625 C 10.789062 -13.390625 11.90625 -13.101562 12.90625 -12.53125 C 13.914062 -11.96875 14.703125 -11.175781 15.265625 -10.15625 C 15.835938 -9.132812 16.125 -7.945312 16.125 -6.59375 C 16.125 -5.238281 15.835938 -4.050781 15.265625 -3.03125 C 14.703125 -2.007812 13.914062 -1.210938 12.90625 -0.640625 C 11.90625 -0.078125 10.789062 0.203125 9.5625 0.203125 C 7.875 0.203125 6.550781 -0.328125 5.59375 -1.390625 L 5.59375 4.75 L 1.765625 4.75 L 1.765625 -13.1875 L 5.421875 -13.1875 L 5.421875 -11.671875 C 6.367188 -12.816406 7.75 -13.390625 9.5625 -13.390625 Z M 8.90625 -2.9375 C 9.882812 -2.9375 10.6875 -3.265625 11.3125 -3.921875 C 11.945312 -4.585938 12.265625 -5.476562 12.265625 -6.59375 C 12.265625 -7.707031 11.945312 -8.59375 11.3125 -9.25 C 10.6875 -9.914062 9.882812 -10.25 8.90625 -10.25 C 7.914062 -10.25 7.109375 -9.914062 6.484375 -9.25 C 5.859375 -8.59375 5.546875 -7.707031 5.546875 -6.59375 C 5.546875 -5.476562 5.859375 -4.585938 6.484375 -3.921875 C 7.109375 -3.265625 7.914062 -2.9375 8.90625 -2.9375 Z M 8.90625 -2.9375 "/></g></g></g><g fill="#32230f" fill-opacity="1"><g transform="translate(196.148406, 86.759323)"><g><path d="M 14.6875 -6.546875 C 14.6875 -6.492188 14.660156 -6.148438 14.609375 -5.515625 L 4.640625 -5.515625 C 4.816406 -4.703125 5.238281 -4.054688 5.90625 -3.578125 C 6.570312 -3.109375 7.40625 -2.875 8.40625 -2.875 C 9.09375 -2.875 9.703125 -2.972656 10.234375 -3.171875 C 10.765625 -3.378906 11.257812 -3.703125 11.71875 -4.140625 L 13.75 -1.9375 C 12.507812 -0.507812 10.695312 0.203125 8.3125 0.203125 C 6.820312 0.203125 5.503906 -0.0859375 4.359375 -0.671875 C 3.210938 -1.253906 2.328125 -2.0625 1.703125 -3.09375 C 1.085938 -4.125 0.78125 -5.289062 0.78125 -6.59375 C 0.78125 -7.882812 1.085938 -9.046875 1.703125 -10.078125 C 2.316406 -11.117188 3.15625 -11.929688 4.21875 -12.515625 C 5.289062 -13.097656 6.492188 -13.390625 7.828125 -13.390625 C 9.109375 -13.390625 10.269531 -13.109375 11.3125 -12.546875 C 12.363281 -11.992188 13.1875 -11.195312 13.78125 -10.15625 C 14.382812 -9.125 14.6875 -7.921875 14.6875 -6.546875 Z M 7.84375 -10.5 C 6.976562 -10.5 6.25 -10.25 5.65625 -9.75 C 5.070312 -9.257812 4.710938 -8.59375 4.578125 -7.75 L 11.078125 -7.75 C 10.953125 -8.582031 10.59375 -9.25 10 -9.75 C 9.414062 -10.25 8.695312 -10.5 7.84375 -10.5 Z M 7.84375 -10.5 "/></g></g></g><g fill="#000000" fill-opacity="1"><g transform="translate(79.176559, 104.374532)"><g><path d="M 0.328125 -2.640625 C 0.328125 -3.148438 0.441406 -3.609375 0.671875 -4.015625 C 0.898438 -4.429688 1.210938 -4.753906 1.609375 -4.984375 C 2.015625 -5.210938 2.460938 -5.328125 2.953125 -5.328125 C 3.523438 -5.328125 4.023438 -5.1875 4.453125 -4.90625 C 4.878906 -4.632812 5.191406 -4.242188 5.390625 -3.734375 L 4.5625 -3.734375 C 4.414062 -4.054688 4.207031 -4.300781 3.9375 -4.46875 C 3.664062 -4.632812 3.335938 -4.71875 2.953125 -4.71875 C 2.585938 -4.71875 2.257812 -4.632812 1.96875 -4.46875 C 1.675781 -4.300781 1.445312 -4.054688 1.28125 -3.734375 C 1.113281 -3.421875 1.03125 -3.054688 1.03125 -2.640625 C 1.03125 -2.210938 1.113281 -1.84375 1.28125 -1.53125 C 1.445312 -1.21875 1.675781 -0.972656 1.96875 -0.796875 C 2.257812 -0.628906 2.585938 -0.546875 2.953125 -0.546875 C 3.335938 -0.546875 3.664062 -0.628906 3.9375 -0.796875 C 4.207031 -0.972656 4.414062 -1.21875 4.5625 -1.53125 L 5.390625 -1.53125 C 5.191406 -1.03125 4.878906 -0.640625 4.453125 -0.359375 C 4.023438 -0.0859375 3.523438 0.046875 2.953125 0.046875 C 2.460938 0.046875 2.015625 -0.0664062 1.609375 -0.296875 C 1.210938 -0.523438 0.898438 -0.84375 0.671875 -1.25 C 0.441406 -1.65625 0.328125 -2.117188 0.328125 -2.640625 Z M 0.328125 -2.640625 "/></g></g></g><g fill="#000000" fill-opacity="1"><g transform="translate(85.000159, 104.374532)"><g><path d="M 1.265625 -3.46875 C 1.390625 -3.695312 1.5625 -3.878906 1.78125 -4.015625 C 2.007812 -4.148438 2.285156 -4.21875 2.609375 -4.21875 L 2.609375 -3.5 L 2.421875 -3.5 C 1.648438 -3.5 1.265625 -3.082031 1.265625 -2.25 L 1.265625 0 L 0.578125 0 L 0.578125 -4.140625 L 1.265625 -4.140625 Z M 1.265625 -3.46875 "/></g></g></g><g fill="#000000" fill-opacity="1"><g transform="translate(87.813893, 104.374532)"><g><path d="M 4.359375 -2.21875 C 4.359375 -2.09375 4.347656 -1.957031 4.328125 -1.8125 L 1.03125 -1.8125 C 1.050781 -1.40625 1.1875 -1.085938 1.4375 -0.859375 C 1.695312 -0.628906 2.007812 -0.515625 2.375 -0.515625 C 2.664062 -0.515625 2.910156 -0.582031 3.109375 -0.71875 C 3.304688 -0.851562 3.445312 -1.039062 3.53125 -1.28125 L 4.265625 -1.28125 C 4.160156 -0.875 3.941406 -0.546875 3.609375 -0.296875 C 3.273438 -0.0546875 2.863281 0.0625 2.375 0.0625 C 1.976562 0.0625 1.625 -0.0195312 1.3125 -0.1875 C 1.007812 -0.363281 0.769531 -0.613281 0.59375 -0.9375 C 0.414062 -1.269531 0.328125 -1.648438 0.328125 -2.078125 C 0.328125 -2.503906 0.410156 -2.878906 0.578125 -3.203125 C 0.753906 -3.523438 0.992188 -3.769531 1.296875 -3.9375 C 1.609375 -4.113281 1.96875 -4.203125 2.375 -4.203125 C 2.757812 -4.203125 3.101562 -4.113281 3.40625 -3.9375 C 3.707031 -3.769531 3.941406 -3.535156 4.109375 -3.234375 C 4.273438 -2.941406 4.359375 -2.601562 4.359375 -2.21875 Z M 3.640625 -2.375 C 3.640625 -2.632812 3.582031 -2.859375 3.46875 -3.046875 C 3.351562 -3.234375 3.195312 -3.375 3 -3.46875 C 2.800781 -3.570312 2.582031 -3.625 2.34375 -3.625 C 1.988281 -3.625 1.691406 -3.507812 1.453125 -3.28125 C 1.210938 -3.0625 1.070312 -2.757812 1.03125 -2.375 Z M 3.640625 -2.375 "/></g></g></g><g fill="#000000" fill-opacity="1"><g transform="translate(92.490877, 104.374532)"><g><path d="M 0.328125 -2.078125 C 0.328125 -2.503906 0.410156 -2.875 0.578125 -3.1875 C 0.753906 -3.507812 0.988281 -3.757812 1.28125 -3.9375 C 1.582031 -4.113281 1.914062 -4.203125 2.28125 -4.203125 C 2.644531 -4.203125 2.957031 -4.125 3.21875 -3.96875 C 3.488281 -3.8125 3.691406 -3.613281 3.828125 -3.375 L 3.828125 -4.140625 L 4.515625 -4.140625 L 4.515625 0 L 3.828125 0 L 3.828125 -0.765625 C 3.691406 -0.523438 3.488281 -0.328125 3.21875 -0.171875 C 2.945312 -0.015625 2.632812 0.0625 2.28125 0.0625 C 1.914062 0.0625 1.582031 -0.0234375 1.28125 -0.203125 C 0.988281 -0.378906 0.753906 -0.628906 0.578125 -0.953125 C 0.410156 -1.285156 0.328125 -1.660156 0.328125 -2.078125 Z M 3.828125 -2.078125 C 3.828125 -2.390625 3.765625 -2.660156 3.640625 -2.890625 C 3.515625 -3.117188 3.34375 -3.296875 3.125 -3.421875 C 2.914062 -3.546875 2.679688 -3.609375 2.421875 -3.609375 C 2.160156 -3.609375 1.925781 -3.546875 1.71875 -3.421875 C 1.507812 -3.304688 1.34375 -3.128906 1.21875 -2.890625 C 1.09375 -2.660156 1.03125 -2.390625 1.03125 -2.078125 C 1.03125 -1.765625 1.09375 -1.488281 1.21875 -1.25 C 1.34375 -1.019531 1.507812 -0.84375 1.71875 -0.71875 C 1.925781 -0.59375 2.160156 -0.53125 2.421875 -0.53125 C 2.679688 -0.53125 2.914062 -0.59375 3.125 -0.71875 C 3.34375 -0.84375 3.515625 -1.019531 3.640625 -1.25 C 3.765625 -1.488281 3.828125 -1.765625 3.828125 -2.078125 Z M 3.828125 -2.078125 "/></g></g></g><g fill="#000000" fill-opacity="1"><g transform="translate(97.590298, 104.374532)"><g><path d="M 1.421875 -3.5625 L 1.421875 -1.125 C 1.421875 -0.925781 1.460938 -0.785156 1.546875 -0.703125 C 1.628906 -0.617188 1.78125 -0.578125 2 -0.578125 L 2.5 -0.578125 L 2.5 0 L 1.875 0 C 1.5 0 1.210938 -0.0859375 1.015625 -0.265625 C 0.828125 -0.441406 0.734375 -0.726562 0.734375 -1.125 L 0.734375 -3.5625 L 0.203125 -3.5625 L 0.203125 -4.140625 L 0.734375 -4.140625 L 0.734375 -5.171875 L 1.421875 -5.171875 L 1.421875 -4.140625 L 2.5 -4.140625 L 2.5 -3.5625 Z M 1.421875 -3.5625 "/></g></g></g><g fill="#000000" fill-opacity="1"><g transform="translate(100.33614, 104.374532)"><g><path d="M 4.359375 -2.21875 C 4.359375 -2.09375 4.347656 -1.957031 4.328125 -1.8125 L 1.03125 -1.8125 C 1.050781 -1.40625 1.1875 -1.085938 1.4375 -0.859375 C 1.695312 -0.628906 2.007812 -0.515625 2.375 -0.515625 C 2.664062 -0.515625 2.910156 -0.582031 3.109375 -0.71875 C 3.304688 -0.851562 3.445312 -1.039062 3.53125 -1.28125 L 4.265625 -1.28125 C 4.160156 -0.875 3.941406 -0.546875 3.609375 -0.296875 C 3.273438 -0.0546875 2.863281 0.0625 2.375 0.0625 C 1.976562 0.0625 1.625 -0.0195312 1.3125 -0.1875 C 1.007812 -0.363281 0.769531 -0.613281 0.59375 -0.9375 C 0.414062 -1.269531 0.328125 -1.648438 0.328125 -2.078125 C 0.328125 -2.503906 0.410156 -2.878906 0.578125 -3.203125 C 0.753906 -3.523438 0.992188 -3.769531 1.296875 -3.9375 C 1.609375 -4.113281 1.96875 -4.203125 2.375 -4.203125 C 2.757812 -4.203125 3.101562 -4.113281 3.40625 -3.9375 C 3.707031 -3.769531 3.941406 -3.535156 4.109375 -3.234375 C 4.273438 -2.941406 4.359375 -2.601562 4.359375 -2.21875 Z M 3.640625 -2.375 C 3.640625 -2.632812 3.582031 -2.859375 3.46875 -3.046875 C 3.351562 -3.234375 3.195312 -3.375 3 -3.46875 C 2.800781 -3.570312 2.582031 -3.625 2.34375 -3.625 C 1.988281 -3.625 1.691406 -3.507812 1.453125 -3.28125 C 1.210938 -3.0625 1.070312 -2.757812 1.03125 -2.375 Z M 3.640625 -2.375 "/></g></g></g><g fill="#000000" fill-opacity="1"><g transform="translate(105.013124, 104.374532)"><g><path d="M 0.328125 -2.078125 C 0.328125 -2.503906 0.410156 -2.875 0.578125 -3.1875 C 0.753906 -3.507812 0.988281 -3.757812 1.28125 -3.9375 C 1.582031 -4.113281 1.921875 -4.203125 2.296875 -4.203125 C 2.617188 -4.203125 2.914062 -4.128906 3.1875 -3.984375 C 3.46875 -3.835938 3.679688 -3.640625 3.828125 -3.390625 L 3.828125 -5.578125 L 4.515625 -5.578125 L 4.515625 0 L 3.828125 0 L 3.828125 -0.78125 C 3.691406 -0.53125 3.488281 -0.328125 3.21875 -0.171875 C 2.957031 -0.015625 2.644531 0.0625 2.28125 0.0625 C 1.914062 0.0625 1.582031 -0.0234375 1.28125 -0.203125 C 0.988281 -0.378906 0.753906 -0.628906 0.578125 -0.953125 C 0.410156 -1.285156 0.328125 -1.660156 0.328125 -2.078125 Z M 3.828125 -2.078125 C 3.828125 -2.390625 3.765625 -2.660156 3.640625 -2.890625 C 3.515625 -3.117188 3.34375 -3.296875 3.125 -3.421875 C 2.914062 -3.546875 2.679688 -3.609375 2.421875 -3.609375 C 2.160156 -3.609375 1.925781 -3.546875 1.71875 -3.421875 C 1.507812 -3.304688 1.34375 -3.128906 1.21875 -2.890625 C 1.09375 -2.660156 1.03125 -2.390625 1.03125 -2.078125 C 1.03125 -1.765625 1.09375 -1.488281 1.21875 -1.25 C 1.34375 -1.019531 1.507812 -0.84375 1.71875 -0.71875 C 1.925781 -0.59375 2.160156 -0.53125 2.421875 -0.53125 C 2.679688 -0.53125 2.914062 -0.59375 3.125 -0.71875 C 3.34375 -0.84375 3.515625 -1.019531 3.640625 -1.25 C 3.765625 -1.488281 3.828125 -1.765625 3.828125 -2.078125 Z M 3.828125 -2.078125 "/></g></g></g><g fill="#000000" fill-opacity="1"><g transform="translate(110.112546, 104.374532)"><g/></g></g><g fill="#000000" fill-opacity="1"><g transform="translate(112.126665, 104.374532)"><g><path d="M 2.265625 -3.5625 L 1.390625 -3.5625 L 1.390625 0 L 0.703125 0 L 0.703125 -3.5625 L 0.171875 -3.5625 L 0.171875 -4.140625 L 0.703125 -4.140625 L 0.703125 -4.4375 C 0.703125 -4.894531 0.820312 -5.226562 1.0625 -5.4375 C 1.300781 -5.65625 1.6875 -5.765625 2.21875 -5.765625 L 2.21875 -5.1875 C 1.914062 -5.1875 1.703125 -5.128906 1.578125 -5.015625 C 1.453125 -4.898438 1.390625 -4.707031 1.390625 -4.4375 L 1.390625 -4.140625 L 2.265625 -4.140625 Z M 2.265625 -3.5625 "/></g></g></g><g fill="#000000" fill-opacity="1"><g transform="translate(114.608484, 104.374532)"><g><path d="M 2.390625 0.0625 C 1.992188 0.0625 1.640625 -0.0195312 1.328125 -0.1875 C 1.015625 -0.363281 0.769531 -0.613281 0.59375 -0.9375 C 0.414062 -1.269531 0.328125 -1.648438 0.328125 -2.078125 C 0.328125 -2.492188 0.414062 -2.863281 0.59375 -3.1875 C 0.78125 -3.519531 1.03125 -3.769531 1.34375 -3.9375 C 1.664062 -4.113281 2.023438 -4.203125 2.421875 -4.203125 C 2.804688 -4.203125 3.15625 -4.113281 3.46875 -3.9375 C 3.789062 -3.769531 4.039062 -3.523438 4.21875 -3.203125 C 4.40625 -2.878906 4.5 -2.503906 4.5 -2.078125 C 4.5 -1.648438 4.40625 -1.269531 4.21875 -0.9375 C 4.03125 -0.613281 3.773438 -0.363281 3.453125 -0.1875 C 3.128906 -0.0195312 2.773438 0.0625 2.390625 0.0625 Z M 2.390625 -0.53125 C 2.628906 -0.53125 2.859375 -0.585938 3.078125 -0.703125 C 3.296875 -0.828125 3.46875 -1.003906 3.59375 -1.234375 C 3.726562 -1.460938 3.796875 -1.742188 3.796875 -2.078125 C 3.796875 -2.410156 3.726562 -2.691406 3.59375 -2.921875 C 3.46875 -3.148438 3.300781 -3.320312 3.09375 -3.4375 C 2.882812 -3.550781 2.65625 -3.609375 2.40625 -3.609375 C 2.15625 -3.609375 1.925781 -3.550781 1.71875 -3.4375 C 1.507812 -3.320312 1.34375 -3.148438 1.21875 -2.921875 C 1.09375 -2.691406 1.03125 -2.410156 1.03125 -2.078125 C 1.03125 -1.734375 1.085938 -1.445312 1.203125 -1.21875 C 1.328125 -0.988281 1.492188 -0.816406 1.703125 -0.703125 C 1.910156 -0.585938 2.140625 -0.53125 2.390625 -0.53125 Z M 2.390625 -0.53125 "/></g></g></g><g fill="#000000" fill-opacity="1"><g transform="translate(119.436338, 104.374532)"><g><path d="M 1.265625 -3.46875 C 1.390625 -3.695312 1.5625 -3.878906 1.78125 -4.015625 C 2.007812 -4.148438 2.285156 -4.21875 2.609375 -4.21875 L 2.609375 -3.5 L 2.421875 -3.5 C 1.648438 -3.5 1.265625 -3.082031 1.265625 -2.25 L 1.265625 0 L 0.578125 0 L 0.578125 -4.140625 L 1.265625 -4.140625 Z M 1.265625 -3.46875 "/></g></g></g><g fill="#000000" fill-opacity="1"><g transform="translate(122.250075, 104.374532)"><g/></g></g><g fill="#000000" fill-opacity="1"><g transform="translate(124.264194, 104.374532)"><g><path d="M 2.21875 -5.265625 C 2.789062 -5.265625 3.285156 -5.15625 3.703125 -4.9375 C 4.128906 -4.726562 4.453125 -4.421875 4.671875 -4.015625 C 4.898438 -3.617188 5.015625 -3.15625 5.015625 -2.625 C 5.015625 -2.082031 4.898438 -1.613281 4.671875 -1.21875 C 4.453125 -0.820312 4.128906 -0.519531 3.703125 -0.3125 C 3.285156 -0.101562 2.789062 0 2.21875 0 L 0.578125 0 L 0.578125 -5.265625 Z M 2.21875 -0.5625 C 2.894531 -0.5625 3.410156 -0.738281 3.765625 -1.09375 C 4.128906 -1.457031 4.3125 -1.96875 4.3125 -2.625 C 4.3125 -3.269531 4.128906 -3.773438 3.765625 -4.140625 C 3.410156 -4.515625 2.894531 -4.703125 2.21875 -4.703125 L 1.265625 -4.703125 L 1.265625 -0.5625 Z M 2.21875 -0.5625 "/></g></g></g><g fill="#000000" fill-opacity="1"><g transform="translate(129.597462, 104.374532)"><g><path d="M 3.21875 -2.703125 C 3.40625 -2.671875 3.578125 -2.59375 3.734375 -2.46875 C 3.898438 -2.34375 4.023438 -2.1875 4.109375 -2 C 4.203125 -1.820312 4.25 -1.625 4.25 -1.40625 C 4.25 -1.144531 4.179688 -0.90625 4.046875 -0.6875 C 3.910156 -0.476562 3.710938 -0.3125 3.453125 -0.1875 C 3.203125 -0.0625 2.898438 0 2.546875 0 L 0.578125 0 L 0.578125 -5.265625 L 2.46875 -5.265625 C 2.820312 -5.265625 3.125 -5.203125 3.375 -5.078125 C 3.632812 -4.960938 3.828125 -4.800781 3.953125 -4.59375 C 4.078125 -4.394531 4.140625 -4.171875 4.140625 -3.921875 C 4.140625 -3.609375 4.050781 -3.347656 3.875 -3.140625 C 3.707031 -2.941406 3.488281 -2.796875 3.21875 -2.703125 Z M 1.265625 -2.984375 L 2.421875 -2.984375 C 2.742188 -2.984375 2.992188 -3.054688 3.171875 -3.203125 C 3.347656 -3.359375 3.4375 -3.570312 3.4375 -3.84375 C 3.4375 -4.101562 3.347656 -4.304688 3.171875 -4.453125 C 2.992188 -4.609375 2.738281 -4.6875 2.40625 -4.6875 L 1.265625 -4.6875 Z M 2.484375 -0.5625 C 2.828125 -0.5625 3.09375 -0.640625 3.28125 -0.796875 C 3.46875 -0.960938 3.5625 -1.191406 3.5625 -1.484375 C 3.5625 -1.773438 3.460938 -2.003906 3.265625 -2.171875 C 3.066406 -2.335938 2.796875 -2.421875 2.453125 -2.421875 L 1.265625 -2.421875 L 1.265625 -0.5625 Z M 2.484375 -0.5625 "/></g></g></g><g fill="#000000" fill-opacity="1"><g transform="translate(134.221642, 104.374532)"><g><path d="M 5.921875 -5.21875 L 5.921875 0 L 5.234375 0 L 5.234375 -3.890625 L 3.5 0 L 3.015625 0 L 1.265625 -3.90625 L 1.265625 0 L 0.578125 0 L 0.578125 -5.21875 L 1.328125 -5.21875 L 3.25 -0.90625 L 5.1875 -5.21875 Z M 5.921875 -5.21875 "/></g></g></g><g fill="#000000" fill-opacity="1"><g transform="translate(140.716614, 104.374532)"><g><path d="M 2.25 0.046875 C 1.90625 0.046875 1.59375 -0.0078125 1.3125 -0.125 C 1.039062 -0.25 0.828125 -0.421875 0.671875 -0.640625 C 0.515625 -0.859375 0.4375 -1.113281 0.4375 -1.40625 L 1.15625 -1.40625 C 1.1875 -1.15625 1.289062 -0.945312 1.46875 -0.78125 C 1.644531 -0.613281 1.90625 -0.53125 2.25 -0.53125 C 2.570312 -0.53125 2.828125 -0.609375 3.015625 -0.765625 C 3.210938 -0.929688 3.3125 -1.144531 3.3125 -1.40625 C 3.3125 -1.601562 3.253906 -1.765625 3.140625 -1.890625 C 3.023438 -2.015625 2.882812 -2.109375 2.71875 -2.171875 C 2.550781 -2.242188 2.328125 -2.316406 2.046875 -2.390625 C 1.703125 -2.484375 1.425781 -2.570312 1.21875 -2.65625 C 1.007812 -2.75 0.828125 -2.890625 0.671875 -3.078125 C 0.523438 -3.273438 0.453125 -3.539062 0.453125 -3.875 C 0.453125 -4.15625 0.523438 -4.40625 0.671875 -4.625 C 0.816406 -4.851562 1.019531 -5.023438 1.28125 -5.140625 C 1.550781 -5.265625 1.859375 -5.328125 2.203125 -5.328125 C 2.691406 -5.328125 3.09375 -5.203125 3.40625 -4.953125 C 3.726562 -4.710938 3.910156 -4.390625 3.953125 -3.984375 L 3.1875 -3.984375 C 3.164062 -4.179688 3.0625 -4.351562 2.875 -4.5 C 2.6875 -4.65625 2.441406 -4.734375 2.140625 -4.734375 C 1.847656 -4.734375 1.609375 -4.660156 1.421875 -4.515625 C 1.242188 -4.367188 1.15625 -4.160156 1.15625 -3.890625 C 1.15625 -3.703125 1.207031 -3.546875 1.3125 -3.421875 C 1.425781 -3.304688 1.5625 -3.21875 1.71875 -3.15625 C 1.882812 -3.09375 2.109375 -3.019531 2.390625 -2.9375 C 2.734375 -2.84375 3.007812 -2.75 3.21875 -2.65625 C 3.4375 -2.5625 3.617188 -2.414062 3.765625 -2.21875 C 3.921875 -2.03125 4 -1.769531 4 -1.4375 C 4 -1.175781 3.929688 -0.929688 3.796875 -0.703125 C 3.660156 -0.484375 3.457031 -0.300781 3.1875 -0.15625 C 2.925781 -0.0195312 2.613281 0.046875 2.25 0.046875 Z M 2.25 0.046875 "/></g></g></g><g fill="#000000" fill-opacity="1"><g transform="translate(145.144661, 104.374532)"><g/></g></g><g fill="#000000" fill-opacity="1"><g transform="translate(147.158781, 104.374532)"><g><path d="M 0.328125 -2.078125 C 0.328125 -2.503906 0.410156 -2.875 0.578125 -3.1875 C 0.753906 -3.507812 0.988281 -3.757812 1.28125 -3.9375 C 1.582031 -4.113281 1.914062 -4.203125 2.28125 -4.203125 C 2.644531 -4.203125 2.957031 -4.125 3.21875 -3.96875 C 3.488281 -3.8125 3.691406 -3.613281 3.828125 -3.375 L 3.828125 -4.140625 L 4.515625 -4.140625 L 4.515625 0 L 3.828125 0 L 3.828125 -0.765625 C 3.691406 -0.523438 3.488281 -0.328125 3.21875 -0.171875 C 2.945312 -0.015625 2.632812 0.0625 2.28125 0.0625 C 1.914062 0.0625 1.582031 -0.0234375 1.28125 -0.203125 C 0.988281 -0.378906 0.753906 -0.628906 0.578125 -0.953125 C 0.410156 -1.285156 0.328125 -1.660156 0.328125 -2.078125 Z M 3.828125 -2.078125 C 3.828125 -2.390625 3.765625 -2.660156 3.640625 -2.890625 C 3.515625 -3.117188 3.34375 -3.296875 3.125 -3.421875 C 2.914062 -3.546875 2.679688 -3.609375 2.421875 -3.609375 C 2.160156 -3.609375 1.925781 -3.546875 1.71875 -3.421875 C 1.507812 -3.304688 1.34375 -3.128906 1.21875 -2.890625 C 1.09375 -2.660156 1.03125 -2.390625 1.03125 -2.078125 C 1.03125 -1.765625 1.09375 -1.488281 1.21875 -1.25 C 1.34375 -1.019531 1.507812 -0.84375 1.71875 -0.71875 C 1.925781 -0.59375 2.160156 -0.53125 2.421875 -0.53125 C 2.679688 -0.53125 2.914062 -0.59375 3.125 -0.71875 C 3.34375 -0.84375 3.515625 -1.019531 3.640625 -1.25 C 3.765625 -1.488281 3.828125 -1.765625 3.828125 -2.078125 Z M 3.828125 -2.078125 "/></g></g></g><g fill="#000000" fill-opacity="1"><g transform="translate(152.258202, 104.374532)"><g><path d="M 2.046875 0.0625 C 1.722656 0.0625 1.4375 0.0078125 1.1875 -0.09375 C 0.9375 -0.195312 0.738281 -0.347656 0.59375 -0.546875 C 0.445312 -0.742188 0.367188 -0.96875 0.359375 -1.21875 L 1.0625 -1.21875 C 1.082031 -1.007812 1.175781 -0.835938 1.34375 -0.703125 C 1.519531 -0.578125 1.75 -0.515625 2.03125 -0.515625 C 2.300781 -0.515625 2.507812 -0.570312 2.65625 -0.6875 C 2.8125 -0.800781 2.890625 -0.945312 2.890625 -1.125 C 2.890625 -1.300781 2.804688 -1.429688 2.640625 -1.515625 C 2.484375 -1.609375 2.234375 -1.695312 1.890625 -1.78125 C 1.585938 -1.863281 1.335938 -1.945312 1.140625 -2.03125 C 0.953125 -2.113281 0.785156 -2.238281 0.640625 -2.40625 C 0.503906 -2.570312 0.4375 -2.785156 0.4375 -3.046875 C 0.4375 -3.253906 0.5 -3.445312 0.625 -3.625 C 0.75 -3.800781 0.925781 -3.941406 1.15625 -4.046875 C 1.394531 -4.148438 1.660156 -4.203125 1.953125 -4.203125 C 2.410156 -4.203125 2.78125 -4.085938 3.0625 -3.859375 C 3.34375 -3.628906 3.492188 -3.3125 3.515625 -2.90625 L 2.828125 -2.90625 C 2.816406 -3.125 2.726562 -3.296875 2.5625 -3.421875 C 2.40625 -3.554688 2.195312 -3.625 1.9375 -3.625 C 1.6875 -3.625 1.488281 -3.570312 1.34375 -3.46875 C 1.195312 -3.363281 1.125 -3.222656 1.125 -3.046875 C 1.125 -2.910156 1.164062 -2.796875 1.25 -2.703125 C 1.34375 -2.617188 1.453125 -2.550781 1.578125 -2.5 C 1.710938 -2.445312 1.898438 -2.390625 2.140625 -2.328125 C 2.441406 -2.242188 2.679688 -2.160156 2.859375 -2.078125 C 3.046875 -2.003906 3.207031 -1.890625 3.34375 -1.734375 C 3.476562 -1.578125 3.546875 -1.375 3.546875 -1.125 C 3.546875 -0.894531 3.484375 -0.6875 3.359375 -0.5 C 3.234375 -0.320312 3.054688 -0.179688 2.828125 -0.078125 C 2.597656 0.015625 2.335938 0.0625 2.046875 0.0625 Z M 2.046875 0.0625 "/></g></g></g><g fill="#000000" fill-opacity="1"><g transform="translate(156.195919, 104.374532)"><g><path d="M 2.046875 0.0625 C 1.722656 0.0625 1.4375 0.0078125 1.1875 -0.09375 C 0.9375 -0.195312 0.738281 -0.347656 0.59375 -0.546875 C 0.445312 -0.742188 0.367188 -0.96875 0.359375 -1.21875 L 1.0625 -1.21875 C 1.082031 -1.007812 1.175781 -0.835938 1.34375 -0.703125 C 1.519531 -0.578125 1.75 -0.515625 2.03125 -0.515625 C 2.300781 -0.515625 2.507812 -0.570312 2.65625 -0.6875 C 2.8125 -0.800781 2.890625 -0.945312 2.890625 -1.125 C 2.890625 -1.300781 2.804688 -1.429688 2.640625 -1.515625 C 2.484375 -1.609375 2.234375 -1.695312 1.890625 -1.78125 C 1.585938 -1.863281 1.335938 -1.945312 1.140625 -2.03125 C 0.953125 -2.113281 0.785156 -2.238281 0.640625 -2.40625 C 0.503906 -2.570312 0.4375 -2.785156 0.4375 -3.046875 C 0.4375 -3.253906 0.5 -3.445312 0.625 -3.625 C 0.75 -3.800781 0.925781 -3.941406 1.15625 -4.046875 C 1.394531 -4.148438 1.660156 -4.203125 1.953125 -4.203125 C 2.410156 -4.203125 2.78125 -4.085938 3.0625 -3.859375 C 3.34375 -3.628906 3.492188 -3.3125 3.515625 -2.90625 L 2.828125 -2.90625 C 2.816406 -3.125 2.726562 -3.296875 2.5625 -3.421875 C 2.40625 -3.554688 2.195312 -3.625 1.9375 -3.625 C 1.6875 -3.625 1.488281 -3.570312 1.34375 -3.46875 C 1.195312 -3.363281 1.125 -3.222656 1.125 -3.046875 C 1.125 -2.910156 1.164062 -2.796875 1.25 -2.703125 C 1.34375 -2.617188 1.453125 -2.550781 1.578125 -2.5 C 1.710938 -2.445312 1.898438 -2.390625 2.140625 -2.328125 C 2.441406 -2.242188 2.679688 -2.160156 2.859375 -2.078125 C 3.046875 -2.003906 3.207031 -1.890625 3.34375 -1.734375 C 3.476562 -1.578125 3.546875 -1.375 3.546875 -1.125 C 3.546875 -0.894531 3.484375 -0.6875 3.359375 -0.5 C 3.234375 -0.320312 3.054688 -0.179688 2.828125 -0.078125 C 2.597656 0.015625 2.335938 0.0625 2.046875 0.0625 Z M 2.046875 0.0625 "/></g></g></g><g fill="#000000" fill-opacity="1"><g transform="translate(160.133636, 104.374532)"><g><path d="M 4.359375 -2.21875 C 4.359375 -2.09375 4.347656 -1.957031 4.328125 -1.8125 L 1.03125 -1.8125 C 1.050781 -1.40625 1.1875 -1.085938 1.4375 -0.859375 C 1.695312 -0.628906 2.007812 -0.515625 2.375 -0.515625 C 2.664062 -0.515625 2.910156 -0.582031 3.109375 -0.71875 C 3.304688 -0.851562 3.445312 -1.039062 3.53125 -1.28125 L 4.265625 -1.28125 C 4.160156 -0.875 3.941406 -0.546875 3.609375 -0.296875 C 3.273438 -0.0546875 2.863281 0.0625 2.375 0.0625 C 1.976562 0.0625 1.625 -0.0195312 1.3125 -0.1875 C 1.007812 -0.363281 0.769531 -0.613281 0.59375 -0.9375 C 0.414062 -1.269531 0.328125 -1.648438 0.328125 -2.078125 C 0.328125 -2.503906 0.410156 -2.878906 0.578125 -3.203125 C 0.753906 -3.523438 0.992188 -3.769531 1.296875 -3.9375 C 1.609375 -4.113281 1.96875 -4.203125 2.375 -4.203125 C 2.757812 -4.203125 3.101562 -4.113281 3.40625 -3.9375 C 3.707031 -3.769531 3.941406 -3.535156 4.109375 -3.234375 C 4.273438 -2.941406 4.359375 -2.601562 4.359375 -2.21875 Z M 3.640625 -2.375 C 3.640625 -2.632812 3.582031 -2.859375 3.46875 -3.046875 C 3.351562 -3.234375 3.195312 -3.375 3 -3.46875 C 2.800781 -3.570312 2.582031 -3.625 2.34375 -3.625 C 1.988281 -3.625 1.691406 -3.507812 1.453125 -3.28125 C 1.210938 -3.0625 1.070312 -2.757812 1.03125 -2.375 Z M 3.640625 -2.375 "/></g></g></g><g fill="#000000" fill-opacity="1"><g transform="translate(164.810622, 104.374532)"><g><path d="M 2.046875 0.0625 C 1.722656 0.0625 1.4375 0.0078125 1.1875 -0.09375 C 0.9375 -0.195312 0.738281 -0.347656 0.59375 -0.546875 C 0.445312 -0.742188 0.367188 -0.96875 0.359375 -1.21875 L 1.0625 -1.21875 C 1.082031 -1.007812 1.175781 -0.835938 1.34375 -0.703125 C 1.519531 -0.578125 1.75 -0.515625 2.03125 -0.515625 C 2.300781 -0.515625 2.507812 -0.570312 2.65625 -0.6875 C 2.8125 -0.800781 2.890625 -0.945312 2.890625 -1.125 C 2.890625 -1.300781 2.804688 -1.429688 2.640625 -1.515625 C 2.484375 -1.609375 2.234375 -1.695312 1.890625 -1.78125 C 1.585938 -1.863281 1.335938 -1.945312 1.140625 -2.03125 C 0.953125 -2.113281 0.785156 -2.238281 0.640625 -2.40625 C 0.503906 -2.570312 0.4375 -2.785156 0.4375 -3.046875 C 0.4375 -3.253906 0.5 -3.445312 0.625 -3.625 C 0.75 -3.800781 0.925781 -3.941406 1.15625 -4.046875 C 1.394531 -4.148438 1.660156 -4.203125 1.953125 -4.203125 C 2.410156 -4.203125 2.78125 -4.085938 3.0625 -3.859375 C 3.34375 -3.628906 3.492188 -3.3125 3.515625 -2.90625 L 2.828125 -2.90625 C 2.816406 -3.125 2.726562 -3.296875 2.5625 -3.421875 C 2.40625 -3.554688 2.195312 -3.625 1.9375 -3.625 C 1.6875 -3.625 1.488281 -3.570312 1.34375 -3.46875 C 1.195312 -3.363281 1.125 -3.222656 1.125 -3.046875 C 1.125 -2.910156 1.164062 -2.796875 1.25 -2.703125 C 1.34375 -2.617188 1.453125 -2.550781 1.578125 -2.5 C 1.710938 -2.445312 1.898438 -2.390625 2.140625 -2.328125 C 2.441406 -2.242188 2.679688 -2.160156 2.859375 -2.078125 C 3.046875 -2.003906 3.207031 -1.890625 3.34375 -1.734375 C 3.476562 -1.578125 3.546875 -1.375 3.546875 -1.125 C 3.546875 -0.894531 3.484375 -0.6875 3.359375 -0.5 C 3.234375 -0.320312 3.054688 -0.179688 2.828125 -0.078125 C 2.597656 0.015625 2.335938 0.0625 2.046875 0.0625 Z M 2.046875 0.0625 "/></g></g></g><g fill="#000000" fill-opacity="1"><g transform="translate(168.748339, 104.374532)"><g><path d="M 2.046875 0.0625 C 1.722656 0.0625 1.4375 0.0078125 1.1875 -0.09375 C 0.9375 -0.195312 0.738281 -0.347656 0.59375 -0.546875 C 0.445312 -0.742188 0.367188 -0.96875 0.359375 -1.21875 L 1.0625 -1.21875 C 1.082031 -1.007812 1.175781 -0.835938 1.34375 -0.703125 C 1.519531 -0.578125 1.75 -0.515625 2.03125 -0.515625 C 2.300781 -0.515625 2.507812 -0.570312 2.65625 -0.6875 C 2.8125 -0.800781 2.890625 -0.945312 2.890625 -1.125 C 2.890625 -1.300781 2.804688 -1.429688 2.640625 -1.515625 C 2.484375 -1.609375 2.234375 -1.695312 1.890625 -1.78125 C 1.585938 -1.863281 1.335938 -1.945312 1.140625 -2.03125 C 0.953125 -2.113281 0.785156 -2.238281 0.640625 -2.40625 C 0.503906 -2.570312 0.4375 -2.785156 0.4375 -3.046875 C 0.4375 -3.253906 0.5 -3.445312 0.625 -3.625 C 0.75 -3.800781 0.925781 -3.941406 1.15625 -4.046875 C 1.394531 -4.148438 1.660156 -4.203125 1.953125 -4.203125 C 2.410156 -4.203125 2.78125 -4.085938 3.0625 -3.859375 C 3.34375 -3.628906 3.492188 -3.3125 3.515625 -2.90625 L 2.828125 -2.90625 C 2.816406 -3.125 2.726562 -3.296875 2.5625 -3.421875 C 2.40625 -3.554688 2.195312 -3.625 1.9375 -3.625 C 1.6875 -3.625 1.488281 -3.570312 1.34375 -3.46875 C 1.195312 -3.363281 1.125 -3.222656 1.125 -3.046875 C 1.125 -2.910156 1.164062 -2.796875 1.25 -2.703125 C 1.34375 -2.617188 1.453125 -2.550781 1.578125 -2.5 C 1.710938 -2.445312 1.898438 -2.390625 2.140625 -2.328125 C 2.441406 -2.242188 2.679688 -2.160156 2.859375 -2.078125 C 3.046875 -2.003906 3.207031 -1.890625 3.34375 -1.734375 C 3.476562 -1.578125 3.546875 -1.375 3.546875 -1.125 C 3.546875 -0.894531 3.484375 -0.6875 3.359375 -0.5 C 3.234375 -0.320312 3.054688 -0.179688 2.828125 -0.078125 C 2.597656 0.015625 2.335938 0.0625 2.046875 0.0625 Z M 2.046875 0.0625 "/></g></g></g><g fill="#000000" fill-opacity="1"><g transform="translate(172.686056, 104.374532)"><g><path d="M 5.546875 -4.21875 C 5.867188 -4.21875 6.15625 -4.148438 6.40625 -4.015625 C 6.664062 -3.878906 6.867188 -3.675781 7.015625 -3.40625 C 7.160156 -3.144531 7.234375 -2.820312 7.234375 -2.4375 L 7.234375 0 L 6.546875 0 L 6.546875 -2.34375 C 6.546875 -2.75 6.441406 -3.0625 6.234375 -3.28125 C 6.035156 -3.5 5.765625 -3.609375 5.421875 -3.609375 C 5.066406 -3.609375 4.78125 -3.492188 4.5625 -3.265625 C 4.351562 -3.035156 4.25 -2.707031 4.25 -2.28125 L 4.25 0 L 3.5625 0 L 3.5625 -2.34375 C 3.5625 -2.75 3.457031 -3.0625 3.25 -3.28125 C 3.050781 -3.5 2.78125 -3.609375 2.4375 -3.609375 C 2.082031 -3.609375 1.796875 -3.492188 1.578125 -3.265625 C 1.367188 -3.035156 1.265625 -2.707031 1.265625 -2.28125 L 1.265625 0 L 0.578125 0 L 0.578125 -4.140625 L 1.265625 -4.140625 L 1.265625 -3.546875 C 1.398438 -3.753906 1.582031 -3.914062 1.8125 -4.03125 C 2.039062 -4.15625 2.296875 -4.21875 2.578125 -4.21875 C 2.921875 -4.21875 3.222656 -4.140625 3.484375 -3.984375 C 3.753906 -3.828125 3.957031 -3.597656 4.09375 -3.296875 C 4.207031 -3.585938 4.394531 -3.8125 4.65625 -3.96875 C 4.925781 -4.132812 5.222656 -4.21875 5.546875 -4.21875 Z M 5.546875 -4.21875 "/></g></g></g><g fill="#000000" fill-opacity="1"><g transform="translate(180.455888, 104.374532)"><g><path d="M 4.359375 -2.21875 C 4.359375 -2.09375 4.347656 -1.957031 4.328125 -1.8125 L 1.03125 -1.8125 C 1.050781 -1.40625 1.1875 -1.085938 1.4375 -0.859375 C 1.695312 -0.628906 2.007812 -0.515625 2.375 -0.515625 C 2.664062 -0.515625 2.910156 -0.582031 3.109375 -0.71875 C 3.304688 -0.851562 3.445312 -1.039062 3.53125 -1.28125 L 4.265625 -1.28125 C 4.160156 -0.875 3.941406 -0.546875 3.609375 -0.296875 C 3.273438 -0.0546875 2.863281 0.0625 2.375 0.0625 C 1.976562 0.0625 1.625 -0.0195312 1.3125 -0.1875 C 1.007812 -0.363281 0.769531 -0.613281 0.59375 -0.9375 C 0.414062 -1.269531 0.328125 -1.648438 0.328125 -2.078125 C 0.328125 -2.503906 0.410156 -2.878906 0.578125 -3.203125 C 0.753906 -3.523438 0.992188 -3.769531 1.296875 -3.9375 C 1.609375 -4.113281 1.96875 -4.203125 2.375 -4.203125 C 2.757812 -4.203125 3.101562 -4.113281 3.40625 -3.9375 C 3.707031 -3.769531 3.941406 -3.535156 4.109375 -3.234375 C 4.273438 -2.941406 4.359375 -2.601562 4.359375 -2.21875 Z M 3.640625 -2.375 C 3.640625 -2.632812 3.582031 -2.859375 3.46875 -3.046875 C 3.351562 -3.234375 3.195312 -3.375 3 -3.46875 C 2.800781 -3.570312 2.582031 -3.625 2.34375 -3.625 C 1.988281 -3.625 1.691406 -3.507812 1.453125 -3.28125 C 1.210938 -3.0625 1.070312 -2.757812 1.03125 -2.375 Z M 3.640625 -2.375 "/></g></g></g><g fill="#000000" fill-opacity="1"><g transform="translate(185.132875, 104.374532)"><g><path d="M 2.59375 -4.21875 C 3.09375 -4.21875 3.5 -4.0625 3.8125 -3.75 C 4.125 -3.445312 4.28125 -3.007812 4.28125 -2.4375 L 4.28125 0 L 3.609375 0 L 3.609375 -2.34375 C 3.609375 -2.75 3.503906 -3.0625 3.296875 -3.28125 C 3.085938 -3.5 2.804688 -3.609375 2.453125 -3.609375 C 2.085938 -3.609375 1.796875 -3.492188 1.578125 -3.265625 C 1.367188 -3.046875 1.265625 -2.71875 1.265625 -2.28125 L 1.265625 0 L 0.578125 0 L 0.578125 -4.140625 L 1.265625 -4.140625 L 1.265625 -3.546875 C 1.398438 -3.753906 1.582031 -3.914062 1.8125 -4.03125 C 2.050781 -4.15625 2.3125 -4.21875 2.59375 -4.21875 Z M 2.59375 -4.21875 "/></g></g></g><g fill="#000000" fill-opacity="1"><g transform="translate(189.960729, 104.374532)"><g><path d="M 1.421875 -3.5625 L 1.421875 -1.125 C 1.421875 -0.925781 1.460938 -0.785156 1.546875 -0.703125 C 1.628906 -0.617188 1.78125 -0.578125 2 -0.578125 L 2.5 -0.578125 L 2.5 0 L 1.875 0 C 1.5 0 1.210938 -0.0859375 1.015625 -0.265625 C 0.828125 -0.441406 0.734375 -0.726562 0.734375 -1.125 L 0.734375 -3.5625 L 0.203125 -3.5625 L 0.203125 -4.140625 L 0.734375 -4.140625 L 0.734375 -5.171875 L 1.421875 -5.171875 L 1.421875 -4.140625 L 2.5 -4.140625 L 2.5 -3.5625 Z M 1.421875 -3.5625 "/></g></g></g><g fill="#000000" fill-opacity="1"><g transform="translate(192.706573, 104.374532)"><g><path d="M 0.796875 0.046875 C 0.671875 0.046875 0.5625 0.00390625 0.46875 -0.078125 C 0.375 -0.171875 0.328125 -0.285156 0.328125 -0.421875 C 0.328125 -0.554688 0.375 -0.664062 0.46875 -0.75 C 0.5625 -0.84375 0.671875 -0.890625 0.796875 -0.890625 C 0.921875 -0.890625 1.023438 -0.84375 1.109375 -0.75 C 1.203125 -0.664062 1.25 -0.554688 1.25 -0.421875 C 1.25 -0.285156 1.203125 -0.171875 1.109375 -0.078125 C 1.023438 0.00390625 0.921875 0.046875 0.796875 0.046875 Z M 0.796875 0.046875 "/></g></g></g></svg>