<svg xmlns="http://www.w3.org/2000/svg" xmlns:xlink="http://www.w3.org/1999/xlink" width="800" zoomAndPan="magnify" viewBox="0 0 600 149.999998" height="200" preserveAspectRatio="xMidYMid meet" version="1.0"><defs><g/><clipPath id="c11429597e"><path d="M 20.042969 9.417969 L 77 9.417969 L 77 124 L 20.042969 124 Z M 20.042969 9.417969 " clip-rule="nonzero"/></clipPath><clipPath id="382cf1be7d"><path d="M 73 9.417969 L 129.542969 9.417969 L 129.542969 124 L 73 124 Z M 73 9.417969 " clip-rule="nonzero"/></clipPath><clipPath id="0f229c9a15"><path d="M 67 126 L 83 126 L 83 140.667969 L 67 140.667969 Z M 67 126 " clip-rule="nonzero"/></clipPath></defs><path stroke-linecap="butt" transform="matrix(0.00000000000000023, -3.752792, 3.75, 0.00000000000000023, 150.95774, 117.266414)" fill="none" stroke-linejoin="miter" d="M 0.000210339 -0.000189052 L 25.182502 -0.000189052 " stroke="#5b5c38" stroke-width="1" stroke-opacity="1" stroke-miterlimit="4"/><path fill="#5b5c38" d="M 63.074219 63.792969 C 55.351562 63.792969 47.71875 62.28125 41.96875 59.75 C 36.5 57.335938 33.226562 54.234375 32.507812 50.765625 C 32 48.316406 31.910156 46 32.238281 43.878906 C 32.910156 39.519531 36.921875 36.371094 41.363281 36.710938 C 48.511719 37.261719 55.324219 38.777344 62.1875 41.347656 C 62.226562 41.363281 62.261719 41.378906 62.300781 41.390625 C 62.347656 41.363281 62.394531 41.339844 62.445312 41.320312 C 87.550781 30.664062 105.71875 27.890625 113.59375 33.503906 C 116.289062 35.429688 117.59375 38.265625 117.355469 41.703125 C 116.867188 48.816406 107.707031 50.449219 104.695312 50.988281 C 96.507812 52.445312 88.265625 52.308594 80.859375 50.597656 C 75.675781 49.398438 70.683594 47.449219 65.863281 45.5625 C 64.359375 44.976562 62.804688 44.367188 61.273438 43.796875 C 54.640625 41.3125 48.0625 39.847656 41.164062 39.316406 C 38.074219 39.074219 35.289062 41.257812 34.820312 44.277344 C 34.539062 46.089844 34.621094 48.09375 35.066406 50.238281 C 35.597656 52.804688 38.421875 55.332031 43.019531 57.355469 C 53.789062 62.097656 72.40625 63.046875 83.710938 56.316406 C 84.332031 55.945312 85.132812 56.148438 85.5 56.769531 C 85.871094 57.390625 85.667969 58.191406 85.046875 58.558594 C 78.898438 62.226562 70.941406 63.792969 63.074219 63.792969 Z M 65.820312 42.742188 C 66.152344 42.875 66.480469 43 66.8125 43.132812 C 71.550781 44.984375 76.449219 46.898438 81.449219 48.054688 C 88.515625 49.6875 96.394531 49.8125 104.238281 48.417969 C 111.074219 47.199219 114.515625 44.945312 114.753906 41.53125 C 114.925781 39.007812 114.027344 37.027344 112.082031 35.640625 C 105.40625 30.882812 88.210938 33.542969 65.820312 42.742188 Z M 65.820312 42.742188 " fill-opacity="1" fill-rule="nonzero"/><path fill="#5b5c38" d="M 93.476562 59.03125 C 89.121094 59.03125 84.867188 58.570312 80.859375 57.640625 C 75.675781 56.441406 70.683594 54.492188 65.859375 52.605469 C 64.355469 52.019531 62.800781 51.410156 61.273438 50.839844 C 54.640625 48.355469 48.0625 46.894531 41.164062 46.359375 C 38.59375 46.160156 36.203125 47.601562 35.210938 49.941406 C 34.929688 50.605469 34.160156 50.914062 33.496094 50.632812 C 32.835938 50.351562 32.523438 49.585938 32.804688 48.921875 C 34.234375 45.546875 37.679688 43.46875 41.363281 43.753906 C 48.511719 44.300781 55.324219 45.816406 62.1875 48.390625 C 63.734375 48.96875 65.296875 49.578125 66.808594 50.167969 C 71.546875 52.023438 76.445312 53.9375 81.449219 55.09375 C 88.515625 56.726562 96.394531 56.851562 104.238281 55.457031 C 111.074219 54.238281 114.515625 51.984375 114.753906 48.570312 C 114.996094 44.984375 115.035156 40.425781 114.691406 39.605469 C 114.359375 38.964844 114.605469 38.183594 115.246094 37.851562 C 115.886719 37.515625 116.679688 37.769531 117.011719 38.410156 C 117.878906 40.066406 117.496094 46.742188 117.355469 48.75 C 116.867188 55.863281 107.707031 57.496094 104.695312 58.035156 C 100.9375 58.699219 97.171875 59.03125 93.476562 59.03125 Z M 93.476562 59.03125 " fill-opacity="1" fill-rule="nonzero"/><path fill="#5b5c38" d="M 114.058594 46.773438 C 113.773438 46.773438 113.480469 46.679688 113.242188 46.484375 L 96.96875 33.3125 C 96.40625 32.859375 96.320312 32.035156 96.773438 31.472656 C 97.230469 30.910156 98.050781 30.824219 98.609375 31.28125 L 114.882812 44.453125 C 115.445312 44.90625 115.53125 45.730469 115.074219 46.292969 C 114.820312 46.609375 114.441406 46.773438 114.058594 46.773438 Z M 114.058594 46.773438 " fill-opacity="1" fill-rule="nonzero"/><path fill="#5b5c38" d="M 101.75 51.066406 C 101.460938 51.066406 101.171875 50.972656 100.929688 50.777344 L 83.046875 36.300781 C 82.484375 35.847656 82.398438 35.023438 82.851562 34.460938 C 83.308594 33.898438 84.128906 33.816406 84.6875 34.269531 L 102.570312 48.746094 C 103.132812 49.199219 103.21875 50.023438 102.765625 50.585938 C 102.507812 50.90625 102.128906 51.066406 101.75 51.066406 Z M 101.75 51.066406 " fill-opacity="1" fill-rule="nonzero"/><path fill="#5b5c38" d="M 84.378906 51.269531 C 84.089844 51.269531 83.800781 51.175781 83.558594 50.980469 L 70.839844 40.683594 C 70.277344 40.226562 70.191406 39.40625 70.644531 38.84375 C 71.097656 38.28125 71.921875 38.195312 72.484375 38.648438 L 85.203125 48.949219 C 85.765625 49.402344 85.851562 50.226562 85.398438 50.785156 C 85.136719 51.105469 84.761719 51.269531 84.378906 51.269531 Z M 84.378906 51.269531 " fill-opacity="1" fill-rule="nonzero"/><path fill="#5b5c38" d="M 76.464844 61.464844 C 76.179688 61.464844 75.886719 61.367188 75.644531 61.171875 L 64.652344 52.28125 C 64.089844 51.824219 64.007812 51.003906 64.460938 50.441406 C 64.914062 49.878906 65.738281 49.792969 66.300781 50.246094 L 77.289062 59.144531 C 77.851562 59.597656 77.933594 60.421875 77.480469 60.984375 C 77.222656 61.300781 76.84375 61.464844 76.464844 61.464844 Z M 76.464844 61.464844 " fill-opacity="1" fill-rule="nonzero"/><path fill="#5b5c38" d="M 64.199219 63.460938 C 63.910156 63.460938 63.621094 63.363281 63.378906 63.167969 L 42.484375 46.257812 C 41.921875 45.804688 41.839844 44.980469 42.292969 44.417969 C 42.746094 43.859375 43.570312 43.773438 44.132812 44.226562 L 65.023438 61.136719 C 65.582031 61.589844 65.667969 62.414062 65.214844 62.976562 C 64.957031 63.292969 64.578125 63.460938 64.199219 63.460938 Z M 64.199219 63.460938 " fill-opacity="1" fill-rule="nonzero"/><path fill="#5b5c38" d="M 72.28125 123.789062 C 71.558594 123.789062 70.976562 123.203125 70.976562 122.480469 L 70.976562 117.328125 C 70.976562 113.527344 69.265625 109.996094 66.292969 107.632812 C 63.445312 105.375 61.222656 102.136719 59.859375 99.820312 C 58.527344 97.550781 57.820312 94.941406 57.820312 92.269531 L 57.820312 69.421875 C 57.820312 68.699219 58.40625 68.117188 59.128906 68.117188 C 59.847656 68.117188 60.433594 68.699219 60.433594 69.421875 L 60.433594 92.269531 C 60.433594 94.476562 61.015625 96.625 62.113281 98.492188 C 63.363281 100.617188 65.386719 103.574219 67.917969 105.585938 C 71.523438 108.445312 73.589844 112.726562 73.589844 117.328125 L 73.589844 122.480469 C 73.589844 123.203125 73.003906 123.789062 72.28125 123.789062 Z M 72.28125 123.789062 " fill-opacity="1" fill-rule="nonzero"/><path fill="#5b5c38" d="M 77.3125 123.789062 C 76.59375 123.789062 76.007812 123.203125 76.007812 122.480469 L 76.007812 117.328125 C 76.007812 112.726562 78.074219 108.445312 81.679688 105.585938 C 84.210938 103.574219 86.234375 100.617188 87.488281 98.492188 C 88.585938 96.625 89.164062 94.476562 89.164062 92.269531 L 89.164062 69.421875 C 89.164062 68.699219 89.746094 68.117188 90.46875 68.117188 C 91.191406 68.117188 91.773438 68.699219 91.773438 69.421875 L 91.773438 92.269531 C 91.773438 94.941406 91.070312 97.550781 89.738281 99.820312 C 88.371094 102.132812 86.152344 105.371094 83.304688 107.632812 C 80.328125 109.996094 78.621094 113.527344 78.621094 117.328125 L 78.621094 122.480469 C 78.621094 123.203125 78.035156 123.789062 77.3125 123.789062 Z M 77.3125 123.789062 " fill-opacity="1" fill-rule="nonzero"/><path fill="#5b5c38" d="M 74.792969 96.066406 C 74.070312 96.066406 73.488281 95.480469 73.488281 94.757812 L 73.488281 69.421875 C 73.488281 68.699219 74.070312 68.117188 74.792969 68.117188 C 75.515625 68.117188 76.097656 68.699219 76.097656 69.421875 L 76.097656 94.753906 C 76.097656 95.480469 75.515625 96.066406 74.792969 96.066406 Z M 74.792969 96.066406 " fill-opacity="1" fill-rule="nonzero"/><g clip-path="url(#c11429597e)"><path fill="#5b5c38" d="M 72.28125 123.9375 L 51.382812 123.9375 C 45.105469 123.9375 39.652344 119.464844 38.421875 113.308594 L 20.824219 25.285156 C 20.042969 21.386719 21.042969 17.386719 23.558594 14.3125 C 26.082031 11.238281 29.808594 9.472656 33.78125 9.472656 L 75.164062 9.472656 C 75.882812 9.472656 76.46875 10.058594 76.46875 10.777344 C 76.46875 11.5 75.882812 12.085938 75.164062 12.085938 L 33.78125 12.085938 C 30.59375 12.085938 27.605469 13.5 25.585938 15.96875 C 23.5625 18.433594 22.761719 21.640625 23.386719 24.773438 L 40.984375 112.796875 C 41.972656 117.738281 46.34375 121.320312 51.382812 121.320312 L 72.285156 121.320312 C 73.007812 121.320312 73.589844 121.90625 73.589844 122.628906 C 73.589844 123.351562 73.003906 123.9375 72.28125 123.9375 Z M 72.28125 123.9375 " fill-opacity="1" fill-rule="nonzero"/></g><g clip-path="url(#382cf1be7d)"><path fill="#5b5c38" d="M 98.214844 123.9375 L 77.3125 123.9375 C 76.59375 123.9375 76.007812 123.351562 76.007812 122.628906 C 76.007812 121.90625 76.59375 121.320312 77.3125 121.320312 L 98.214844 121.320312 C 103.25 121.320312 107.625 117.738281 108.609375 112.796875 L 126.207031 24.773438 C 126.832031 21.644531 126.03125 18.433594 124.011719 15.96875 C 121.988281 13.5 119 12.085938 115.8125 12.085938 L 74.433594 12.085938 C 73.710938 12.085938 73.128906 11.5 73.128906 10.777344 C 73.128906 10.058594 73.710938 9.472656 74.433594 9.472656 L 115.8125 9.472656 C 119.789062 9.472656 123.511719 11.238281 126.03125 14.3125 C 128.550781 17.386719 129.550781 21.382812 128.773438 25.285156 L 111.171875 113.3125 C 109.941406 119.464844 104.492188 123.9375 98.214844 123.9375 Z M 98.214844 123.9375 " fill-opacity="1" fill-rule="nonzero"/></g><g clip-path="url(#0f229c9a15)"><path fill="#5b5c38" d="M 74.796875 126.644531 L 76.53125 131.980469 L 82.140625 131.980469 L 77.601562 135.277344 L 79.335938 140.617188 L 74.796875 137.316406 L 70.261719 140.617188 L 71.996094 135.277344 L 67.453125 131.980469 L 73.066406 131.980469 Z M 74.796875 126.644531 " fill-opacity="1" fill-rule="nonzero"/></g><path fill="#5b5c38" d="M 63.371094 134.675781 L 58.144531 134.675781 C 57.71875 134.675781 57.378906 134.335938 57.378906 133.910156 C 57.378906 133.484375 57.71875 133.140625 58.144531 133.140625 L 63.371094 133.140625 C 63.792969 133.140625 64.136719 133.484375 64.136719 133.910156 C 64.140625 134.332031 63.792969 134.675781 63.371094 134.675781 Z M 63.371094 134.675781 " fill-opacity="1" fill-rule="nonzero"/><path fill="#5b5c38" d="M 91.453125 134.675781 L 86.226562 134.675781 C 85.800781 134.675781 85.460938 134.335938 85.460938 133.910156 C 85.460938 133.484375 85.800781 133.140625 86.226562 133.140625 L 91.453125 133.140625 C 91.875 133.140625 92.21875 133.484375 92.21875 133.910156 C 92.21875 134.332031 91.875 134.675781 91.453125 134.675781 Z M 91.453125 134.675781 " fill-opacity="1" fill-rule="nonzero"/><g fill="#32230f" fill-opacity="1"><g transform="translate(172.330469, 71.268021)"><g><path d="M 11.5625 -28.796875 L 0.203125 -28.796875 L 0.203125 -35.484375 L 31.125 -35.484375 L 31.125 -28.796875 L 19.78125 -28.796875 L 19.78125 0 L 11.5625 0 Z M 11.5625 -28.796875 "/></g></g><g transform="translate(203.66109, 71.268021)"><g><path d="M 11.203125 -23.671875 C 12.148438 -24.992188 13.425781 -25.992188 15.03125 -26.671875 C 16.632812 -27.347656 18.484375 -27.6875 20.578125 -27.6875 L 20.578125 -20.375 C 19.703125 -20.445312 19.113281 -20.484375 18.8125 -20.484375 C 16.539062 -20.484375 14.765625 -19.847656 13.484375 -18.578125 C 12.203125 -17.316406 11.5625 -15.414062 11.5625 -12.875 L 11.5625 0 L 3.65625 0 L 3.65625 -27.28125 L 11.203125 -27.28125 Z M 11.203125 -23.671875 "/></g></g><g transform="translate(225.511411, 71.268021)"><g><path d="M 30.71875 -27.28125 L 18.40625 1.671875 C 17.15625 4.816406 15.609375 7.03125 13.765625 8.3125 C 11.921875 9.59375 9.695312 10.234375 7.09375 10.234375 C 5.675781 10.234375 4.273438 10.015625 2.890625 9.578125 C 1.503906 9.140625 0.375 8.53125 -0.5 7.75 L 2.390625 2.125 C 2.992188 2.664062 3.691406 3.085938 4.484375 3.390625 C 5.273438 3.703125 6.0625 3.859375 6.84375 3.859375 C 7.925781 3.859375 8.804688 3.59375 9.484375 3.0625 C 10.160156 2.539062 10.769531 1.671875 11.3125 0.453125 L 11.40625 0.203125 L -0.40625 -27.28125 L 7.75 -27.28125 L 15.40625 -8.765625 L 23.125 -27.28125 Z M 30.71875 -27.28125 "/></g></g><g transform="translate(255.828097, 71.268021)"><g/></g><g transform="translate(270.175291, 71.268021)"><g><path d="M 21.25 -1.3125 C 20.46875 -0.738281 19.507812 -0.304688 18.375 -0.015625 C 17.25 0.265625 16.0625 0.40625 14.8125 0.40625 C 11.5625 0.40625 9.046875 -0.421875 7.265625 -2.078125 C 5.492188 -3.734375 4.609375 -6.164062 4.609375 -9.375 L 4.609375 -20.578125 L 0.40625 -20.578125 L 0.40625 -26.671875 L 4.609375 -26.671875 L 4.609375 -33.3125 L 12.53125 -33.3125 L 12.53125 -26.671875 L 19.3125 -26.671875 L 19.3125 -20.578125 L 12.53125 -20.578125 L 12.53125 -9.484375 C 12.53125 -8.328125 12.820312 -7.4375 13.40625 -6.8125 C 14 -6.1875 14.835938 -5.875 15.921875 -5.875 C 17.171875 -5.875 18.234375 -6.210938 19.109375 -6.890625 Z M 21.25 -1.3125 "/></g></g><g transform="translate(292.228398, 71.268021)"><g><path d="M 20.234375 -27.6875 C 23.609375 -27.6875 26.332031 -26.671875 28.40625 -24.640625 C 30.488281 -22.609375 31.53125 -19.597656 31.53125 -15.609375 L 31.53125 0 L 23.625 0 L 23.625 -14.40625 C 23.625 -16.5625 23.148438 -18.171875 22.203125 -19.234375 C 21.253906 -20.304688 19.882812 -20.84375 18.09375 -20.84375 C 16.101562 -20.84375 14.515625 -20.222656 13.328125 -18.984375 C 12.148438 -17.753906 11.5625 -15.921875 11.5625 -13.484375 L 11.5625 0 L 3.65625 0 L 3.65625 -37.625 L 11.5625 -37.625 L 11.5625 -24.4375 C 12.601562 -25.488281 13.867188 -26.289062 15.359375 -26.84375 C 16.847656 -27.40625 18.472656 -27.6875 20.234375 -27.6875 Z M 20.234375 -27.6875 "/></g></g><g transform="translate(327.259886, 71.268021)"><g><path d="M 3.65625 -27.28125 L 11.5625 -27.28125 L 11.5625 0 L 3.65625 0 Z M 7.609375 -31.078125 C 6.148438 -31.078125 4.960938 -31.5 4.046875 -32.34375 C 3.140625 -33.1875 2.6875 -34.234375 2.6875 -35.484375 C 2.6875 -36.742188 3.140625 -37.796875 4.046875 -38.640625 C 4.960938 -39.484375 6.148438 -39.90625 7.609375 -39.90625 C 9.054688 -39.90625 10.234375 -39.5 11.140625 -38.6875 C 12.054688 -37.875 12.515625 -36.859375 12.515625 -35.640625 C 12.515625 -34.328125 12.054688 -33.238281 11.140625 -32.375 C 10.234375 -31.507812 9.054688 -31.078125 7.609375 -31.078125 Z M 7.609375 -31.078125 "/></g></g><g transform="translate(342.519623, 71.268021)"><g><path d="M 12.828125 0.40625 C 10.566406 0.40625 8.351562 0.128906 6.1875 -0.421875 C 4.019531 -0.984375 2.296875 -1.6875 1.015625 -2.53125 L 3.65625 -8.21875 C 4.863281 -7.4375 6.328125 -6.800781 8.046875 -6.3125 C 9.773438 -5.820312 11.46875 -5.578125 13.125 -5.578125 C 16.476562 -5.578125 18.15625 -6.40625 18.15625 -8.0625 C 18.15625 -8.84375 17.695312 -9.398438 16.78125 -9.734375 C 15.863281 -10.066406 14.460938 -10.351562 12.578125 -10.59375 C 10.347656 -10.9375 8.503906 -11.328125 7.046875 -11.765625 C 5.597656 -12.203125 4.335938 -12.976562 3.265625 -14.09375 C 2.203125 -15.207031 1.671875 -16.796875 1.671875 -18.859375 C 1.671875 -20.585938 2.171875 -22.117188 3.171875 -23.453125 C 4.171875 -24.785156 5.625 -25.820312 7.53125 -26.5625 C 9.4375 -27.3125 11.691406 -27.6875 14.296875 -27.6875 C 16.222656 -27.6875 18.140625 -27.472656 20.046875 -27.046875 C 21.960938 -26.628906 23.546875 -26.046875 24.796875 -25.296875 L 22.15625 -19.671875 C 19.757812 -21.023438 17.140625 -21.703125 14.296875 -21.703125 C 12.609375 -21.703125 11.34375 -21.460938 10.5 -20.984375 C 9.65625 -20.515625 9.234375 -19.910156 9.234375 -19.171875 C 9.234375 -18.316406 9.6875 -17.722656 10.59375 -17.390625 C 11.507812 -17.054688 12.960938 -16.734375 14.953125 -16.421875 C 17.179688 -16.054688 19.003906 -15.660156 20.421875 -15.234375 C 21.847656 -14.816406 23.082031 -14.046875 24.125 -12.921875 C 25.175781 -11.804688 25.703125 -10.253906 25.703125 -8.265625 C 25.703125 -6.578125 25.195312 -5.070312 24.1875 -3.75 C 23.175781 -2.4375 21.695312 -1.414062 19.75 -0.6875 C 17.800781 0.0390625 15.492188 0.40625 12.828125 0.40625 Z M 12.828125 0.40625 "/></g></g><g transform="translate(369.439623, 71.268021)"><g/></g><g transform="translate(383.786817, 71.268021)"><g><path d="M 11.203125 -23.671875 C 12.148438 -24.992188 13.425781 -25.992188 15.03125 -26.671875 C 16.632812 -27.347656 18.484375 -27.6875 20.578125 -27.6875 L 20.578125 -20.375 C 19.703125 -20.445312 19.113281 -20.484375 18.8125 -20.484375 C 16.539062 -20.484375 14.765625 -19.847656 13.484375 -18.578125 C 12.203125 -17.316406 11.5625 -15.414062 11.5625 -12.875 L 11.5625 0 L 3.65625 0 L 3.65625 -27.28125 L 11.203125 -27.28125 Z M 11.203125 -23.671875 "/></g></g><g transform="translate(405.637138, 71.268021)"><g><path d="M 30.375 -13.53125 C 30.375 -13.4375 30.320312 -12.726562 30.21875 -11.40625 L 9.578125 -11.40625 C 9.953125 -9.71875 10.832031 -8.382812 12.21875 -7.40625 C 13.601562 -6.425781 15.328125 -5.9375 17.390625 -5.9375 C 18.804688 -5.9375 20.0625 -6.144531 21.15625 -6.5625 C 22.257812 -6.988281 23.285156 -7.65625 24.234375 -8.5625 L 28.4375 -4 C 25.875 -1.0625 22.125 0.40625 17.1875 0.40625 C 14.113281 0.40625 11.390625 -0.191406 9.015625 -1.390625 C 6.648438 -2.585938 4.828125 -4.25 3.546875 -6.375 C 2.265625 -8.507812 1.625 -10.929688 1.625 -13.640625 C 1.625 -16.304688 2.253906 -18.710938 3.515625 -20.859375 C 4.785156 -23.003906 6.523438 -24.675781 8.734375 -25.875 C 10.953125 -27.082031 13.429688 -27.6875 16.171875 -27.6875 C 18.847656 -27.6875 21.265625 -27.109375 23.421875 -25.953125 C 25.585938 -24.804688 27.285156 -23.160156 28.515625 -21.015625 C 29.753906 -18.867188 30.375 -16.375 30.375 -13.53125 Z M 16.21875 -21.703125 C 14.425781 -21.703125 12.921875 -21.191406 11.703125 -20.171875 C 10.492188 -19.160156 9.753906 -17.773438 9.484375 -16.015625 L 22.921875 -16.015625 C 22.648438 -17.742188 21.90625 -19.125 20.6875 -20.15625 C 19.46875 -21.1875 17.976562 -21.703125 16.21875 -21.703125 Z M 16.21875 -21.703125 "/></g></g><g transform="translate(437.626818, 71.268021)"><g><path d="M 16.828125 0.40625 C 13.921875 0.40625 11.3125 -0.191406 9 -1.390625 C 6.6875 -2.585938 4.878906 -4.25 3.578125 -6.375 C 2.273438 -8.507812 1.625 -10.929688 1.625 -13.640625 C 1.625 -16.347656 2.273438 -18.765625 3.578125 -20.890625 C 4.878906 -23.015625 6.6875 -24.675781 9 -25.875 C 11.3125 -27.082031 13.921875 -27.6875 16.828125 -27.6875 C 19.703125 -27.6875 22.210938 -27.082031 24.359375 -25.875 C 26.503906 -24.675781 28.066406 -22.960938 29.046875 -20.734375 L 22.921875 -17.4375 C 21.492188 -19.9375 19.445312 -21.1875 16.78125 -21.1875 C 14.71875 -21.1875 13.007812 -20.507812 11.65625 -19.15625 C 10.3125 -17.8125 9.640625 -15.972656 9.640625 -13.640625 C 9.640625 -11.304688 10.3125 -9.460938 11.65625 -8.109375 C 13.007812 -6.753906 14.71875 -6.078125 16.78125 -6.078125 C 19.488281 -6.078125 21.535156 -7.332031 22.921875 -9.84375 L 29.046875 -6.484375 C 28.066406 -4.328125 26.503906 -2.640625 24.359375 -1.421875 C 22.210938 -0.203125 19.703125 0.40625 16.828125 0.40625 Z M 16.828125 0.40625 "/></g></g><g transform="translate(467.588626, 71.268021)"><g><path d="M 3.65625 -27.28125 L 11.5625 -27.28125 L 11.5625 0 L 3.65625 0 Z M 7.609375 -31.078125 C 6.148438 -31.078125 4.960938 -31.5 4.046875 -32.34375 C 3.140625 -33.1875 2.6875 -34.234375 2.6875 -35.484375 C 2.6875 -36.742188 3.140625 -37.796875 4.046875 -38.640625 C 4.960938 -39.484375 6.148438 -39.90625 7.609375 -39.90625 C 9.054688 -39.90625 10.234375 -39.5 11.140625 -38.6875 C 12.054688 -37.875 12.515625 -36.859375 12.515625 -35.640625 C 12.515625 -34.328125 12.054688 -33.238281 11.140625 -32.375 C 10.234375 -31.507812 9.054688 -31.078125 7.609375 -31.078125 Z M 7.609375 -31.078125 "/></g></g><g transform="translate(482.848363, 71.268021)"><g><path d="M 19.78125 -27.6875 C 22.3125 -27.6875 24.613281 -27.101562 26.6875 -25.9375 C 28.769531 -24.769531 30.398438 -23.128906 31.578125 -21.015625 C 32.765625 -18.898438 33.359375 -16.441406 33.359375 -13.640625 C 33.359375 -10.835938 32.765625 -8.378906 31.578125 -6.265625 C 30.398438 -4.148438 28.769531 -2.507812 26.6875 -1.34375 C 24.613281 -0.175781 22.3125 0.40625 19.78125 0.40625 C 16.289062 0.40625 13.550781 -0.691406 11.5625 -2.890625 L 11.5625 9.84375 L 3.65625 9.84375 L 3.65625 -27.28125 L 11.203125 -27.28125 L 11.203125 -24.140625 C 13.160156 -26.503906 16.019531 -27.6875 19.78125 -27.6875 Z M 18.40625 -6.078125 C 20.4375 -6.078125 22.097656 -6.757812 23.390625 -8.125 C 24.691406 -9.5 25.34375 -11.335938 25.34375 -13.640625 C 25.34375 -15.941406 24.691406 -17.773438 23.390625 -19.140625 C 22.097656 -20.503906 20.4375 -21.1875 18.40625 -21.1875 C 16.375 -21.1875 14.707031 -20.503906 13.40625 -19.140625 C 12.101562 -17.773438 11.453125 -15.941406 11.453125 -13.640625 C 11.453125 -11.335938 12.101562 -9.5 13.40625 -8.125 C 14.707031 -6.757812 16.375 -6.078125 18.40625 -6.078125 Z M 18.40625 -6.078125 "/></g></g><g transform="translate(517.829154, 71.268021)"><g><path d="M 30.375 -13.53125 C 30.375 -13.4375 30.320312 -12.726562 30.21875 -11.40625 L 9.578125 -11.40625 C 9.953125 -9.71875 10.832031 -8.382812 12.21875 -7.40625 C 13.601562 -6.425781 15.328125 -5.9375 17.390625 -5.9375 C 18.804688 -5.9375 20.0625 -6.144531 21.15625 -6.5625 C 22.257812 -6.988281 23.285156 -7.65625 24.234375 -8.5625 L 28.4375 -4 C 25.875 -1.0625 22.125 0.40625 17.1875 0.40625 C 14.113281 0.40625 11.390625 -0.191406 9.015625 -1.390625 C 6.648438 -2.585938 4.828125 -4.25 3.546875 -6.375 C 2.265625 -8.507812 1.625 -10.929688 1.625 -13.640625 C 1.625 -16.304688 2.253906 -18.710938 3.515625 -20.859375 C 4.785156 -23.003906 6.523438 -24.675781 8.734375 -25.875 C 10.953125 -27.082031 13.429688 -27.6875 16.171875 -27.6875 C 18.847656 -27.6875 21.265625 -27.109375 23.421875 -25.953125 C 25.585938 -24.804688 27.285156 -23.160156 28.515625 -21.015625 C 29.753906 -18.867188 30.375 -16.375 30.375 -13.53125 Z M 16.21875 -21.703125 C 14.425781 -21.703125 12.921875 -21.191406 11.703125 -20.171875 C 10.492188 -19.160156 9.753906 -17.773438 9.484375 -16.015625 L 22.921875 -16.015625 C 22.648438 -17.742188 21.90625 -19.125 20.6875 -20.15625 C 19.46875 -21.1875 17.976562 -21.703125 16.21875 -21.703125 Z M 16.21875 -21.703125 "/></g></g></g><g fill="#000000" fill-opacity="1"><g transform="translate(172.330469, 112.504757)"><g><path d="M 0.890625 -7.1875 C 0.890625 -8.582031 1.203125 -9.835938 1.828125 -10.953125 C 2.460938 -12.078125 3.320312 -12.953125 4.40625 -13.578125 C 5.5 -14.210938 6.710938 -14.53125 8.046875 -14.53125 C 9.609375 -14.53125 10.972656 -14.148438 12.140625 -13.390625 C 13.304688 -12.640625 14.15625 -11.570312 14.6875 -10.1875 L 12.453125 -10.1875 C 12.054688 -11.050781 11.484375 -11.710938 10.734375 -12.171875 C 9.984375 -12.640625 9.085938 -12.875 8.046875 -12.875 C 7.046875 -12.875 6.144531 -12.640625 5.34375 -12.171875 C 4.550781 -11.710938 3.925781 -11.050781 3.46875 -10.1875 C 3.019531 -9.332031 2.796875 -8.332031 2.796875 -7.1875 C 2.796875 -6.039062 3.019531 -5.039062 3.46875 -4.1875 C 3.925781 -3.332031 4.550781 -2.671875 5.34375 -2.203125 C 6.144531 -1.734375 7.046875 -1.5 8.046875 -1.5 C 9.085938 -1.5 9.984375 -1.726562 10.734375 -2.1875 C 11.484375 -2.644531 12.054688 -3.304688 12.453125 -4.171875 L 14.6875 -4.171875 C 14.15625 -2.804688 13.304688 -1.75 12.140625 -1 C 10.972656 -0.25 9.609375 0.125 8.046875 0.125 C 6.710938 0.125 5.5 -0.1875 4.40625 -0.8125 C 3.320312 -1.4375 2.460938 -2.300781 1.828125 -3.40625 C 1.203125 -4.519531 0.890625 -5.78125 0.890625 -7.1875 Z M 0.890625 -7.1875 "/></g></g></g><g fill="#000000" fill-opacity="1"><g transform="translate(188.217075, 112.504757)"><g><path d="M 3.453125 -9.453125 C 3.785156 -10.085938 4.253906 -10.582031 4.859375 -10.9375 C 5.472656 -11.300781 6.21875 -11.484375 7.09375 -11.484375 L 7.09375 -9.546875 L 6.609375 -9.546875 C 4.503906 -9.546875 3.453125 -8.40625 3.453125 -6.125 L 3.453125 0 L 1.578125 0 L 1.578125 -11.28125 L 3.453125 -11.28125 Z M 3.453125 -9.453125 "/></g></g></g><g fill="#000000" fill-opacity="1"><g transform="translate(195.892858, 112.504757)"><g><path d="M 11.875 -6.078125 C 11.875 -5.710938 11.851562 -5.332031 11.8125 -4.9375 L 2.796875 -4.9375 C 2.867188 -3.820312 3.25 -2.953125 3.9375 -2.328125 C 4.632812 -1.710938 5.476562 -1.40625 6.46875 -1.40625 C 7.269531 -1.40625 7.941406 -1.59375 8.484375 -1.96875 C 9.023438 -2.34375 9.40625 -2.847656 9.625 -3.484375 L 11.640625 -3.484375 C 11.335938 -2.398438 10.734375 -1.515625 9.828125 -0.828125 C 8.929688 -0.148438 7.8125 0.1875 6.46875 0.1875 C 5.394531 0.1875 4.4375 -0.0507812 3.59375 -0.53125 C 2.75 -1.007812 2.085938 -1.691406 1.609375 -2.578125 C 1.128906 -3.460938 0.890625 -4.488281 0.890625 -5.65625 C 0.890625 -6.820312 1.117188 -7.84375 1.578125 -8.71875 C 2.046875 -9.601562 2.703125 -10.28125 3.546875 -10.75 C 4.390625 -11.226562 5.363281 -11.46875 6.46875 -11.46875 C 7.53125 -11.46875 8.472656 -11.234375 9.296875 -10.765625 C 10.117188 -10.296875 10.753906 -9.648438 11.203125 -8.828125 C 11.648438 -8.015625 11.875 -7.097656 11.875 -6.078125 Z M 9.9375 -6.46875 C 9.9375 -7.175781 9.78125 -7.785156 9.46875 -8.296875 C 9.15625 -8.816406 8.722656 -9.207031 8.171875 -9.46875 C 7.628906 -9.738281 7.03125 -9.875 6.375 -9.875 C 5.425781 -9.875 4.617188 -9.570312 3.953125 -8.96875 C 3.296875 -8.363281 2.914062 -7.53125 2.8125 -6.46875 Z M 9.9375 -6.46875 "/></g></g></g><g fill="#000000" fill-opacity="1"><g transform="translate(208.65153, 112.504757)"><g><path d="M 0.890625 -5.671875 C 0.890625 -6.828125 1.117188 -7.835938 1.578125 -8.703125 C 2.046875 -9.578125 2.6875 -10.253906 3.5 -10.734375 C 4.320312 -11.222656 5.234375 -11.46875 6.234375 -11.46875 C 7.222656 -11.46875 8.078125 -11.253906 8.796875 -10.828125 C 9.523438 -10.398438 10.070312 -9.863281 10.4375 -9.21875 L 10.4375 -11.28125 L 12.328125 -11.28125 L 12.328125 0 L 10.4375 0 L 10.4375 -2.09375 C 10.0625 -1.4375 9.503906 -0.890625 8.765625 -0.453125 C 8.035156 -0.0234375 7.1875 0.1875 6.21875 0.1875 C 5.21875 0.1875 4.3125 -0.0546875 3.5 -0.546875 C 2.6875 -1.046875 2.046875 -1.738281 1.578125 -2.625 C 1.117188 -3.519531 0.890625 -4.535156 0.890625 -5.671875 Z M 10.4375 -5.65625 C 10.4375 -6.507812 10.265625 -7.25 9.921875 -7.875 C 9.578125 -8.507812 9.113281 -8.992188 8.53125 -9.328125 C 7.945312 -9.671875 7.304688 -9.84375 6.609375 -9.84375 C 5.910156 -9.84375 5.269531 -9.675781 4.6875 -9.34375 C 4.113281 -9.007812 3.65625 -8.523438 3.3125 -7.890625 C 2.96875 -7.265625 2.796875 -6.523438 2.796875 -5.671875 C 2.796875 -4.816406 2.96875 -4.066406 3.3125 -3.421875 C 3.65625 -2.785156 4.113281 -2.300781 4.6875 -1.96875 C 5.269531 -1.632812 5.910156 -1.46875 6.609375 -1.46875 C 7.304688 -1.46875 7.945312 -1.632812 8.53125 -1.96875 C 9.113281 -2.300781 9.578125 -2.785156 9.921875 -3.421875 C 10.265625 -4.066406 10.4375 -4.8125 10.4375 -5.65625 Z M 10.4375 -5.65625 "/></g></g></g><g fill="#000000" fill-opacity="1"><g transform="translate(222.5626, 112.504757)"><g><path d="M 3.875 -9.734375 L 3.875 -3.09375 C 3.875 -2.539062 3.988281 -2.148438 4.21875 -1.921875 C 4.445312 -1.691406 4.851562 -1.578125 5.4375 -1.578125 L 6.8125 -1.578125 L 6.8125 0 L 5.125 0 C 4.082031 0 3.300781 -0.238281 2.78125 -0.71875 C 2.257812 -1.195312 2 -1.988281 2 -3.09375 L 2 -9.734375 L 0.53125 -9.734375 L 0.53125 -11.28125 L 2 -11.28125 L 2 -14.109375 L 3.875 -14.109375 L 3.875 -11.28125 L 6.8125 -11.28125 L 6.8125 -9.734375 Z M 3.875 -9.734375 "/></g></g></g><g fill="#000000" fill-opacity="1"><g transform="translate(230.053176, 112.504757)"><g><path d="M 11.875 -6.078125 C 11.875 -5.710938 11.851562 -5.332031 11.8125 -4.9375 L 2.796875 -4.9375 C 2.867188 -3.820312 3.25 -2.953125 3.9375 -2.328125 C 4.632812 -1.710938 5.476562 -1.40625 6.46875 -1.40625 C 7.269531 -1.40625 7.941406 -1.59375 8.484375 -1.96875 C 9.023438 -2.34375 9.40625 -2.847656 9.625 -3.484375 L 11.640625 -3.484375 C 11.335938 -2.398438 10.734375 -1.515625 9.828125 -0.828125 C 8.929688 -0.148438 7.8125 0.1875 6.46875 0.1875 C 5.394531 0.1875 4.4375 -0.0507812 3.59375 -0.53125 C 2.75 -1.007812 2.085938 -1.691406 1.609375 -2.578125 C 1.128906 -3.460938 0.890625 -4.488281 0.890625 -5.65625 C 0.890625 -6.820312 1.117188 -7.84375 1.578125 -8.71875 C 2.046875 -9.601562 2.703125 -10.28125 3.546875 -10.75 C 4.390625 -11.226562 5.363281 -11.46875 6.46875 -11.46875 C 7.53125 -11.46875 8.472656 -11.234375 9.296875 -10.765625 C 10.117188 -10.296875 10.753906 -9.648438 11.203125 -8.828125 C 11.648438 -8.015625 11.875 -7.097656 11.875 -6.078125 Z M 9.9375 -6.46875 C 9.9375 -7.175781 9.78125 -7.785156 9.46875 -8.296875 C 9.15625 -8.816406 8.722656 -9.207031 8.171875 -9.46875 C 7.628906 -9.738281 7.03125 -9.875 6.375 -9.875 C 5.425781 -9.875 4.617188 -9.570312 3.953125 -8.96875 C 3.296875 -8.363281 2.914062 -7.53125 2.8125 -6.46875 Z M 9.9375 -6.46875 "/></g></g></g><g fill="#000000" fill-opacity="1"><g transform="translate(242.811848, 112.504757)"><g><path d="M 0.890625 -5.671875 C 0.890625 -6.828125 1.117188 -7.835938 1.578125 -8.703125 C 2.046875 -9.578125 2.6875 -10.253906 3.5 -10.734375 C 4.320312 -11.222656 5.238281 -11.46875 6.25 -11.46875 C 7.132812 -11.46875 7.953125 -11.265625 8.703125 -10.859375 C 9.460938 -10.453125 10.039062 -9.921875 10.4375 -9.265625 L 10.4375 -15.234375 L 12.328125 -15.234375 L 12.328125 0 L 10.4375 0 L 10.4375 -2.125 C 10.0625 -1.445312 9.507812 -0.890625 8.78125 -0.453125 C 8.0625 -0.0234375 7.210938 0.1875 6.234375 0.1875 C 5.234375 0.1875 4.320312 -0.0546875 3.5 -0.546875 C 2.6875 -1.046875 2.046875 -1.738281 1.578125 -2.625 C 1.117188 -3.519531 0.890625 -4.535156 0.890625 -5.671875 Z M 10.4375 -5.65625 C 10.4375 -6.507812 10.265625 -7.25 9.921875 -7.875 C 9.578125 -8.507812 9.113281 -8.992188 8.53125 -9.328125 C 7.945312 -9.671875 7.304688 -9.84375 6.609375 -9.84375 C 5.910156 -9.84375 5.269531 -9.675781 4.6875 -9.34375 C 4.113281 -9.007812 3.65625 -8.523438 3.3125 -7.890625 C 2.96875 -7.265625 2.796875 -6.523438 2.796875 -5.671875 C 2.796875 -4.816406 2.96875 -4.066406 3.3125 -3.421875 C 3.65625 -2.785156 4.113281 -2.300781 4.6875 -1.96875 C 5.269531 -1.632812 5.910156 -1.46875 6.609375 -1.46875 C 7.304688 -1.46875 7.945312 -1.632812 8.53125 -1.96875 C 9.113281 -2.300781 9.578125 -2.785156 9.921875 -3.421875 C 10.265625 -4.066406 10.4375 -4.8125 10.4375 -5.65625 Z M 10.4375 -5.65625 "/></g></g></g><g fill="#000000" fill-opacity="1"><g transform="translate(256.722918, 112.504757)"><g/></g></g><g fill="#000000" fill-opacity="1"><g transform="translate(262.217375, 112.504757)"><g><path d="M 6.171875 -9.734375 L 3.8125 -9.734375 L 3.8125 0 L 1.9375 0 L 1.9375 -9.734375 L 0.46875 -9.734375 L 0.46875 -11.28125 L 1.9375 -11.28125 L 1.9375 -12.078125 C 1.9375 -13.335938 2.257812 -14.257812 2.90625 -14.84375 C 3.5625 -15.425781 4.609375 -15.71875 6.046875 -15.71875 L 6.046875 -14.15625 C 5.222656 -14.15625 4.644531 -13.992188 4.3125 -13.671875 C 3.976562 -13.347656 3.8125 -12.816406 3.8125 -12.078125 L 3.8125 -11.28125 L 6.171875 -11.28125 Z M 6.171875 -9.734375 "/></g></g></g><g fill="#000000" fill-opacity="1"><g transform="translate(268.987703, 112.504757)"><g><path d="M 6.5 0.1875 C 5.445312 0.1875 4.488281 -0.0507812 3.625 -0.53125 C 2.769531 -1.007812 2.097656 -1.691406 1.609375 -2.578125 C 1.128906 -3.460938 0.890625 -4.488281 0.890625 -5.65625 C 0.890625 -6.8125 1.140625 -7.832031 1.640625 -8.71875 C 2.140625 -9.601562 2.820312 -10.28125 3.6875 -10.75 C 4.550781 -11.226562 5.515625 -11.46875 6.578125 -11.46875 C 7.648438 -11.46875 8.617188 -11.226562 9.484375 -10.75 C 10.347656 -10.28125 11.03125 -9.601562 11.53125 -8.71875 C 12.03125 -7.84375 12.28125 -6.820312 12.28125 -5.65625 C 12.28125 -4.488281 12.019531 -3.460938 11.5 -2.578125 C 10.988281 -1.691406 10.296875 -1.007812 9.421875 -0.53125 C 8.546875 -0.0507812 7.570312 0.1875 6.5 0.1875 Z M 6.5 -1.46875 C 7.175781 -1.46875 7.804688 -1.625 8.390625 -1.9375 C 8.984375 -2.25 9.460938 -2.71875 9.828125 -3.34375 C 10.191406 -3.976562 10.375 -4.75 10.375 -5.65625 C 10.375 -6.5625 10.191406 -7.328125 9.828125 -7.953125 C 9.472656 -8.585938 9.007812 -9.0625 8.4375 -9.375 C 7.863281 -9.6875 7.238281 -9.84375 6.5625 -9.84375 C 5.875 -9.84375 5.242188 -9.6875 4.671875 -9.375 C 4.109375 -9.0625 3.65625 -8.585938 3.3125 -7.953125 C 2.96875 -7.328125 2.796875 -6.5625 2.796875 -5.65625 C 2.796875 -4.738281 2.960938 -3.960938 3.296875 -3.328125 C 3.640625 -2.703125 4.09375 -2.234375 4.65625 -1.921875 C 5.21875 -1.617188 5.832031 -1.46875 6.5 -1.46875 Z M 6.5 -1.46875 "/></g></g></g><g fill="#000000" fill-opacity="1"><g transform="translate(282.157943, 112.504757)"><g><path d="M 3.453125 -9.453125 C 3.785156 -10.085938 4.253906 -10.582031 4.859375 -10.9375 C 5.472656 -11.300781 6.21875 -11.484375 7.09375 -11.484375 L 7.09375 -9.546875 L 6.609375 -9.546875 C 4.503906 -9.546875 3.453125 -8.40625 3.453125 -6.125 L 3.453125 0 L 1.578125 0 L 1.578125 -11.28125 L 3.453125 -11.28125 Z M 3.453125 -9.453125 "/></g></g></g><g fill="#000000" fill-opacity="1"><g transform="translate(289.833726, 112.504757)"><g/></g></g><g fill="#000000" fill-opacity="1"><g transform="translate(295.328183, 112.504757)"><g><path d="M 6.046875 -14.34375 C 7.609375 -14.34375 8.960938 -14.050781 10.109375 -13.46875 C 11.253906 -12.882812 12.128906 -12.050781 12.734375 -10.96875 C 13.347656 -9.882812 13.65625 -8.609375 13.65625 -7.140625 C 13.65625 -5.671875 13.347656 -4.394531 12.734375 -3.3125 C 12.128906 -2.238281 11.253906 -1.414062 10.109375 -0.84375 C 8.960938 -0.28125 7.609375 0 6.046875 0 L 1.578125 0 L 1.578125 -14.34375 Z M 6.046875 -1.546875 C 7.898438 -1.546875 9.3125 -2.035156 10.28125 -3.015625 C 11.257812 -3.992188 11.75 -5.367188 11.75 -7.140625 C 11.75 -8.921875 11.257812 -10.3125 10.28125 -11.3125 C 9.300781 -12.3125 7.890625 -12.8125 6.046875 -12.8125 L 3.453125 -12.8125 L 3.453125 -1.546875 Z M 6.046875 -1.546875 "/></g></g></g><g fill="#000000" fill-opacity="1"><g transform="translate(309.877183, 112.504757)"><g><path d="M 8.765625 -7.390625 C 9.285156 -7.304688 9.757812 -7.09375 10.1875 -6.75 C 10.625 -6.40625 10.96875 -5.976562 11.21875 -5.46875 C 11.476562 -4.96875 11.609375 -4.425781 11.609375 -3.84375 C 11.609375 -3.113281 11.421875 -2.457031 11.046875 -1.875 C 10.679688 -1.300781 10.144531 -0.84375 9.4375 -0.5 C 8.726562 -0.164062 7.894531 0 6.9375 0 L 1.578125 0 L 1.578125 -14.34375 L 6.734375 -14.34375 C 7.703125 -14.34375 8.53125 -14.179688 9.21875 -13.859375 C 9.90625 -13.535156 10.421875 -13.097656 10.765625 -12.546875 C 11.109375 -12.003906 11.28125 -11.390625 11.28125 -10.703125 C 11.28125 -9.847656 11.046875 -9.144531 10.578125 -8.59375 C 10.117188 -8.039062 9.515625 -7.640625 8.765625 -7.390625 Z M 3.453125 -8.15625 L 6.609375 -8.15625 C 7.484375 -8.15625 8.160156 -8.359375 8.640625 -8.765625 C 9.117188 -9.179688 9.359375 -9.75 9.359375 -10.46875 C 9.359375 -11.195312 9.117188 -11.765625 8.640625 -12.171875 C 8.160156 -12.585938 7.46875 -12.796875 6.5625 -12.796875 L 3.453125 -12.796875 Z M 6.765625 -1.546875 C 7.703125 -1.546875 8.429688 -1.765625 8.953125 -2.203125 C 9.472656 -2.640625 9.734375 -3.25 9.734375 -4.03125 C 9.734375 -4.832031 9.457031 -5.460938 8.90625 -5.921875 C 8.363281 -6.378906 7.628906 -6.609375 6.703125 -6.609375 L 3.453125 -6.609375 L 3.453125 -1.546875 Z M 6.765625 -1.546875 "/></g></g></g><g fill="#000000" fill-opacity="1"><g transform="translate(322.4918, 112.504757)"><g><path d="M 16.140625 -14.234375 L 16.140625 0 L 14.265625 0 L 14.265625 -10.625 L 9.53125 0 L 8.203125 0 L 3.453125 -10.640625 L 3.453125 0 L 1.578125 0 L 1.578125 -14.234375 L 3.59375 -14.234375 L 8.875 -2.46875 L 14.140625 -14.234375 Z M 16.140625 -14.234375 "/></g></g></g><g fill="#000000" fill-opacity="1"><g transform="translate(340.209889, 112.504757)"><g><path d="M 6.125 0.140625 C 5.1875 0.140625 4.34375 -0.0234375 3.59375 -0.359375 C 2.84375 -0.691406 2.253906 -1.15625 1.828125 -1.75 C 1.398438 -2.351562 1.179688 -3.046875 1.171875 -3.828125 L 3.171875 -3.828125 C 3.234375 -3.148438 3.507812 -2.582031 4 -2.125 C 4.488281 -1.664062 5.195312 -1.4375 6.125 -1.4375 C 7.019531 -1.4375 7.722656 -1.660156 8.234375 -2.109375 C 8.753906 -2.554688 9.015625 -3.128906 9.015625 -3.828125 C 9.015625 -4.378906 8.863281 -4.820312 8.5625 -5.15625 C 8.257812 -5.5 7.878906 -5.757812 7.421875 -5.9375 C 6.972656 -6.125 6.363281 -6.316406 5.59375 -6.515625 C 4.644531 -6.765625 3.882812 -7.015625 3.3125 -7.265625 C 2.75 -7.515625 2.265625 -7.898438 1.859375 -8.421875 C 1.453125 -8.953125 1.25 -9.664062 1.25 -10.5625 C 1.25 -11.34375 1.445312 -12.035156 1.84375 -12.640625 C 2.25 -13.242188 2.8125 -13.707031 3.53125 -14.03125 C 4.25 -14.363281 5.078125 -14.53125 6.015625 -14.53125 C 7.359375 -14.53125 8.457031 -14.191406 9.3125 -13.515625 C 10.164062 -12.847656 10.648438 -11.957031 10.765625 -10.84375 L 8.703125 -10.84375 C 8.640625 -11.394531 8.351562 -11.878906 7.84375 -12.296875 C 7.332031 -12.710938 6.660156 -12.921875 5.828125 -12.921875 C 5.046875 -12.921875 4.40625 -12.71875 3.90625 -12.3125 C 3.414062 -11.90625 3.171875 -11.34375 3.171875 -10.625 C 3.171875 -10.101562 3.316406 -9.675781 3.609375 -9.34375 C 3.898438 -9.007812 4.257812 -8.753906 4.6875 -8.578125 C 5.125 -8.410156 5.734375 -8.21875 6.515625 -8 C 7.460938 -7.738281 8.222656 -7.484375 8.796875 -7.234375 C 9.378906 -6.984375 9.875 -6.59375 10.28125 -6.0625 C 10.695312 -5.53125 10.90625 -4.8125 10.90625 -3.90625 C 10.90625 -3.207031 10.71875 -2.550781 10.34375 -1.9375 C 9.976562 -1.320312 9.429688 -0.820312 8.703125 -0.4375 C 7.972656 -0.0507812 7.113281 0.140625 6.125 0.140625 Z M 6.125 0.140625 "/></g></g></g><g fill="#000000" fill-opacity="1"><g transform="translate(352.289466, 112.504757)"><g/></g></g><g fill="#000000" fill-opacity="1"><g transform="translate(357.783923, 112.504757)"><g><path d="M 0.890625 -5.671875 C 0.890625 -6.828125 1.117188 -7.835938 1.578125 -8.703125 C 2.046875 -9.578125 2.6875 -10.253906 3.5 -10.734375 C 4.320312 -11.222656 5.234375 -11.46875 6.234375 -11.46875 C 7.222656 -11.46875 8.078125 -11.253906 8.796875 -10.828125 C 9.523438 -10.398438 10.070312 -9.863281 10.4375 -9.21875 L 10.4375 -11.28125 L 12.328125 -11.28125 L 12.328125 0 L 10.4375 0 L 10.4375 -2.09375 C 10.0625 -1.4375 9.503906 -0.890625 8.765625 -0.453125 C 8.035156 -0.0234375 7.1875 0.1875 6.21875 0.1875 C 5.21875 0.1875 4.3125 -0.0546875 3.5 -0.546875 C 2.6875 -1.046875 2.046875 -1.738281 1.578125 -2.625 C 1.117188 -3.519531 0.890625 -4.535156 0.890625 -5.671875 Z M 10.4375 -5.65625 C 10.4375 -6.507812 10.265625 -7.25 9.921875 -7.875 C 9.578125 -8.507812 9.113281 -8.992188 8.53125 -9.328125 C 7.945312 -9.671875 7.304688 -9.84375 6.609375 -9.84375 C 5.910156 -9.84375 5.269531 -9.675781 4.6875 -9.34375 C 4.113281 -9.007812 3.65625 -8.523438 3.3125 -7.890625 C 2.96875 -7.265625 2.796875 -6.523438 2.796875 -5.671875 C 2.796875 -4.816406 2.96875 -4.066406 3.3125 -3.421875 C 3.65625 -2.785156 4.113281 -2.300781 4.6875 -1.96875 C 5.269531 -1.632812 5.910156 -1.46875 6.609375 -1.46875 C 7.304688 -1.46875 7.945312 -1.632812 8.53125 -1.96875 C 9.113281 -2.300781 9.578125 -2.785156 9.921875 -3.421875 C 10.265625 -4.066406 10.4375 -4.8125 10.4375 -5.65625 Z M 10.4375 -5.65625 "/></g></g></g><g fill="#000000" fill-opacity="1"><g transform="translate(371.695005, 112.504757)"><g><path d="M 5.578125 0.1875 C 4.710938 0.1875 3.9375 0.0390625 3.25 -0.25 C 2.5625 -0.550781 2.019531 -0.960938 1.625 -1.484375 C 1.226562 -2.015625 1.007812 -2.625 0.96875 -3.3125 L 2.90625 -3.3125 C 2.957031 -2.75 3.21875 -2.289062 3.6875 -1.9375 C 4.164062 -1.582031 4.789062 -1.40625 5.5625 -1.40625 C 6.269531 -1.40625 6.828125 -1.5625 7.234375 -1.875 C 7.648438 -2.1875 7.859375 -2.582031 7.859375 -3.0625 C 7.859375 -3.5625 7.640625 -3.929688 7.203125 -4.171875 C 6.765625 -4.410156 6.085938 -4.644531 5.171875 -4.875 C 4.328125 -5.09375 3.640625 -5.316406 3.109375 -5.546875 C 2.585938 -5.773438 2.132812 -6.109375 1.75 -6.546875 C 1.375 -6.992188 1.1875 -7.582031 1.1875 -8.3125 C 1.1875 -8.882812 1.359375 -9.410156 1.703125 -9.890625 C 2.046875 -10.378906 2.53125 -10.765625 3.15625 -11.046875 C 3.789062 -11.328125 4.515625 -11.46875 5.328125 -11.46875 C 6.578125 -11.46875 7.582031 -11.148438 8.34375 -10.515625 C 9.113281 -9.878906 9.53125 -9.015625 9.59375 -7.921875 L 7.71875 -7.921875 C 7.675781 -8.515625 7.4375 -8.988281 7 -9.34375 C 6.570312 -9.695312 5.992188 -9.875 5.265625 -9.875 C 4.597656 -9.875 4.0625 -9.726562 3.65625 -9.4375 C 3.257812 -9.15625 3.0625 -8.78125 3.0625 -8.3125 C 3.0625 -7.945312 3.179688 -7.640625 3.421875 -7.390625 C 3.660156 -7.148438 3.960938 -6.957031 4.328125 -6.8125 C 4.691406 -6.675781 5.195312 -6.519531 5.84375 -6.34375 C 6.65625 -6.125 7.3125 -5.90625 7.8125 -5.6875 C 8.320312 -5.476562 8.757812 -5.160156 9.125 -4.734375 C 9.488281 -4.304688 9.675781 -3.75 9.6875 -3.0625 C 9.6875 -2.445312 9.515625 -1.890625 9.171875 -1.390625 C 8.828125 -0.898438 8.34375 -0.515625 7.71875 -0.234375 C 7.101562 0.046875 6.390625 0.1875 5.578125 0.1875 Z M 5.578125 0.1875 "/></g></g></g><g fill="#000000" fill-opacity="1"><g transform="translate(382.436975, 112.504757)"><g><path d="M 5.578125 0.1875 C 4.710938 0.1875 3.9375 0.0390625 3.25 -0.25 C 2.5625 -0.550781 2.019531 -0.960938 1.625 -1.484375 C 1.226562 -2.015625 1.007812 -2.625 0.96875 -3.3125 L 2.90625 -3.3125 C 2.957031 -2.75 3.21875 -2.289062 3.6875 -1.9375 C 4.164062 -1.582031 4.789062 -1.40625 5.5625 -1.40625 C 6.269531 -1.40625 6.828125 -1.5625 7.234375 -1.875 C 7.648438 -2.1875 7.859375 -2.582031 7.859375 -3.0625 C 7.859375 -3.5625 7.640625 -3.929688 7.203125 -4.171875 C 6.765625 -4.410156 6.085938 -4.644531 5.171875 -4.875 C 4.328125 -5.09375 3.640625 -5.316406 3.109375 -5.546875 C 2.585938 -5.773438 2.132812 -6.109375 1.75 -6.546875 C 1.375 -6.992188 1.1875 -7.582031 1.1875 -8.3125 C 1.1875 -8.882812 1.359375 -9.410156 1.703125 -9.890625 C 2.046875 -10.378906 2.53125 -10.765625 3.15625 -11.046875 C 3.789062 -11.328125 4.515625 -11.46875 5.328125 -11.46875 C 6.578125 -11.46875 7.582031 -11.148438 8.34375 -10.515625 C 9.113281 -9.878906 9.53125 -9.015625 9.59375 -7.921875 L 7.71875 -7.921875 C 7.675781 -8.515625 7.4375 -8.988281 7 -9.34375 C 6.570312 -9.695312 5.992188 -9.875 5.265625 -9.875 C 4.597656 -9.875 4.0625 -9.726562 3.65625 -9.4375 C 3.257812 -9.15625 3.0625 -8.78125 3.0625 -8.3125 C 3.0625 -7.945312 3.179688 -7.640625 3.421875 -7.390625 C 3.660156 -7.148438 3.960938 -6.957031 4.328125 -6.8125 C 4.691406 -6.675781 5.195312 -6.519531 5.84375 -6.34375 C 6.65625 -6.125 7.3125 -5.90625 7.8125 -5.6875 C 8.320312 -5.476562 8.757812 -5.160156 9.125 -4.734375 C 9.488281 -4.304688 9.675781 -3.75 9.6875 -3.0625 C 9.6875 -2.445312 9.515625 -1.890625 9.171875 -1.390625 C 8.828125 -0.898438 8.34375 -0.515625 7.71875 -0.234375 C 7.101562 0.046875 6.390625 0.1875 5.578125 0.1875 Z M 5.578125 0.1875 "/></g></g></g><g fill="#000000" fill-opacity="1"><g transform="translate(393.178946, 112.504757)"><g><path d="M 11.875 -6.078125 C 11.875 -5.710938 11.851562 -5.332031 11.8125 -4.9375 L 2.796875 -4.9375 C 2.867188 -3.820312 3.25 -2.953125 3.9375 -2.328125 C 4.632812 -1.710938 5.476562 -1.40625 6.46875 -1.40625 C 7.269531 -1.40625 7.941406 -1.59375 8.484375 -1.96875 C 9.023438 -2.34375 9.40625 -2.847656 9.625 -3.484375 L 11.640625 -3.484375 C 11.335938 -2.398438 10.734375 -1.515625 9.828125 -0.828125 C 8.929688 -0.148438 7.8125 0.1875 6.46875 0.1875 C 5.394531 0.1875 4.4375 -0.0507812 3.59375 -0.53125 C 2.75 -1.007812 2.085938 -1.691406 1.609375 -2.578125 C 1.128906 -3.460938 0.890625 -4.488281 0.890625 -5.65625 C 0.890625 -6.820312 1.117188 -7.84375 1.578125 -8.71875 C 2.046875 -9.601562 2.703125 -10.28125 3.546875 -10.75 C 4.390625 -11.226562 5.363281 -11.46875 6.46875 -11.46875 C 7.53125 -11.46875 8.472656 -11.234375 9.296875 -10.765625 C 10.117188 -10.296875 10.753906 -9.648438 11.203125 -8.828125 C 11.648438 -8.015625 11.875 -7.097656 11.875 -6.078125 Z M 9.9375 -6.46875 C 9.9375 -7.175781 9.78125 -7.785156 9.46875 -8.296875 C 9.15625 -8.816406 8.722656 -9.207031 8.171875 -9.46875 C 7.628906 -9.738281 7.03125 -9.875 6.375 -9.875 C 5.425781 -9.875 4.617188 -9.570312 3.953125 -8.96875 C 3.296875 -8.363281 2.914062 -7.53125 2.8125 -6.46875 Z M 9.9375 -6.46875 "/></g></g></g><g fill="#000000" fill-opacity="1"><g transform="translate(405.937629, 112.504757)"><g><path d="M 5.578125 0.1875 C 4.710938 0.1875 3.9375 0.0390625 3.25 -0.25 C 2.5625 -0.550781 2.019531 -0.960938 1.625 -1.484375 C 1.226562 -2.015625 1.007812 -2.625 0.96875 -3.3125 L 2.90625 -3.3125 C 2.957031 -2.75 3.21875 -2.289062 3.6875 -1.9375 C 4.164062 -1.582031 4.789062 -1.40625 5.5625 -1.40625 C 6.269531 -1.40625 6.828125 -1.5625 7.234375 -1.875 C 7.648438 -2.1875 7.859375 -2.582031 7.859375 -3.0625 C 7.859375 -3.5625 7.640625 -3.929688 7.203125 -4.171875 C 6.765625 -4.410156 6.085938 -4.644531 5.171875 -4.875 C 4.328125 -5.09375 3.640625 -5.316406 3.109375 -5.546875 C 2.585938 -5.773438 2.132812 -6.109375 1.75 -6.546875 C 1.375 -6.992188 1.1875 -7.582031 1.1875 -8.3125 C 1.1875 -8.882812 1.359375 -9.410156 1.703125 -9.890625 C 2.046875 -10.378906 2.53125 -10.765625 3.15625 -11.046875 C 3.789062 -11.328125 4.515625 -11.46875 5.328125 -11.46875 C 6.578125 -11.46875 7.582031 -11.148438 8.34375 -10.515625 C 9.113281 -9.878906 9.53125 -9.015625 9.59375 -7.921875 L 7.71875 -7.921875 C 7.675781 -8.515625 7.4375 -8.988281 7 -9.34375 C 6.570312 -9.695312 5.992188 -9.875 5.265625 -9.875 C 4.597656 -9.875 4.0625 -9.726562 3.65625 -9.4375 C 3.257812 -9.15625 3.0625 -8.78125 3.0625 -8.3125 C 3.0625 -7.945312 3.179688 -7.640625 3.421875 -7.390625 C 3.660156 -7.148438 3.960938 -6.957031 4.328125 -6.8125 C 4.691406 -6.675781 5.195312 -6.519531 5.84375 -6.34375 C 6.65625 -6.125 7.3125 -5.90625 7.8125 -5.6875 C 8.320312 -5.476562 8.757812 -5.160156 9.125 -4.734375 C 9.488281 -4.304688 9.675781 -3.75 9.6875 -3.0625 C 9.6875 -2.445312 9.515625 -1.890625 9.171875 -1.390625 C 8.828125 -0.898438 8.34375 -0.515625 7.71875 -0.234375 C 7.101562 0.046875 6.390625 0.1875 5.578125 0.1875 Z M 5.578125 0.1875 "/></g></g></g><g fill="#000000" fill-opacity="1"><g transform="translate(416.6796, 112.504757)"><g><path d="M 5.578125 0.1875 C 4.710938 0.1875 3.9375 0.0390625 3.25 -0.25 C 2.5625 -0.550781 2.019531 -0.960938 1.625 -1.484375 C 1.226562 -2.015625 1.007812 -2.625 0.96875 -3.3125 L 2.90625 -3.3125 C 2.957031 -2.75 3.21875 -2.289062 3.6875 -1.9375 C 4.164062 -1.582031 4.789062 -1.40625 5.5625 -1.40625 C 6.269531 -1.40625 6.828125 -1.5625 7.234375 -1.875 C 7.648438 -2.1875 7.859375 -2.582031 7.859375 -3.0625 C 7.859375 -3.5625 7.640625 -3.929688 7.203125 -4.171875 C 6.765625 -4.410156 6.085938 -4.644531 5.171875 -4.875 C 4.328125 -5.09375 3.640625 -5.316406 3.109375 -5.546875 C 2.585938 -5.773438 2.132812 -6.109375 1.75 -6.546875 C 1.375 -6.992188 1.1875 -7.582031 1.1875 -8.3125 C 1.1875 -8.882812 1.359375 -9.410156 1.703125 -9.890625 C 2.046875 -10.378906 2.53125 -10.765625 3.15625 -11.046875 C 3.789062 -11.328125 4.515625 -11.46875 5.328125 -11.46875 C 6.578125 -11.46875 7.582031 -11.148438 8.34375 -10.515625 C 9.113281 -9.878906 9.53125 -9.015625 9.59375 -7.921875 L 7.71875 -7.921875 C 7.675781 -8.515625 7.4375 -8.988281 7 -9.34375 C 6.570312 -9.695312 5.992188 -9.875 5.265625 -9.875 C 4.597656 -9.875 4.0625 -9.726562 3.65625 -9.4375 C 3.257812 -9.15625 3.0625 -8.78125 3.0625 -8.3125 C 3.0625 -7.945312 3.179688 -7.640625 3.421875 -7.390625 C 3.660156 -7.148438 3.960938 -6.957031 4.328125 -6.8125 C 4.691406 -6.675781 5.195312 -6.519531 5.84375 -6.34375 C 6.65625 -6.125 7.3125 -5.90625 7.8125 -5.6875 C 8.320312 -5.476562 8.757812 -5.160156 9.125 -4.734375 C 9.488281 -4.304688 9.675781 -3.75 9.6875 -3.0625 C 9.6875 -2.445312 9.515625 -1.890625 9.171875 -1.390625 C 8.828125 -0.898438 8.34375 -0.515625 7.71875 -0.234375 C 7.101562 0.046875 6.390625 0.1875 5.578125 0.1875 Z M 5.578125 0.1875 "/></g></g></g><g fill="#000000" fill-opacity="1"><g transform="translate(427.42157, 112.504757)"><g><path d="M 15.140625 -11.484375 C 16.023438 -11.484375 16.804688 -11.300781 17.484375 -10.9375 C 18.171875 -10.570312 18.710938 -10.023438 19.109375 -9.296875 C 19.515625 -8.566406 19.71875 -7.679688 19.71875 -6.640625 L 19.71875 0 L 17.859375 0 L 17.859375 -6.375 C 17.859375 -7.5 17.578125 -8.359375 17.015625 -8.953125 C 16.460938 -9.554688 15.71875 -9.859375 14.78125 -9.859375 C 13.800781 -9.859375 13.019531 -9.546875 12.4375 -8.921875 C 11.863281 -8.296875 11.578125 -7.394531 11.578125 -6.21875 L 11.578125 0 L 9.734375 0 L 9.734375 -6.375 C 9.734375 -7.5 9.453125 -8.359375 8.890625 -8.953125 C 8.335938 -9.554688 7.585938 -9.859375 6.640625 -9.859375 C 5.671875 -9.859375 4.894531 -9.546875 4.3125 -8.921875 C 3.738281 -8.296875 3.453125 -7.394531 3.453125 -6.21875 L 3.453125 0 L 1.578125 0 L 1.578125 -11.28125 L 3.453125 -11.28125 L 3.453125 -9.65625 C 3.828125 -10.238281 4.328125 -10.6875 4.953125 -11 C 5.578125 -11.320312 6.265625 -11.484375 7.015625 -11.484375 C 7.960938 -11.484375 8.800781 -11.269531 9.53125 -10.84375 C 10.257812 -10.414062 10.800781 -9.789062 11.15625 -8.96875 C 11.46875 -9.769531 11.988281 -10.390625 12.71875 -10.828125 C 13.445312 -11.265625 14.253906 -11.484375 15.140625 -11.484375 Z M 15.140625 -11.484375 "/></g></g></g><g fill="#000000" fill-opacity="1"><g transform="translate(448.617426, 112.504757)"><g><path d="M 11.875 -6.078125 C 11.875 -5.710938 11.851562 -5.332031 11.8125 -4.9375 L 2.796875 -4.9375 C 2.867188 -3.820312 3.25 -2.953125 3.9375 -2.328125 C 4.632812 -1.710938 5.476562 -1.40625 6.46875 -1.40625 C 7.269531 -1.40625 7.941406 -1.59375 8.484375 -1.96875 C 9.023438 -2.34375 9.40625 -2.847656 9.625 -3.484375 L 11.640625 -3.484375 C 11.335938 -2.398438 10.734375 -1.515625 9.828125 -0.828125 C 8.929688 -0.148438 7.8125 0.1875 6.46875 0.1875 C 5.394531 0.1875 4.4375 -0.0507812 3.59375 -0.53125 C 2.75 -1.007812 2.085938 -1.691406 1.609375 -2.578125 C 1.128906 -3.460938 0.890625 -4.488281 0.890625 -5.65625 C 0.890625 -6.820312 1.117188 -7.84375 1.578125 -8.71875 C 2.046875 -9.601562 2.703125 -10.28125 3.546875 -10.75 C 4.390625 -11.226562 5.363281 -11.46875 6.46875 -11.46875 C 7.53125 -11.46875 8.472656 -11.234375 9.296875 -10.765625 C 10.117188 -10.296875 10.753906 -9.648438 11.203125 -8.828125 C 11.648438 -8.015625 11.875 -7.097656 11.875 -6.078125 Z M 9.9375 -6.46875 C 9.9375 -7.175781 9.78125 -7.785156 9.46875 -8.296875 C 9.15625 -8.816406 8.722656 -9.207031 8.171875 -9.46875 C 7.628906 -9.738281 7.03125 -9.875 6.375 -9.875 C 5.425781 -9.875 4.617188 -9.570312 3.953125 -8.96875 C 3.296875 -8.363281 2.914062 -7.53125 2.8125 -6.46875 Z M 9.9375 -6.46875 "/></g></g></g><g fill="#000000" fill-opacity="1"><g transform="translate(461.376086, 112.504757)"><g><path d="M 7.078125 -11.484375 C 8.453125 -11.484375 9.5625 -11.066406 10.40625 -10.234375 C 11.257812 -9.410156 11.6875 -8.210938 11.6875 -6.640625 L 11.6875 0 L 9.84375 0 L 9.84375 -6.375 C 9.84375 -7.5 9.5625 -8.359375 9 -8.953125 C 8.4375 -9.554688 7.664062 -9.859375 6.6875 -9.859375 C 5.695312 -9.859375 4.910156 -9.546875 4.328125 -8.921875 C 3.742188 -8.304688 3.453125 -7.410156 3.453125 -6.234375 L 3.453125 0 L 1.578125 0 L 1.578125 -11.28125 L 3.453125 -11.28125 L 3.453125 -9.671875 C 3.828125 -10.242188 4.332031 -10.6875 4.96875 -11 C 5.601562 -11.320312 6.304688 -11.484375 7.078125 -11.484375 Z M 7.078125 -11.484375 "/></g></g></g><g fill="#000000" fill-opacity="1"><g transform="translate(474.546326, 112.504757)"><g><path d="M 3.875 -9.734375 L 3.875 -3.09375 C 3.875 -2.539062 3.988281 -2.148438 4.21875 -1.921875 C 4.445312 -1.691406 4.851562 -1.578125 5.4375 -1.578125 L 6.8125 -1.578125 L 6.8125 0 L 5.125 0 C 4.082031 0 3.300781 -0.238281 2.78125 -0.71875 C 2.257812 -1.195312 2 -1.988281 2 -3.09375 L 2 -9.734375 L 0.53125 -9.734375 L 0.53125 -11.28125 L 2 -11.28125 L 2 -14.109375 L 3.875 -14.109375 L 3.875 -11.28125 L 6.8125 -11.28125 L 6.8125 -9.734375 Z M 3.875 -9.734375 "/></g></g></g><g fill="#000000" fill-opacity="1"><g transform="translate(482.036913, 112.504757)"><g><path d="M 2.1875 0.125 C 1.820312 0.125 1.515625 0 1.265625 -0.25 C 1.023438 -0.5 0.90625 -0.800781 0.90625 -1.15625 C 0.90625 -1.507812 1.023438 -1.804688 1.265625 -2.046875 C 1.515625 -2.296875 1.820312 -2.421875 2.1875 -2.421875 C 2.53125 -2.421875 2.820312 -2.296875 3.0625 -2.046875 C 3.300781 -1.804688 3.421875 -1.507812 3.421875 -1.15625 C 3.421875 -0.800781 3.300781 -0.5 3.0625 -0.25 C 2.820312 0 2.53125 0.125 2.1875 0.125 Z M 2.1875 0.125 "/></g></g></g></svg>