<svg xmlns="http://www.w3.org/2000/svg" xmlns:xlink="http://www.w3.org/1999/xlink" width="1000" zoomAndPan="magnify" viewBox="0 0 750 299.999988" height="400" preserveAspectRatio="xMidYMid meet" version="1.0"><defs><g/><clipPath id="e4f4b719a6"><path d="M 0 59.039062 L 79 59.039062 L 79 219 L 0 219 Z M 0 59.039062 " clip-rule="nonzero"/></clipPath><clipPath id="127af7c96f"><path d="M 73 59.039062 L 151 59.039062 L 151 219 L 73 219 Z M 73 59.039062 " clip-rule="nonzero"/></clipPath><clipPath id="afb23866ac"><path d="M 65 221 L 86 221 L 86 241.289062 L 65 241.289062 Z M 65 221 " clip-rule="nonzero"/></clipPath></defs><path stroke-linecap="butt" transform="matrix(0.000000000000000275, -4.493915, 4.453608, 0.000000000000000273, 181.906875, 254.012)" fill="none" stroke-linejoin="miter" d="M 0.000062597 -0.000140233 L 46.230976 -0.000140233 " stroke="#5b5c38" stroke-width="1" stroke-opacity="1" stroke-miterlimit="4"/><path fill="#5b5c38" d="M 59.535156 134.546875 C 48.851562 134.546875 38.292969 132.445312 30.335938 128.929688 C 22.769531 125.582031 18.242188 121.273438 17.246094 116.460938 C 16.542969 113.058594 16.417969 109.84375 16.871094 106.894531 C 17.800781 100.84375 23.355469 96.46875 29.5 96.945312 C 39.386719 97.707031 48.8125 99.8125 58.308594 103.382812 C 58.363281 103.402344 58.414062 103.425781 58.46875 103.441406 C 58.53125 103.40625 58.597656 103.371094 58.667969 103.34375 C 93.402344 88.550781 118.539062 84.699219 129.433594 92.492188 C 133.164062 95.164062 134.96875 99.101562 134.636719 103.878906 C 133.960938 113.753906 121.285156 116.019531 117.121094 116.765625 C 105.792969 118.789062 94.394531 118.601562 84.144531 116.226562 C 76.96875 114.5625 70.066406 111.851562 63.390625 109.234375 C 61.3125 108.417969 59.164062 107.574219 57.042969 106.78125 C 47.867188 103.332031 38.765625 101.300781 29.226562 100.5625 C 24.945312 100.226562 21.089844 103.257812 20.445312 107.449219 C 20.058594 109.964844 20.167969 112.75 20.785156 115.726562 C 21.519531 119.289062 25.429688 122.796875 31.792969 125.609375 C 46.6875 132.191406 72.445312 133.511719 88.089844 124.164062 C 88.949219 123.652344 90.054688 123.933594 90.566406 124.792969 C 91.078125 125.65625 90.796875 126.769531 89.9375 127.28125 C 81.429688 132.371094 70.417969 134.546875 59.535156 134.546875 Z M 63.332031 105.320312 C 63.792969 105.5 64.25 105.679688 64.707031 105.859375 C 71.261719 108.433594 78.039062 111.089844 84.957031 112.695312 C 94.734375 114.964844 105.640625 115.136719 116.488281 113.199219 C 125.949219 111.507812 130.710938 108.378906 131.035156 103.636719 C 131.277344 100.136719 130.035156 97.382812 127.339844 95.457031 C 118.105469 88.847656 94.316406 92.546875 63.332031 105.320312 Z M 63.332031 105.320312 " fill-opacity="1" fill-rule="nonzero"/><path fill="#5b5c38" d="M 101.597656 127.9375 C 95.570312 127.9375 89.6875 127.292969 84.144531 126.003906 C 76.96875 124.339844 70.066406 121.632812 63.386719 119.015625 C 61.308594 118.199219 59.160156 117.355469 57.042969 116.5625 C 47.867188 113.113281 38.765625 111.082031 29.226562 110.34375 C 25.664062 110.066406 22.355469 112.066406 20.984375 115.3125 C 20.59375 116.234375 19.53125 116.664062 18.617188 116.277344 C 17.699219 115.886719 17.269531 114.820312 17.65625 113.898438 C 19.636719 109.210938 24.398438 106.328125 29.5 106.722656 C 39.386719 107.484375 48.8125 109.589844 58.308594 113.160156 C 60.449219 113.960938 62.609375 114.808594 64.703125 115.632812 C 71.257812 118.203125 78.035156 120.863281 84.957031 122.46875 C 94.734375 124.734375 105.640625 124.90625 116.488281 122.972656 C 125.949219 121.277344 130.710938 118.148438 131.035156 113.410156 C 131.375 108.433594 131.425781 102.101562 130.949219 100.960938 C 130.488281 100.070312 130.832031 98.988281 131.71875 98.523438 C 132.605469 98.0625 133.703125 98.417969 134.164062 99.304688 C 135.359375 101.601562 134.832031 110.871094 134.636719 113.664062 C 133.960938 123.539062 121.285156 125.804688 117.121094 126.550781 C 111.925781 127.476562 106.710938 127.9375 101.597656 127.9375 Z M 101.597656 127.9375 " fill-opacity="1" fill-rule="nonzero"/><path fill="#5b5c38" d="M 130.078125 110.917969 C 129.679688 110.917969 129.277344 110.785156 128.945312 110.515625 L 106.429688 92.222656 C 105.652344 91.59375 105.535156 90.449219 106.164062 89.671875 C 106.792969 88.890625 107.929688 88.773438 108.703125 89.402344 L 131.21875 107.691406 C 131.996094 108.324219 132.113281 109.464844 131.484375 110.246094 C 131.132812 110.6875 130.605469 110.917969 130.078125 110.917969 Z M 130.078125 110.917969 " fill-opacity="1" fill-rule="nonzero"/><path fill="#5b5c38" d="M 113.042969 116.878906 C 112.648438 116.878906 112.246094 116.746094 111.910156 116.476562 L 87.167969 96.375 C 86.390625 95.746094 86.273438 94.601562 86.902344 93.820312 C 87.53125 93.039062 88.667969 92.921875 89.441406 93.554688 L 114.183594 113.652344 C 114.960938 114.285156 115.078125 115.425781 114.449219 116.207031 C 114.09375 116.652344 113.574219 116.878906 113.042969 116.878906 Z M 113.042969 116.878906 " fill-opacity="1" fill-rule="nonzero"/><path fill="#5b5c38" d="M 89.011719 117.160156 C 88.613281 117.160156 88.210938 117.027344 87.878906 116.757812 L 70.277344 102.457031 C 69.5 101.828125 69.382812 100.683594 70.011719 99.902344 C 70.640625 99.125 71.777344 99.007812 72.554688 99.636719 L 90.15625 113.933594 C 90.933594 114.566406 91.050781 115.707031 90.421875 116.488281 C 90.058594 116.933594 89.539062 117.160156 89.011719 117.160156 Z M 89.011719 117.160156 " fill-opacity="1" fill-rule="nonzero"/><path fill="#5b5c38" d="M 78.0625 131.3125 C 77.664062 131.3125 77.261719 131.179688 76.929688 130.910156 L 61.71875 118.5625 C 60.945312 117.929688 60.824219 116.789062 61.453125 116.007812 C 62.082031 115.226562 63.21875 115.109375 63.996094 115.738281 L 79.203125 128.09375 C 79.980469 128.722656 80.097656 129.867188 79.46875 130.644531 C 79.113281 131.085938 78.585938 131.3125 78.0625 131.3125 Z M 78.0625 131.3125 " fill-opacity="1" fill-rule="nonzero"/><path fill="#5b5c38" d="M 61.09375 134.085938 C 60.695312 134.085938 60.292969 133.953125 59.957031 133.679688 L 31.050781 110.203125 C 30.273438 109.570312 30.15625 108.429688 30.785156 107.648438 C 31.410156 106.867188 32.550781 106.75 33.328125 107.378906 L 62.230469 130.859375 C 63.007812 131.488281 63.125 132.632812 62.496094 133.414062 C 62.140625 133.851562 61.617188 134.085938 61.09375 134.085938 Z M 61.09375 134.085938 " fill-opacity="1" fill-rule="nonzero"/><path fill="#5b5c38" d="M 72.277344 217.851562 C 71.277344 217.851562 70.46875 217.039062 70.46875 216.035156 L 70.46875 208.882812 C 70.46875 203.601562 68.105469 198.699219 63.988281 195.417969 C 60.046875 192.285156 56.976562 187.789062 55.085938 184.570312 C 53.246094 181.421875 52.269531 177.796875 52.269531 174.085938 L 52.269531 142.363281 C 52.269531 141.359375 53.078125 140.550781 54.074219 140.550781 C 55.074219 140.550781 55.882812 141.359375 55.882812 142.363281 L 55.882812 174.085938 C 55.882812 177.152344 56.6875 180.136719 58.207031 182.726562 C 59.9375 185.679688 62.738281 189.785156 66.238281 192.574219 C 71.226562 196.542969 74.085938 202.492188 74.085938 208.882812 L 74.085938 216.035156 C 74.082031 217.039062 73.273438 217.851562 72.277344 217.851562 Z M 72.277344 217.851562 " fill-opacity="1" fill-rule="nonzero"/><path fill="#5b5c38" d="M 79.238281 217.851562 C 78.238281 217.851562 77.429688 217.039062 77.429688 216.035156 L 77.429688 208.882812 C 77.429688 202.492188 80.289062 196.542969 85.277344 192.574219 C 88.78125 189.785156 91.582031 185.679688 93.3125 182.726562 C 94.832031 180.136719 95.628906 177.152344 95.628906 174.085938 L 95.628906 142.363281 C 95.628906 141.359375 96.441406 140.550781 97.4375 140.550781 C 98.4375 140.550781 99.246094 141.359375 99.246094 142.363281 L 99.246094 174.085938 C 99.246094 177.796875 98.269531 181.421875 96.425781 184.570312 C 94.539062 187.785156 91.464844 192.28125 87.523438 195.417969 C 83.410156 198.699219 81.046875 203.601562 81.046875 208.882812 L 81.046875 216.035156 C 81.046875 217.039062 80.238281 217.851562 79.238281 217.851562 Z M 79.238281 217.851562 " fill-opacity="1" fill-rule="nonzero"/><path fill="#5b5c38" d="M 75.75 179.355469 C 74.75 179.355469 73.941406 178.542969 73.941406 177.542969 L 73.941406 142.363281 C 73.941406 141.359375 74.75 140.550781 75.75 140.550781 C 76.75 140.550781 77.558594 141.359375 77.558594 142.363281 L 77.558594 177.539062 C 77.558594 178.542969 76.75 179.355469 75.75 179.355469 Z M 75.75 179.355469 " fill-opacity="1" fill-rule="nonzero"/><g clip-path="url(#e4f4b719a6)"><path fill="#5b5c38" d="M 72.277344 218.054688 L 43.359375 218.054688 C 34.671875 218.054688 27.132812 211.847656 25.429688 203.296875 L 1.078125 81.078125 C 0 75.667969 1.382812 70.109375 4.867188 65.839844 C 8.355469 61.574219 13.511719 59.125 19.007812 59.125 L 76.261719 59.125 C 77.257812 59.125 78.066406 59.933594 78.066406 60.9375 C 78.066406 61.941406 77.257812 62.753906 76.261719 62.753906 L 19.007812 62.753906 C 14.597656 62.753906 10.464844 64.714844 7.667969 68.140625 C 4.871094 71.566406 3.765625 76.019531 4.625 80.367188 L 28.976562 202.589844 C 30.339844 209.449219 36.390625 214.425781 43.359375 214.425781 L 72.28125 214.425781 C 73.277344 214.425781 74.085938 215.238281 74.085938 216.242188 C 74.085938 217.242188 73.273438 218.054688 72.277344 218.054688 Z M 72.277344 218.054688 " fill-opacity="1" fill-rule="nonzero"/></g><g clip-path="url(#127af7c96f)"><path fill="#5b5c38" d="M 108.15625 218.054688 L 79.238281 218.054688 C 78.238281 218.054688 77.429688 217.242188 77.429688 216.242188 C 77.429688 215.238281 78.238281 214.425781 79.238281 214.425781 L 108.15625 214.425781 C 115.121094 214.425781 121.171875 209.449219 122.539062 202.589844 L 146.886719 80.367188 C 147.75 76.027344 146.644531 71.566406 143.847656 68.140625 C 141.050781 64.714844 136.914062 62.753906 132.503906 62.753906 L 75.253906 62.753906 C 74.253906 62.753906 73.445312 61.941406 73.445312 60.9375 C 73.445312 59.933594 74.253906 59.125 75.253906 59.125 L 132.503906 59.125 C 138.003906 59.125 143.15625 61.574219 146.644531 65.839844 C 150.125 70.109375 151.507812 75.664062 150.433594 81.078125 L 126.085938 203.304688 C 124.382812 211.847656 116.839844 218.054688 108.15625 218.054688 Z M 108.15625 218.054688 " fill-opacity="1" fill-rule="nonzero"/></g><g clip-path="url(#afb23866ac)"><path fill="#5b5c38" d="M 75.753906 221.816406 L 78.152344 229.226562 L 85.917969 229.226562 L 79.636719 233.804688 L 82.035156 241.21875 L 75.753906 236.636719 L 69.480469 241.21875 L 71.878906 233.804688 L 65.597656 229.226562 L 73.359375 229.226562 Z M 75.753906 221.816406 " fill-opacity="1" fill-rule="nonzero"/></g><path fill="#5b5c38" d="M 59.945312 232.96875 L 52.714844 232.96875 C 52.128906 232.96875 51.652344 232.492188 51.652344 231.902344 C 51.652344 231.3125 52.128906 230.839844 52.714844 230.839844 L 59.945312 230.839844 C 60.53125 230.839844 61.007812 231.3125 61.007812 231.902344 C 61.011719 232.488281 60.53125 232.96875 59.945312 232.96875 Z M 59.945312 232.96875 " fill-opacity="1" fill-rule="nonzero"/><path fill="#5b5c38" d="M 98.796875 232.96875 L 91.570312 232.96875 C 90.980469 232.96875 90.507812 232.492188 90.507812 231.902344 C 90.507812 231.3125 90.980469 230.839844 91.570312 230.839844 L 98.796875 230.839844 C 99.386719 230.839844 99.859375 231.3125 99.859375 231.902344 C 99.859375 232.488281 99.386719 232.96875 98.796875 232.96875 Z M 98.796875 232.96875 " fill-opacity="1" fill-rule="nonzero"/><g fill="#32230f" fill-opacity="1"><g transform="translate(211.120003, 118.019031)"><g><path d="M 23.59375 -13.96875 L 23.59375 0 L 14.46875 0 L 14.46875 -14.078125 L -0.78125 -39.421875 L 8.890625 -39.421875 L 19.421875 -21.90625 L 29.953125 -39.421875 L 38.90625 -39.421875 Z M 23.59375 -13.96875 "/></g></g></g><g fill="#32230f" fill-opacity="1"><g transform="translate(249.184971, 118.019031)"><g><path d="M 18.46875 0.453125 C 15.28125 0.453125 12.414062 -0.210938 9.875 -1.546875 C 7.34375 -2.878906 5.363281 -4.726562 3.9375 -7.09375 C 2.507812 -9.457031 1.796875 -12.140625 1.796875 -15.140625 C 1.796875 -18.148438 2.507812 -20.835938 3.9375 -23.203125 C 5.363281 -25.566406 7.34375 -27.414062 9.875 -28.75 C 12.414062 -30.082031 15.28125 -30.75 18.46875 -30.75 C 21.65625 -30.75 24.503906 -30.082031 27.015625 -28.75 C 29.535156 -27.414062 31.507812 -25.566406 32.9375 -23.203125 C 34.363281 -20.835938 35.078125 -18.148438 35.078125 -15.140625 C 35.078125 -12.140625 34.363281 -9.457031 32.9375 -7.09375 C 31.507812 -4.726562 29.535156 -2.878906 27.015625 -1.546875 C 24.503906 -0.210938 21.65625 0.453125 18.46875 0.453125 Z M 18.46875 -6.75 C 20.71875 -6.75 22.566406 -7.507812 24.015625 -9.03125 C 25.460938 -10.550781 26.1875 -12.585938 26.1875 -15.140625 C 26.1875 -17.703125 25.460938 -19.738281 24.015625 -21.25 C 22.566406 -22.769531 20.71875 -23.53125 18.46875 -23.53125 C 16.21875 -23.53125 14.359375 -22.769531 12.890625 -21.25 C 11.429688 -19.738281 10.703125 -17.703125 10.703125 -15.140625 C 10.703125 -12.585938 11.429688 -10.550781 12.890625 -9.03125 C 14.359375 -7.507812 16.21875 -6.75 18.46875 -6.75 Z M 18.46875 -6.75 "/></g></g></g><g fill="#32230f" fill-opacity="1"><g transform="translate(286.067452, 118.019031)"><g><path d="M 34.578125 -30.296875 L 34.578125 0 L 26.234375 0 L 26.234375 -3.609375 C 25.078125 -2.296875 23.691406 -1.289062 22.078125 -0.59375 C 20.460938 0.101562 18.71875 0.453125 16.84375 0.453125 C 12.863281 0.453125 9.707031 -0.691406 7.375 -2.984375 C 5.050781 -5.273438 3.890625 -8.671875 3.890625 -13.171875 L 3.890625 -30.296875 L 12.671875 -30.296875 L 12.671875 -14.46875 C 12.671875 -9.59375 14.71875 -7.15625 18.8125 -7.15625 C 20.914062 -7.15625 22.601562 -7.835938 23.875 -9.203125 C 25.15625 -10.578125 25.796875 -12.613281 25.796875 -15.3125 L 25.796875 -30.296875 Z M 34.578125 -30.296875 "/></g></g></g><g fill="#32230f" fill-opacity="1"><g transform="translate(324.751832, 118.019031)"><g/></g></g><g fill="#32230f" fill-opacity="1"><g transform="translate(340.687309, 118.019031)"><g><path d="M 35.3125 -30.296875 L 35.3125 -5.0625 C 35.3125 0.488281 33.863281 4.613281 30.96875 7.3125 C 28.082031 10.019531 23.859375 11.375 18.296875 11.375 C 15.367188 11.375 12.59375 11.015625 9.96875 10.296875 C 7.34375 9.585938 5.164062 8.554688 3.4375 7.203125 L 6.921875 0.90625 C 8.203125 1.957031 9.816406 2.789062 11.765625 3.40625 C 13.722656 4.03125 15.675781 4.34375 17.625 4.34375 C 20.664062 4.34375 22.90625 3.65625 24.34375 2.28125 C 25.789062 0.90625 26.515625 -1.164062 26.515625 -3.9375 L 26.515625 -5.234375 C 24.234375 -2.722656 21.046875 -1.46875 16.953125 -1.46875 C 14.171875 -1.46875 11.625 -2.078125 9.3125 -3.296875 C 7.007812 -4.515625 5.179688 -6.226562 3.828125 -8.4375 C 2.472656 -10.65625 1.796875 -13.210938 1.796875 -16.109375 C 1.796875 -18.992188 2.472656 -21.546875 3.828125 -23.765625 C 5.179688 -25.984375 7.007812 -27.703125 9.3125 -28.921875 C 11.625 -30.140625 14.171875 -30.75 16.953125 -30.75 C 21.335938 -30.75 24.675781 -29.300781 26.96875 -26.40625 L 26.96875 -30.296875 Z M 18.703125 -8.671875 C 21.023438 -8.671875 22.925781 -9.351562 24.40625 -10.71875 C 25.894531 -12.09375 26.640625 -13.890625 26.640625 -16.109375 C 26.640625 -18.316406 25.894531 -20.101562 24.40625 -21.46875 C 22.925781 -22.84375 21.023438 -23.53125 18.703125 -23.53125 C 16.367188 -23.53125 14.453125 -22.84375 12.953125 -21.46875 C 11.453125 -20.101562 10.703125 -18.316406 10.703125 -16.109375 C 10.703125 -13.890625 11.453125 -12.09375 12.953125 -10.71875 C 14.453125 -9.351562 16.367188 -8.671875 18.703125 -8.671875 Z M 18.703125 -8.671875 "/></g></g></g><g fill="#32230f" fill-opacity="1"><g transform="translate(380.103698, 118.019031)"><g><path d="M 18.46875 0.453125 C 15.28125 0.453125 12.414062 -0.210938 9.875 -1.546875 C 7.34375 -2.878906 5.363281 -4.726562 3.9375 -7.09375 C 2.507812 -9.457031 1.796875 -12.140625 1.796875 -15.140625 C 1.796875 -18.148438 2.507812 -20.835938 3.9375 -23.203125 C 5.363281 -25.566406 7.34375 -27.414062 9.875 -28.75 C 12.414062 -30.082031 15.28125 -30.75 18.46875 -30.75 C 21.65625 -30.75 24.503906 -30.082031 27.015625 -28.75 C 29.535156 -27.414062 31.507812 -25.566406 32.9375 -23.203125 C 34.363281 -20.835938 35.078125 -18.148438 35.078125 -15.140625 C 35.078125 -12.140625 34.363281 -9.457031 32.9375 -7.09375 C 31.507812 -4.726562 29.535156 -2.878906 27.015625 -1.546875 C 24.503906 -0.210938 21.65625 0.453125 18.46875 0.453125 Z M 18.46875 -6.75 C 20.71875 -6.75 22.566406 -7.507812 24.015625 -9.03125 C 25.460938 -10.550781 26.1875 -12.585938 26.1875 -15.140625 C 26.1875 -17.703125 25.460938 -19.738281 24.015625 -21.25 C 22.566406 -22.769531 20.71875 -23.53125 18.46875 -23.53125 C 16.21875 -23.53125 14.359375 -22.769531 12.890625 -21.25 C 11.429688 -19.738281 10.703125 -17.703125 10.703125 -15.140625 C 10.703125 -12.585938 11.429688 -10.550781 12.890625 -9.03125 C 14.359375 -7.507812 16.21875 -6.75 18.46875 -6.75 Z M 18.46875 -6.75 "/></g></g></g><g fill="#32230f" fill-opacity="1"><g transform="translate(416.986178, 118.019031)"><g><path d="M 23.59375 -1.46875 C 22.726562 -0.820312 21.664062 -0.335938 20.40625 -0.015625 C 19.15625 0.296875 17.832031 0.453125 16.4375 0.453125 C 12.832031 0.453125 10.046875 -0.460938 8.078125 -2.296875 C 6.109375 -4.140625 5.125 -6.847656 5.125 -10.421875 L 5.125 -22.859375 L 0.453125 -22.859375 L 0.453125 -29.625 L 5.125 -29.625 L 5.125 -37 L 13.90625 -37 L 13.90625 -29.625 L 21.453125 -29.625 L 21.453125 -22.859375 L 13.90625 -22.859375 L 13.90625 -10.53125 C 13.90625 -9.25 14.234375 -8.257812 14.890625 -7.5625 C 15.546875 -6.875 16.476562 -6.53125 17.6875 -6.53125 C 19.070312 -6.53125 20.253906 -6.90625 21.234375 -7.65625 Z M 23.59375 -1.46875 "/></g></g></g><g fill="#32230f" fill-opacity="1"><g transform="translate(441.480644, 118.019031)"><g><path d="M 23.59375 -1.46875 C 22.726562 -0.820312 21.664062 -0.335938 20.40625 -0.015625 C 19.15625 0.296875 17.832031 0.453125 16.4375 0.453125 C 12.832031 0.453125 10.046875 -0.460938 8.078125 -2.296875 C 6.109375 -4.140625 5.125 -6.847656 5.125 -10.421875 L 5.125 -22.859375 L 0.453125 -22.859375 L 0.453125 -29.625 L 5.125 -29.625 L 5.125 -37 L 13.90625 -37 L 13.90625 -29.625 L 21.453125 -29.625 L 21.453125 -22.859375 L 13.90625 -22.859375 L 13.90625 -10.53125 C 13.90625 -9.25 14.234375 -8.257812 14.890625 -7.5625 C 15.546875 -6.875 16.476562 -6.53125 17.6875 -6.53125 C 19.070312 -6.53125 20.253906 -6.90625 21.234375 -7.65625 Z M 23.59375 -1.46875 "/></g></g></g><g fill="#32230f" fill-opacity="1"><g transform="translate(465.97511, 118.019031)"><g><path d="M 16.28125 -30.75 C 20.96875 -30.75 24.566406 -29.628906 27.078125 -27.390625 C 29.597656 -25.160156 30.859375 -21.789062 30.859375 -17.28125 L 30.859375 0 L 22.640625 0 L 22.640625 -3.765625 C 20.984375 -0.953125 17.90625 0.453125 13.40625 0.453125 C 11.070312 0.453125 9.050781 0.0546875 7.34375 -0.734375 C 5.632812 -1.523438 4.328125 -2.613281 3.421875 -4 C 2.523438 -5.382812 2.078125 -6.960938 2.078125 -8.734375 C 2.078125 -11.546875 3.140625 -13.757812 5.265625 -15.375 C 7.390625 -16.988281 10.664062 -17.796875 15.09375 -17.796875 L 22.078125 -17.796875 C 22.078125 -19.710938 21.492188 -21.1875 20.328125 -22.21875 C 19.160156 -23.25 17.414062 -23.765625 15.09375 -23.765625 C 13.476562 -23.765625 11.890625 -23.507812 10.328125 -23 C 8.773438 -22.5 7.453125 -21.816406 6.359375 -20.953125 L 3.203125 -27.09375 C 4.859375 -28.25 6.835938 -29.144531 9.140625 -29.78125 C 11.453125 -30.425781 13.832031 -30.75 16.28125 -30.75 Z M 15.59375 -5.46875 C 17.09375 -5.46875 18.425781 -5.8125 19.59375 -6.5 C 20.757812 -7.195312 21.585938 -8.222656 22.078125 -9.578125 L 22.078125 -12.671875 L 16.046875 -12.671875 C 12.441406 -12.671875 10.640625 -11.488281 10.640625 -9.125 C 10.640625 -8 11.082031 -7.109375 11.96875 -6.453125 C 12.851562 -5.796875 14.0625 -5.46875 15.59375 -5.46875 Z M 15.59375 -5.46875 "/></g></g></g><g fill="#32230f" fill-opacity="1"><g transform="translate(500.717839, 118.019031)"><g/></g></g><g fill="#32230f" fill-opacity="1"><g transform="translate(516.653316, 118.019031)"><g><path d="M 23.59375 -1.46875 C 22.726562 -0.820312 21.664062 -0.335938 20.40625 -0.015625 C 19.15625 0.296875 17.832031 0.453125 16.4375 0.453125 C 12.832031 0.453125 10.046875 -0.460938 8.078125 -2.296875 C 6.109375 -4.140625 5.125 -6.847656 5.125 -10.421875 L 5.125 -22.859375 L 0.453125 -22.859375 L 0.453125 -29.625 L 5.125 -29.625 L 5.125 -37 L 13.90625 -37 L 13.90625 -29.625 L 21.453125 -29.625 L 21.453125 -22.859375 L 13.90625 -22.859375 L 13.90625 -10.53125 C 13.90625 -9.25 14.234375 -8.257812 14.890625 -7.5625 C 15.546875 -6.875 16.476562 -6.53125 17.6875 -6.53125 C 19.070312 -6.53125 20.253906 -6.90625 21.234375 -7.65625 Z M 23.59375 -1.46875 "/></g></g></g><g fill="#32230f" fill-opacity="1"><g transform="translate(541.147798, 118.019031)"><g><path d="M 12.4375 -26.296875 C 13.488281 -27.765625 14.90625 -28.875 16.6875 -29.625 C 18.476562 -30.375 20.535156 -30.75 22.859375 -30.75 L 22.859375 -22.640625 C 21.890625 -22.710938 21.234375 -22.75 20.890625 -22.75 C 18.378906 -22.75 16.410156 -22.046875 14.984375 -20.640625 C 13.554688 -19.234375 12.84375 -17.117188 12.84375 -14.296875 L 12.84375 0 L 4.046875 0 L 4.046875 -30.296875 L 12.4375 -30.296875 Z M 12.4375 -26.296875 "/></g></g></g><g fill="#32230f" fill-opacity="1"><g transform="translate(565.417025, 118.019031)"><g><path d="M 34.125 -30.296875 L 20.4375 1.859375 C 19.050781 5.347656 17.332031 7.804688 15.28125 9.234375 C 13.238281 10.660156 10.773438 11.375 7.890625 11.375 C 6.304688 11.375 4.742188 11.128906 3.203125 10.640625 C 1.671875 10.148438 0.414062 9.472656 -0.5625 8.609375 L 2.640625 2.359375 C 3.316406 2.960938 4.097656 3.429688 4.984375 3.765625 C 5.867188 4.109375 6.742188 4.28125 7.609375 4.28125 C 8.804688 4.28125 9.78125 3.988281 10.53125 3.40625 C 11.28125 2.820312 11.957031 1.851562 12.5625 0.5 L 12.671875 0.21875 L -0.453125 -30.296875 L 8.609375 -30.296875 L 17.125 -9.734375 L 25.671875 -30.296875 Z M 34.125 -30.296875 "/></g></g></g><g fill="#32230f" fill-opacity="1"><g transform="translate(599.089894, 118.019031)"><g/></g></g><g fill="#32230f" fill-opacity="1"><g transform="translate(615.02537, 118.019031)"><g><path d="M 23.59375 -1.46875 C 22.726562 -0.820312 21.664062 -0.335938 20.40625 -0.015625 C 19.15625 0.296875 17.832031 0.453125 16.4375 0.453125 C 12.832031 0.453125 10.046875 -0.460938 8.078125 -2.296875 C 6.109375 -4.140625 5.125 -6.847656 5.125 -10.421875 L 5.125 -22.859375 L 0.453125 -22.859375 L 0.453125 -29.625 L 5.125 -29.625 L 5.125 -37 L 13.90625 -37 L 13.90625 -29.625 L 21.453125 -29.625 L 21.453125 -22.859375 L 13.90625 -22.859375 L 13.90625 -10.53125 C 13.90625 -9.25 14.234375 -8.257812 14.890625 -7.5625 C 15.546875 -6.875 16.476562 -6.53125 17.6875 -6.53125 C 19.070312 -6.53125 20.253906 -6.90625 21.234375 -7.65625 Z M 23.59375 -1.46875 "/></g></g></g><g fill="#32230f" fill-opacity="1"><g transform="translate(639.519852, 118.019031)"><g><path d="M 22.46875 -30.75 C 26.21875 -30.75 29.25 -29.617188 31.5625 -27.359375 C 33.875 -25.109375 35.03125 -21.769531 35.03125 -17.34375 L 35.03125 0 L 26.234375 0 L 26.234375 -16 C 26.234375 -18.394531 25.707031 -20.179688 24.65625 -21.359375 C 23.613281 -22.546875 22.097656 -23.140625 20.109375 -23.140625 C 17.890625 -23.140625 16.125 -22.453125 14.8125 -21.078125 C 13.5 -19.710938 12.84375 -17.679688 12.84375 -14.984375 L 12.84375 0 L 4.046875 0 L 4.046875 -41.78125 L 12.84375 -41.78125 L 12.84375 -27.140625 C 14 -28.304688 15.40625 -29.195312 17.0625 -29.8125 C 18.71875 -30.4375 20.519531 -30.75 22.46875 -30.75 Z M 22.46875 -30.75 "/></g></g></g><g fill="#32230f" fill-opacity="1"><g transform="translate(678.42944, 118.019031)"><g><path d="M 4.046875 -30.296875 L 12.84375 -30.296875 L 12.84375 0 L 4.046875 0 Z M 8.453125 -34.515625 C 6.835938 -34.515625 5.519531 -34.984375 4.5 -35.921875 C 3.488281 -36.859375 2.984375 -38.023438 2.984375 -39.421875 C 2.984375 -40.804688 3.488281 -41.96875 4.5 -42.90625 C 5.519531 -43.84375 6.835938 -44.3125 8.453125 -44.3125 C 10.066406 -44.3125 11.378906 -43.859375 12.390625 -42.953125 C 13.398438 -42.054688 13.90625 -40.9375 13.90625 -39.59375 C 13.90625 -38.125 13.398438 -36.910156 12.390625 -35.953125 C 11.378906 -34.992188 10.066406 -34.515625 8.453125 -34.515625 Z M 8.453125 -34.515625 "/></g></g></g><g fill="#32230f" fill-opacity="1"><g transform="translate(695.378486, 118.019031)"><g><path d="M 14.25 0.453125 C 11.726562 0.453125 9.265625 0.144531 6.859375 -0.46875 C 4.460938 -1.09375 2.550781 -1.875 1.125 -2.8125 L 4.046875 -9.125 C 5.398438 -8.257812 7.035156 -7.550781 8.953125 -7 C 10.867188 -6.457031 12.742188 -6.1875 14.578125 -6.1875 C 18.296875 -6.1875 20.15625 -7.109375 20.15625 -8.953125 C 20.15625 -9.816406 19.648438 -10.4375 18.640625 -10.8125 C 17.628906 -11.1875 16.070312 -11.503906 13.96875 -11.765625 C 11.488281 -12.140625 9.441406 -12.570312 7.828125 -13.0625 C 6.210938 -13.550781 4.8125 -14.414062 3.625 -15.65625 C 2.445312 -16.894531 1.859375 -18.660156 1.859375 -20.953125 C 1.859375 -22.859375 2.410156 -24.550781 3.515625 -26.03125 C 4.628906 -27.519531 6.242188 -28.675781 8.359375 -29.5 C 10.484375 -30.332031 12.988281 -30.75 15.875 -30.75 C 18.019531 -30.75 20.148438 -30.515625 22.265625 -30.046875 C 24.390625 -29.578125 26.144531 -28.925781 27.53125 -28.09375 L 24.609375 -21.84375 C 21.941406 -23.351562 19.03125 -24.109375 15.875 -24.109375 C 14 -24.109375 12.59375 -23.84375 11.65625 -23.3125 C 10.71875 -22.789062 10.25 -22.113281 10.25 -21.28125 C 10.25 -20.34375 10.753906 -19.6875 11.765625 -19.3125 C 12.785156 -18.9375 14.398438 -18.582031 16.609375 -18.25 C 19.085938 -17.832031 21.113281 -17.390625 22.6875 -16.921875 C 24.269531 -16.453125 25.640625 -15.597656 26.796875 -14.359375 C 27.960938 -13.117188 28.546875 -11.390625 28.546875 -9.171875 C 28.546875 -7.296875 27.984375 -5.625 26.859375 -4.15625 C 25.734375 -2.695312 24.09375 -1.5625 21.9375 -0.75 C 19.78125 0.0507812 17.21875 0.453125 14.25 0.453125 Z M 14.25 0.453125 "/></g></g></g><g fill="#32230f" fill-opacity="1"><g transform="translate(211.120003, 176.942169)"><g><path d="M 12.4375 -26.296875 C 13.488281 -27.765625 14.90625 -28.875 16.6875 -29.625 C 18.476562 -30.375 20.535156 -30.75 22.859375 -30.75 L 22.859375 -22.640625 C 21.890625 -22.710938 21.234375 -22.75 20.890625 -22.75 C 18.378906 -22.75 16.410156 -22.046875 14.984375 -20.640625 C 13.554688 -19.234375 12.84375 -17.117188 12.84375 -14.296875 L 12.84375 0 L 4.046875 0 L 4.046875 -30.296875 L 12.4375 -30.296875 Z M 12.4375 -26.296875 "/></g></g></g><g fill="#32230f" fill-opacity="1"><g transform="translate(235.389246, 176.942169)"><g><path d="M 33.734375 -15.03125 C 33.734375 -14.914062 33.675781 -14.128906 33.5625 -12.671875 L 10.640625 -12.671875 C 11.054688 -10.796875 12.03125 -9.3125 13.5625 -8.21875 C 15.101562 -7.132812 17.019531 -6.59375 19.3125 -6.59375 C 20.894531 -6.59375 22.296875 -6.828125 23.515625 -7.296875 C 24.734375 -7.765625 25.867188 -8.503906 26.921875 -9.515625 L 31.59375 -4.453125 C 28.738281 -1.179688 24.570312 0.453125 19.09375 0.453125 C 15.675781 0.453125 12.648438 -0.210938 10.015625 -1.546875 C 7.390625 -2.878906 5.363281 -4.726562 3.9375 -7.09375 C 2.507812 -9.457031 1.796875 -12.140625 1.796875 -15.140625 C 1.796875 -18.109375 2.5 -20.785156 3.90625 -23.171875 C 5.320312 -25.554688 7.257812 -27.414062 9.71875 -28.75 C 12.175781 -30.082031 14.925781 -30.75 17.96875 -30.75 C 20.925781 -30.75 23.609375 -30.109375 26.015625 -28.828125 C 28.421875 -27.554688 30.304688 -25.726562 31.671875 -23.34375 C 33.046875 -20.957031 33.734375 -18.1875 33.734375 -15.03125 Z M 18.015625 -24.109375 C 16.023438 -24.109375 14.351562 -23.539062 13 -22.40625 C 11.65625 -21.28125 10.832031 -19.742188 10.53125 -17.796875 L 25.453125 -17.796875 C 25.148438 -19.710938 24.320312 -21.242188 22.96875 -22.390625 C 21.625 -23.535156 19.972656 -24.109375 18.015625 -24.109375 Z M 18.015625 -24.109375 "/></g></g></g><g fill="#32230f" fill-opacity="1"><g transform="translate(270.920306, 176.942169)"><g><path d="M 18.703125 0.453125 C 15.472656 0.453125 12.570312 -0.210938 10 -1.546875 C 7.425781 -2.878906 5.414062 -4.726562 3.96875 -7.09375 C 2.519531 -9.457031 1.796875 -12.140625 1.796875 -15.140625 C 1.796875 -18.148438 2.519531 -20.835938 3.96875 -23.203125 C 5.414062 -25.566406 7.425781 -27.414062 10 -28.75 C 12.570312 -30.082031 15.472656 -30.75 18.703125 -30.75 C 21.890625 -30.75 24.675781 -30.082031 27.0625 -28.75 C 29.445312 -27.414062 31.179688 -25.507812 32.265625 -23.03125 L 25.453125 -19.375 C 23.878906 -22.144531 21.609375 -23.53125 18.640625 -23.53125 C 16.347656 -23.53125 14.453125 -22.78125 12.953125 -21.28125 C 11.453125 -19.78125 10.703125 -17.734375 10.703125 -15.140625 C 10.703125 -12.554688 11.453125 -10.507812 12.953125 -9 C 14.453125 -7.5 16.347656 -6.75 18.640625 -6.75 C 21.640625 -6.75 23.910156 -8.140625 25.453125 -10.921875 L 32.265625 -7.203125 C 31.179688 -4.804688 29.445312 -2.929688 27.0625 -1.578125 C 24.675781 -0.222656 21.890625 0.453125 18.703125 0.453125 Z M 18.703125 0.453125 "/></g></g></g><g fill="#32230f" fill-opacity="1"><g transform="translate(304.199002, 176.942169)"><g><path d="M 4.046875 -30.296875 L 12.84375 -30.296875 L 12.84375 0 L 4.046875 0 Z M 8.453125 -34.515625 C 6.835938 -34.515625 5.519531 -34.984375 4.5 -35.921875 C 3.488281 -36.859375 2.984375 -38.023438 2.984375 -39.421875 C 2.984375 -40.804688 3.488281 -41.96875 4.5 -42.90625 C 5.519531 -43.84375 6.835938 -44.3125 8.453125 -44.3125 C 10.066406 -44.3125 11.378906 -43.859375 12.390625 -42.953125 C 13.398438 -42.054688 13.90625 -40.9375 13.90625 -39.59375 C 13.90625 -38.125 13.398438 -36.910156 12.390625 -35.953125 C 11.378906 -34.992188 10.066406 -34.515625 8.453125 -34.515625 Z M 8.453125 -34.515625 "/></g></g></g><g fill="#32230f" fill-opacity="1"><g transform="translate(321.148048, 176.942169)"><g><path d="M 21.96875 -30.75 C 24.78125 -30.75 27.335938 -30.097656 29.640625 -28.796875 C 31.953125 -27.503906 33.765625 -25.6875 35.078125 -23.34375 C 36.390625 -21 37.046875 -18.265625 37.046875 -15.140625 C 37.046875 -12.023438 36.390625 -9.296875 35.078125 -6.953125 C 33.765625 -4.609375 31.953125 -2.785156 29.640625 -1.484375 C 27.335938 -0.191406 24.78125 0.453125 21.96875 0.453125 C 18.09375 0.453125 15.050781 -0.765625 12.84375 -3.203125 L 12.84375 10.921875 L 4.046875 10.921875 L 4.046875 -30.296875 L 12.4375 -30.296875 L 12.4375 -26.8125 C 14.625 -29.4375 17.800781 -30.75 21.96875 -30.75 Z M 20.4375 -6.75 C 22.6875 -6.75 24.535156 -7.507812 25.984375 -9.03125 C 27.429688 -10.550781 28.15625 -12.585938 28.15625 -15.140625 C 28.15625 -17.703125 27.429688 -19.738281 25.984375 -21.25 C 24.535156 -22.769531 22.6875 -23.53125 20.4375 -23.53125 C 18.1875 -23.53125 16.335938 -22.769531 14.890625 -21.25 C 13.453125 -19.738281 12.734375 -17.703125 12.734375 -15.140625 C 12.734375 -12.585938 13.453125 -10.550781 14.890625 -9.03125 C 16.335938 -7.507812 18.1875 -6.75 20.4375 -6.75 Z M 20.4375 -6.75 "/></g></g></g><g fill="#32230f" fill-opacity="1"><g transform="translate(360.001346, 176.942169)"><g><path d="M 33.734375 -15.03125 C 33.734375 -14.914062 33.675781 -14.128906 33.5625 -12.671875 L 10.640625 -12.671875 C 11.054688 -10.796875 12.03125 -9.3125 13.5625 -8.21875 C 15.101562 -7.132812 17.019531 -6.59375 19.3125 -6.59375 C 20.894531 -6.59375 22.296875 -6.828125 23.515625 -7.296875 C 24.734375 -7.765625 25.867188 -8.503906 26.921875 -9.515625 L 31.59375 -4.453125 C 28.738281 -1.179688 24.570312 0.453125 19.09375 0.453125 C 15.675781 0.453125 12.648438 -0.210938 10.015625 -1.546875 C 7.390625 -2.878906 5.363281 -4.726562 3.9375 -7.09375 C 2.507812 -9.457031 1.796875 -12.140625 1.796875 -15.140625 C 1.796875 -18.109375 2.5 -20.785156 3.90625 -23.171875 C 5.320312 -25.554688 7.257812 -27.414062 9.71875 -28.75 C 12.175781 -30.082031 14.925781 -30.75 17.96875 -30.75 C 20.925781 -30.75 23.609375 -30.109375 26.015625 -28.828125 C 28.421875 -27.554688 30.304688 -25.726562 31.671875 -23.34375 C 33.046875 -20.957031 33.734375 -18.1875 33.734375 -15.03125 Z M 18.015625 -24.109375 C 16.023438 -24.109375 14.351562 -23.539062 13 -22.40625 C 11.65625 -21.28125 10.832031 -19.742188 10.53125 -17.796875 L 25.453125 -17.796875 C 25.148438 -19.710938 24.320312 -21.242188 22.96875 -22.390625 C 21.625 -23.535156 19.972656 -24.109375 18.015625 -24.109375 Z M 18.015625 -24.109375 "/></g></g></g><g fill="#000000" fill-opacity="1"><g transform="translate(211.120003, 232.212115)"><g><path d="M 1.234375 -9.96875 C 1.234375 -11.90625 1.671875 -13.648438 2.546875 -15.203125 C 3.421875 -16.753906 4.613281 -17.96875 6.125 -18.84375 C 7.632812 -19.71875 9.3125 -20.15625 11.15625 -20.15625 C 13.332031 -20.15625 15.226562 -19.628906 16.84375 -18.578125 C 18.457031 -17.535156 19.632812 -16.050781 20.375 -14.125 L 17.265625 -14.125 C 16.710938 -15.320312 15.914062 -16.242188 14.875 -16.890625 C 13.84375 -17.546875 12.601562 -17.875 11.15625 -17.875 C 9.769531 -17.875 8.523438 -17.546875 7.421875 -16.890625 C 6.316406 -16.242188 5.445312 -15.328125 4.8125 -14.140625 C 4.1875 -12.953125 3.875 -11.5625 3.875 -9.96875 C 3.875 -8.382812 4.1875 -7 4.8125 -5.8125 C 5.445312 -4.625 6.316406 -3.703125 7.421875 -3.046875 C 8.523438 -2.398438 9.769531 -2.078125 11.15625 -2.078125 C 12.601562 -2.078125 13.84375 -2.394531 14.875 -3.03125 C 15.914062 -3.675781 16.710938 -4.597656 17.265625 -5.796875 L 20.375 -5.796875 C 19.632812 -3.890625 18.457031 -2.414062 16.84375 -1.375 C 15.226562 -0.34375 13.332031 0.171875 11.15625 0.171875 C 9.3125 0.171875 7.632812 -0.257812 6.125 -1.125 C 4.613281 -1.988281 3.421875 -3.191406 2.546875 -4.734375 C 1.671875 -6.273438 1.234375 -8.019531 1.234375 -9.96875 Z M 1.234375 -9.96875 "/></g></g></g><g fill="#000000" fill-opacity="1"><g transform="translate(233.153484, 232.212115)"><g><path d="M 4.796875 -13.109375 C 5.253906 -13.992188 5.90625 -14.679688 6.75 -15.171875 C 7.59375 -15.671875 8.625 -15.921875 9.84375 -15.921875 L 9.84375 -13.25 L 9.15625 -13.25 C 6.25 -13.25 4.796875 -11.664062 4.796875 -8.5 L 4.796875 0 L 2.203125 0 L 2.203125 -15.640625 L 4.796875 -15.640625 Z M 4.796875 -13.109375 "/></g></g></g><g fill="#000000" fill-opacity="1"><g transform="translate(243.799195, 232.212115)"><g><path d="M 16.46875 -8.421875 C 16.46875 -7.921875 16.441406 -7.394531 16.390625 -6.84375 L 3.875 -6.84375 C 3.976562 -5.300781 4.507812 -4.097656 5.46875 -3.234375 C 6.425781 -2.367188 7.59375 -1.9375 8.96875 -1.9375 C 10.082031 -1.9375 11.015625 -2.195312 11.765625 -2.71875 C 12.523438 -3.25 13.054688 -3.953125 13.359375 -4.828125 L 16.15625 -4.828125 C 15.738281 -3.316406 14.898438 -2.09375 13.640625 -1.15625 C 12.390625 -0.21875 10.832031 0.25 8.96875 0.25 C 7.476562 0.25 6.144531 -0.078125 4.96875 -0.734375 C 3.800781 -1.398438 2.882812 -2.347656 2.21875 -3.578125 C 1.5625 -4.804688 1.234375 -6.226562 1.234375 -7.84375 C 1.234375 -9.46875 1.554688 -10.890625 2.203125 -12.109375 C 2.847656 -13.328125 3.753906 -14.265625 4.921875 -14.921875 C 6.097656 -15.578125 7.445312 -15.90625 8.96875 -15.90625 C 10.445312 -15.90625 11.753906 -15.578125 12.890625 -14.921875 C 14.035156 -14.273438 14.914062 -13.382812 15.53125 -12.25 C 16.15625 -11.125 16.46875 -9.847656 16.46875 -8.421875 Z M 13.78125 -8.96875 C 13.78125 -9.957031 13.5625 -10.804688 13.125 -11.515625 C 12.6875 -12.234375 12.09375 -12.773438 11.34375 -13.140625 C 10.59375 -13.515625 9.757812 -13.703125 8.84375 -13.703125 C 7.53125 -13.703125 6.410156 -13.28125 5.484375 -12.4375 C 4.566406 -11.601562 4.039062 -10.445312 3.90625 -8.96875 Z M 13.78125 -8.96875 "/></g></g></g><g fill="#000000" fill-opacity="1"><g transform="translate(261.494475, 232.212115)"><g><path d="M 1.234375 -7.875 C 1.234375 -9.476562 1.554688 -10.882812 2.203125 -12.09375 C 2.847656 -13.300781 3.734375 -14.238281 4.859375 -14.90625 C 5.992188 -15.570312 7.257812 -15.90625 8.65625 -15.90625 C 10.019531 -15.90625 11.207031 -15.609375 12.21875 -15.015625 C 13.226562 -14.421875 13.976562 -13.675781 14.46875 -12.78125 L 14.46875 -15.640625 L 17.09375 -15.640625 L 17.09375 0 L 14.46875 0 L 14.46875 -2.90625 C 13.957031 -2 13.191406 -1.242188 12.171875 -0.640625 C 11.148438 -0.046875 9.96875 0.25 8.625 0.25 C 7.226562 0.25 5.96875 -0.0859375 4.84375 -0.765625 C 3.726562 -1.453125 2.847656 -2.414062 2.203125 -3.65625 C 1.554688 -4.894531 1.234375 -6.300781 1.234375 -7.875 Z M 14.46875 -7.84375 C 14.46875 -9.03125 14.226562 -10.0625 13.75 -10.9375 C 13.28125 -11.8125 12.640625 -12.476562 11.828125 -12.9375 C 11.023438 -13.40625 10.132812 -13.640625 9.15625 -13.640625 C 8.1875 -13.640625 7.300781 -13.410156 6.5 -12.953125 C 5.707031 -12.503906 5.070312 -11.84375 4.59375 -10.96875 C 4.113281 -10.09375 3.875 -9.0625 3.875 -7.875 C 3.875 -6.675781 4.113281 -5.632812 4.59375 -4.75 C 5.070312 -3.863281 5.707031 -3.1875 6.5 -2.71875 C 7.300781 -2.257812 8.1875 -2.03125 9.15625 -2.03125 C 10.132812 -2.03125 11.023438 -2.257812 11.828125 -2.71875 C 12.640625 -3.1875 13.28125 -3.863281 13.75 -4.75 C 14.226562 -5.632812 14.46875 -6.664062 14.46875 -7.84375 Z M 14.46875 -7.84375 "/></g></g></g><g fill="#000000" fill-opacity="1"><g transform="translate(280.788042, 232.212115)"><g><path d="M 5.359375 -13.5 L 5.359375 -4.28125 C 5.359375 -3.519531 5.519531 -2.984375 5.84375 -2.671875 C 6.175781 -2.359375 6.738281 -2.203125 7.53125 -2.203125 L 9.453125 -2.203125 L 9.453125 0 L 7.109375 0 C 5.660156 0 4.570312 -0.332031 3.84375 -1 C 3.125 -1.664062 2.765625 -2.757812 2.765625 -4.28125 L 2.765625 -13.5 L 0.75 -13.5 L 0.75 -15.640625 L 2.765625 -15.640625 L 2.765625 -19.578125 L 5.359375 -19.578125 L 5.359375 -15.640625 L 9.453125 -15.640625 L 9.453125 -13.5 Z M 5.359375 -13.5 "/></g></g></g><g fill="#000000" fill-opacity="1"><g transform="translate(291.176884, 232.212115)"><g><path d="M 16.46875 -8.421875 C 16.46875 -7.921875 16.441406 -7.394531 16.390625 -6.84375 L 3.875 -6.84375 C 3.976562 -5.300781 4.507812 -4.097656 5.46875 -3.234375 C 6.425781 -2.367188 7.59375 -1.9375 8.96875 -1.9375 C 10.082031 -1.9375 11.015625 -2.195312 11.765625 -2.71875 C 12.523438 -3.25 13.054688 -3.953125 13.359375 -4.828125 L 16.15625 -4.828125 C 15.738281 -3.316406 14.898438 -2.09375 13.640625 -1.15625 C 12.390625 -0.21875 10.832031 0.25 8.96875 0.25 C 7.476562 0.25 6.144531 -0.078125 4.96875 -0.734375 C 3.800781 -1.398438 2.882812 -2.347656 2.21875 -3.578125 C 1.5625 -4.804688 1.234375 -6.226562 1.234375 -7.84375 C 1.234375 -9.46875 1.554688 -10.890625 2.203125 -12.109375 C 2.847656 -13.328125 3.753906 -14.265625 4.921875 -14.921875 C 6.097656 -15.578125 7.445312 -15.90625 8.96875 -15.90625 C 10.445312 -15.90625 11.753906 -15.578125 12.890625 -14.921875 C 14.035156 -14.273438 14.914062 -13.382812 15.53125 -12.25 C 16.15625 -11.125 16.46875 -9.847656 16.46875 -8.421875 Z M 13.78125 -8.96875 C 13.78125 -9.957031 13.5625 -10.804688 13.125 -11.515625 C 12.6875 -12.234375 12.09375 -12.773438 11.34375 -13.140625 C 10.59375 -13.515625 9.757812 -13.703125 8.84375 -13.703125 C 7.53125 -13.703125 6.410156 -13.28125 5.484375 -12.4375 C 4.566406 -11.601562 4.039062 -10.445312 3.90625 -8.96875 Z M 13.78125 -8.96875 "/></g></g></g><g fill="#000000" fill-opacity="1"><g transform="translate(308.872164, 232.212115)"><g><path d="M 1.234375 -7.875 C 1.234375 -9.476562 1.554688 -10.882812 2.203125 -12.09375 C 2.847656 -13.300781 3.734375 -14.238281 4.859375 -14.90625 C 5.992188 -15.570312 7.265625 -15.90625 8.671875 -15.90625 C 9.890625 -15.90625 11.019531 -15.625 12.0625 -15.0625 C 13.113281 -14.5 13.914062 -13.757812 14.46875 -12.84375 L 14.46875 -21.125 L 17.09375 -21.125 L 17.09375 0 L 14.46875 0 L 14.46875 -2.9375 C 13.957031 -2.007812 13.195312 -1.242188 12.1875 -0.640625 C 11.175781 -0.046875 10 0.25 8.65625 0.25 C 7.257812 0.25 5.992188 -0.0859375 4.859375 -0.765625 C 3.734375 -1.453125 2.847656 -2.414062 2.203125 -3.65625 C 1.554688 -4.894531 1.234375 -6.300781 1.234375 -7.875 Z M 14.46875 -7.84375 C 14.46875 -9.03125 14.226562 -10.0625 13.75 -10.9375 C 13.28125 -11.8125 12.640625 -12.476562 11.828125 -12.9375 C 11.023438 -13.40625 10.132812 -13.640625 9.15625 -13.640625 C 8.1875 -13.640625 7.300781 -13.410156 6.5 -12.953125 C 5.707031 -12.503906 5.070312 -11.84375 4.59375 -10.96875 C 4.113281 -10.09375 3.875 -9.0625 3.875 -7.875 C 3.875 -6.675781 4.113281 -5.632812 4.59375 -4.75 C 5.070312 -3.863281 5.707031 -3.1875 6.5 -2.71875 C 7.300781 -2.257812 8.1875 -2.03125 9.15625 -2.03125 C 10.132812 -2.03125 11.023438 -2.257812 11.828125 -2.71875 C 12.640625 -3.1875 13.28125 -3.863281 13.75 -4.75 C 14.226562 -5.632812 14.46875 -6.664062 14.46875 -7.84375 Z M 14.46875 -7.84375 "/></g></g></g><g fill="#000000" fill-opacity="1"><g transform="translate(328.165732, 232.212115)"><g/></g></g><g fill="#000000" fill-opacity="1"><g transform="translate(335.786114, 232.212115)"><g><path d="M 8.5625 -13.5 L 5.28125 -13.5 L 5.28125 0 L 2.6875 0 L 2.6875 -13.5 L 0.65625 -13.5 L 0.65625 -15.640625 L 2.6875 -15.640625 L 2.6875 -16.75 C 2.6875 -18.507812 3.132812 -19.789062 4.03125 -20.59375 C 4.9375 -21.40625 6.390625 -21.8125 8.390625 -21.8125 L 8.390625 -19.640625 C 7.253906 -19.640625 6.453125 -19.414062 5.984375 -18.96875 C 5.515625 -18.519531 5.28125 -17.78125 5.28125 -16.75 L 5.28125 -15.640625 L 8.5625 -15.640625 Z M 8.5625 -13.5 "/></g></g></g><g fill="#000000" fill-opacity="1"><g transform="translate(345.176029, 232.212115)"><g><path d="M 9.015625 0.25 C 7.554688 0.25 6.226562 -0.078125 5.03125 -0.734375 C 3.84375 -1.398438 2.910156 -2.347656 2.234375 -3.578125 C 1.566406 -4.804688 1.234375 -6.226562 1.234375 -7.84375 C 1.234375 -9.445312 1.578125 -10.863281 2.265625 -12.09375 C 2.960938 -13.320312 3.910156 -14.265625 5.109375 -14.921875 C 6.304688 -15.578125 7.648438 -15.90625 9.140625 -15.90625 C 10.617188 -15.90625 11.957031 -15.578125 13.15625 -14.921875 C 14.351562 -14.265625 15.300781 -13.328125 16 -12.109375 C 16.695312 -10.890625 17.046875 -9.46875 17.046875 -7.84375 C 17.046875 -6.226562 16.6875 -4.804688 15.96875 -3.578125 C 15.257812 -2.347656 14.296875 -1.398438 13.078125 -0.734375 C 11.859375 -0.078125 10.503906 0.25 9.015625 0.25 Z M 9.015625 -2.03125 C 9.953125 -2.03125 10.828125 -2.25 11.640625 -2.6875 C 12.460938 -3.125 13.125 -3.78125 13.625 -4.65625 C 14.132812 -5.53125 14.390625 -6.59375 14.390625 -7.84375 C 14.390625 -9.101562 14.140625 -10.171875 13.640625 -11.046875 C 13.148438 -11.921875 12.503906 -12.570312 11.703125 -13 C 10.898438 -13.425781 10.035156 -13.640625 9.109375 -13.640625 C 8.148438 -13.640625 7.273438 -13.425781 6.484375 -13 C 5.703125 -12.570312 5.070312 -11.921875 4.59375 -11.046875 C 4.113281 -10.171875 3.875 -9.101562 3.875 -7.84375 C 3.875 -6.570312 4.109375 -5.5 4.578125 -4.625 C 5.046875 -3.75 5.671875 -3.097656 6.453125 -2.671875 C 7.234375 -2.242188 8.085938 -2.03125 9.015625 -2.03125 Z M 9.015625 -2.03125 "/></g></g></g><g fill="#000000" fill-opacity="1"><g transform="translate(363.442121, 232.212115)"><g><path d="M 4.796875 -13.109375 C 5.253906 -13.992188 5.90625 -14.679688 6.75 -15.171875 C 7.59375 -15.671875 8.625 -15.921875 9.84375 -15.921875 L 9.84375 -13.25 L 9.15625 -13.25 C 6.25 -13.25 4.796875 -11.664062 4.796875 -8.5 L 4.796875 0 L 2.203125 0 L 2.203125 -15.640625 L 4.796875 -15.640625 Z M 4.796875 -13.109375 "/></g></g></g><g fill="#000000" fill-opacity="1"><g transform="translate(374.087832, 232.212115)"><g/></g></g><g fill="#000000" fill-opacity="1"><g transform="translate(381.708215, 232.212115)"><g><path d="M 8.390625 -19.890625 C 10.554688 -19.890625 12.4375 -19.484375 14.03125 -18.671875 C 15.625 -17.867188 16.84375 -16.710938 17.6875 -15.203125 C 18.53125 -13.703125 18.953125 -11.9375 18.953125 -9.90625 C 18.953125 -7.863281 18.53125 -6.097656 17.6875 -4.609375 C 16.84375 -3.117188 15.625 -1.976562 14.03125 -1.1875 C 12.4375 -0.394531 10.554688 0 8.390625 0 L 2.203125 0 L 2.203125 -19.890625 Z M 8.390625 -2.140625 C 10.960938 -2.140625 12.921875 -2.816406 14.265625 -4.171875 C 15.617188 -5.535156 16.296875 -7.445312 16.296875 -9.90625 C 16.296875 -12.375 15.613281 -14.300781 14.25 -15.6875 C 12.894531 -17.082031 10.941406 -17.78125 8.390625 -17.78125 L 4.796875 -17.78125 L 4.796875 -2.140625 Z M 8.390625 -2.140625 "/></g></g></g><g fill="#000000" fill-opacity="1"><g transform="translate(401.88654, 232.212115)"><g><path d="M 12.15625 -10.25 C 12.882812 -10.132812 13.546875 -9.835938 14.140625 -9.359375 C 14.742188 -8.890625 15.21875 -8.300781 15.5625 -7.59375 C 15.914062 -6.882812 16.09375 -6.132812 16.09375 -5.34375 C 16.09375 -4.332031 15.835938 -3.421875 15.328125 -2.609375 C 14.816406 -1.804688 14.070312 -1.171875 13.09375 -0.703125 C 12.113281 -0.234375 10.957031 0 9.625 0 L 2.203125 0 L 2.203125 -19.890625 L 9.328125 -19.890625 C 10.679688 -19.890625 11.832031 -19.664062 12.78125 -19.21875 C 13.738281 -18.78125 14.453125 -18.175781 14.921875 -17.40625 C 15.398438 -16.644531 15.640625 -15.789062 15.640625 -14.84375 C 15.640625 -13.664062 15.320312 -12.691406 14.6875 -11.921875 C 14.050781 -11.148438 13.207031 -10.59375 12.15625 -10.25 Z M 4.796875 -11.296875 L 9.15625 -11.296875 C 10.375 -11.296875 11.316406 -11.582031 11.984375 -12.15625 C 12.648438 -12.726562 12.984375 -13.519531 12.984375 -14.53125 C 12.984375 -15.539062 12.648438 -16.328125 11.984375 -16.890625 C 11.316406 -17.460938 10.359375 -17.75 9.109375 -17.75 L 4.796875 -17.75 Z M 9.390625 -2.140625 C 10.679688 -2.140625 11.6875 -2.441406 12.40625 -3.046875 C 13.132812 -3.660156 13.5 -4.507812 13.5 -5.59375 C 13.5 -6.695312 13.117188 -7.566406 12.359375 -8.203125 C 11.597656 -8.835938 10.582031 -9.15625 9.3125 -9.15625 L 4.796875 -9.15625 L 4.796875 -2.140625 Z M 9.390625 -2.140625 "/></g></g></g><g fill="#000000" fill-opacity="1"><g transform="translate(419.382028, 232.212115)"><g><path d="M 22.375 -19.75 L 22.375 0 L 19.78125 0 L 19.78125 -14.734375 L 13.21875 0 L 11.390625 0 L 4.796875 -14.765625 L 4.796875 0 L 2.203125 0 L 2.203125 -19.75 L 5 -19.75 L 12.296875 -3.421875 L 19.609375 -19.75 Z M 22.375 -19.75 "/></g></g></g><g fill="#000000" fill-opacity="1"><g transform="translate(443.955631, 232.212115)"><g><path d="M 8.5 0.203125 C 7.1875 0.203125 6.007812 -0.03125 4.96875 -0.5 C 3.9375 -0.96875 3.125 -1.613281 2.53125 -2.4375 C 1.945312 -3.269531 1.644531 -4.226562 1.625 -5.3125 L 4.390625 -5.3125 C 4.484375 -4.375 4.867188 -3.585938 5.546875 -2.953125 C 6.222656 -2.316406 7.207031 -2 8.5 -2 C 9.738281 -2 10.710938 -2.304688 11.421875 -2.921875 C 12.140625 -3.546875 12.5 -4.34375 12.5 -5.3125 C 12.5 -6.070312 12.289062 -6.6875 11.875 -7.15625 C 11.457031 -7.632812 10.929688 -8 10.296875 -8.25 C 9.671875 -8.5 8.828125 -8.765625 7.765625 -9.046875 C 6.453125 -9.390625 5.398438 -9.734375 4.609375 -10.078125 C 3.816406 -10.421875 3.140625 -10.957031 2.578125 -11.6875 C 2.015625 -12.414062 1.734375 -13.398438 1.734375 -14.640625 C 1.734375 -15.722656 2.007812 -16.679688 2.5625 -17.515625 C 3.113281 -18.359375 3.890625 -19.007812 4.890625 -19.46875 C 5.890625 -19.925781 7.035156 -20.15625 8.328125 -20.15625 C 10.203125 -20.15625 11.734375 -19.6875 12.921875 -18.75 C 14.109375 -17.820312 14.78125 -16.585938 14.9375 -15.046875 L 12.078125 -15.046875 C 11.984375 -15.804688 11.582031 -16.472656 10.875 -17.046875 C 10.164062 -17.628906 9.234375 -17.921875 8.078125 -17.921875 C 6.992188 -17.921875 6.109375 -17.640625 5.421875 -17.078125 C 4.734375 -16.523438 4.390625 -15.742188 4.390625 -14.734375 C 4.390625 -14.003906 4.59375 -13.410156 5 -12.953125 C 5.414062 -12.503906 5.921875 -12.160156 6.515625 -11.921875 C 7.117188 -11.679688 7.960938 -11.410156 9.046875 -11.109375 C 10.359375 -10.742188 11.414062 -10.382812 12.21875 -10.03125 C 13.019531 -9.675781 13.703125 -9.132812 14.265625 -8.40625 C 14.835938 -7.675781 15.125 -6.679688 15.125 -5.421875 C 15.125 -4.453125 14.867188 -3.539062 14.359375 -2.6875 C 13.847656 -1.832031 13.085938 -1.132812 12.078125 -0.59375 C 11.066406 -0.0625 9.875 0.203125 8.5 0.203125 Z M 8.5 0.203125 "/></g></g></g><g fill="#000000" fill-opacity="1"><g transform="translate(460.70906, 232.212115)"><g/></g></g><g fill="#000000" fill-opacity="1"><g transform="translate(468.329442, 232.212115)"><g><path d="M 1.234375 -7.875 C 1.234375 -9.476562 1.554688 -10.882812 2.203125 -12.09375 C 2.847656 -13.300781 3.734375 -14.238281 4.859375 -14.90625 C 5.992188 -15.570312 7.257812 -15.90625 8.65625 -15.90625 C 10.019531 -15.90625 11.207031 -15.609375 12.21875 -15.015625 C 13.226562 -14.421875 13.976562 -13.675781 14.46875 -12.78125 L 14.46875 -15.640625 L 17.09375 -15.640625 L 17.09375 0 L 14.46875 0 L 14.46875 -2.90625 C 13.957031 -2 13.191406 -1.242188 12.171875 -0.640625 C 11.148438 -0.046875 9.96875 0.25 8.625 0.25 C 7.226562 0.25 5.96875 -0.0859375 4.84375 -0.765625 C 3.726562 -1.453125 2.847656 -2.414062 2.203125 -3.65625 C 1.554688 -4.894531 1.234375 -6.300781 1.234375 -7.875 Z M 14.46875 -7.84375 C 14.46875 -9.03125 14.226562 -10.0625 13.75 -10.9375 C 13.28125 -11.8125 12.640625 -12.476562 11.828125 -12.9375 C 11.023438 -13.40625 10.132812 -13.640625 9.15625 -13.640625 C 8.1875 -13.640625 7.300781 -13.410156 6.5 -12.953125 C 5.707031 -12.503906 5.070312 -11.84375 4.59375 -10.96875 C 4.113281 -10.09375 3.875 -9.0625 3.875 -7.875 C 3.875 -6.675781 4.113281 -5.632812 4.59375 -4.75 C 5.070312 -3.863281 5.707031 -3.1875 6.5 -2.71875 C 7.300781 -2.257812 8.1875 -2.03125 9.15625 -2.03125 C 10.132812 -2.03125 11.023438 -2.257812 11.828125 -2.71875 C 12.640625 -3.1875 13.28125 -3.863281 13.75 -4.75 C 14.226562 -5.632812 14.46875 -6.664062 14.46875 -7.84375 Z M 14.46875 -7.84375 "/></g></g></g><g fill="#000000" fill-opacity="1"><g transform="translate(487.623025, 232.212115)"><g><path d="M 7.734375 0.25 C 6.535156 0.25 5.457031 0.046875 4.5 -0.359375 C 3.550781 -0.765625 2.800781 -1.332031 2.25 -2.0625 C 1.695312 -2.800781 1.394531 -3.644531 1.34375 -4.59375 L 4.03125 -4.59375 C 4.101562 -3.8125 4.46875 -3.171875 5.125 -2.671875 C 5.78125 -2.179688 6.640625 -1.9375 7.703125 -1.9375 C 8.691406 -1.9375 9.472656 -2.15625 10.046875 -2.59375 C 10.617188 -3.03125 10.90625 -3.582031 10.90625 -4.25 C 10.90625 -4.9375 10.597656 -5.445312 9.984375 -5.78125 C 9.378906 -6.113281 8.441406 -6.441406 7.171875 -6.765625 C 6.003906 -7.066406 5.050781 -7.375 4.3125 -7.6875 C 3.582031 -8.007812 2.957031 -8.476562 2.4375 -9.09375 C 1.914062 -9.707031 1.65625 -10.519531 1.65625 -11.53125 C 1.65625 -12.332031 1.890625 -13.066406 2.359375 -13.734375 C 2.835938 -14.398438 3.515625 -14.925781 4.390625 -15.3125 C 5.265625 -15.707031 6.265625 -15.90625 7.390625 -15.90625 C 9.117188 -15.90625 10.515625 -15.46875 11.578125 -14.59375 C 12.648438 -13.71875 13.222656 -12.515625 13.296875 -10.984375 L 10.703125 -10.984375 C 10.648438 -11.804688 10.320312 -12.460938 9.71875 -12.953125 C 9.125 -13.453125 8.320312 -13.703125 7.3125 -13.703125 C 6.375 -13.703125 5.628906 -13.5 5.078125 -13.09375 C 4.523438 -12.695312 4.25 -12.175781 4.25 -11.53125 C 4.25 -11.019531 4.414062 -10.597656 4.75 -10.265625 C 5.082031 -9.929688 5.5 -9.660156 6 -9.453125 C 6.507812 -9.253906 7.210938 -9.035156 8.109375 -8.796875 C 9.234375 -8.484375 10.144531 -8.179688 10.84375 -7.890625 C 11.550781 -7.597656 12.15625 -7.15625 12.65625 -6.5625 C 13.164062 -5.976562 13.429688 -5.207031 13.453125 -4.25 C 13.453125 -3.394531 13.210938 -2.625 12.734375 -1.9375 C 12.253906 -1.25 11.582031 -0.710938 10.71875 -0.328125 C 9.851562 0.0546875 8.859375 0.25 7.734375 0.25 Z M 7.734375 0.25 "/></g></g></g><g fill="#000000" fill-opacity="1"><g transform="translate(502.521298, 232.212115)"><g><path d="M 7.734375 0.25 C 6.535156 0.25 5.457031 0.046875 4.5 -0.359375 C 3.550781 -0.765625 2.800781 -1.332031 2.25 -2.0625 C 1.695312 -2.800781 1.394531 -3.644531 1.34375 -4.59375 L 4.03125 -4.59375 C 4.101562 -3.8125 4.46875 -3.171875 5.125 -2.671875 C 5.78125 -2.179688 6.640625 -1.9375 7.703125 -1.9375 C 8.691406 -1.9375 9.472656 -2.15625 10.046875 -2.59375 C 10.617188 -3.03125 10.90625 -3.582031 10.90625 -4.25 C 10.90625 -4.9375 10.597656 -5.445312 9.984375 -5.78125 C 9.378906 -6.113281 8.441406 -6.441406 7.171875 -6.765625 C 6.003906 -7.066406 5.050781 -7.375 4.3125 -7.6875 C 3.582031 -8.007812 2.957031 -8.476562 2.4375 -9.09375 C 1.914062 -9.707031 1.65625 -10.519531 1.65625 -11.53125 C 1.65625 -12.332031 1.890625 -13.066406 2.359375 -13.734375 C 2.835938 -14.398438 3.515625 -14.925781 4.390625 -15.3125 C 5.265625 -15.707031 6.265625 -15.90625 7.390625 -15.90625 C 9.117188 -15.90625 10.515625 -15.46875 11.578125 -14.59375 C 12.648438 -13.71875 13.222656 -12.515625 13.296875 -10.984375 L 10.703125 -10.984375 C 10.648438 -11.804688 10.320312 -12.460938 9.71875 -12.953125 C 9.125 -13.453125 8.320312 -13.703125 7.3125 -13.703125 C 6.375 -13.703125 5.628906 -13.5 5.078125 -13.09375 C 4.523438 -12.695312 4.25 -12.175781 4.25 -11.53125 C 4.25 -11.019531 4.414062 -10.597656 4.75 -10.265625 C 5.082031 -9.929688 5.5 -9.660156 6 -9.453125 C 6.507812 -9.253906 7.210938 -9.035156 8.109375 -8.796875 C 9.234375 -8.484375 10.144531 -8.179688 10.84375 -7.890625 C 11.550781 -7.597656 12.15625 -7.15625 12.65625 -6.5625 C 13.164062 -5.976562 13.429688 -5.207031 13.453125 -4.25 C 13.453125 -3.394531 13.210938 -2.625 12.734375 -1.9375 C 12.253906 -1.25 11.582031 -0.710938 10.71875 -0.328125 C 9.851562 0.0546875 8.859375 0.25 7.734375 0.25 Z M 7.734375 0.25 "/></g></g></g><g fill="#000000" fill-opacity="1"><g transform="translate(517.419571, 232.212115)"><g><path d="M 16.46875 -8.421875 C 16.46875 -7.921875 16.441406 -7.394531 16.390625 -6.84375 L 3.875 -6.84375 C 3.976562 -5.300781 4.507812 -4.097656 5.46875 -3.234375 C 6.425781 -2.367188 7.59375 -1.9375 8.96875 -1.9375 C 10.082031 -1.9375 11.015625 -2.195312 11.765625 -2.71875 C 12.523438 -3.25 13.054688 -3.953125 13.359375 -4.828125 L 16.15625 -4.828125 C 15.738281 -3.316406 14.898438 -2.09375 13.640625 -1.15625 C 12.390625 -0.21875 10.832031 0.25 8.96875 0.25 C 7.476562 0.25 6.144531 -0.078125 4.96875 -0.734375 C 3.800781 -1.398438 2.882812 -2.347656 2.21875 -3.578125 C 1.5625 -4.804688 1.234375 -6.226562 1.234375 -7.84375 C 1.234375 -9.46875 1.554688 -10.890625 2.203125 -12.109375 C 2.847656 -13.328125 3.753906 -14.265625 4.921875 -14.921875 C 6.097656 -15.578125 7.445312 -15.90625 8.96875 -15.90625 C 10.445312 -15.90625 11.753906 -15.578125 12.890625 -14.921875 C 14.035156 -14.273438 14.914062 -13.382812 15.53125 -12.25 C 16.15625 -11.125 16.46875 -9.847656 16.46875 -8.421875 Z M 13.78125 -8.96875 C 13.78125 -9.957031 13.5625 -10.804688 13.125 -11.515625 C 12.6875 -12.234375 12.09375 -12.773438 11.34375 -13.140625 C 10.59375 -13.515625 9.757812 -13.703125 8.84375 -13.703125 C 7.53125 -13.703125 6.410156 -13.28125 5.484375 -12.4375 C 4.566406 -11.601562 4.039062 -10.445312 3.90625 -8.96875 Z M 13.78125 -8.96875 "/></g></g></g><g fill="#000000" fill-opacity="1"><g transform="translate(535.114867, 232.212115)"><g><path d="M 7.734375 0.25 C 6.535156 0.25 5.457031 0.046875 4.5 -0.359375 C 3.550781 -0.765625 2.800781 -1.332031 2.25 -2.0625 C 1.695312 -2.800781 1.394531 -3.644531 1.34375 -4.59375 L 4.03125 -4.59375 C 4.101562 -3.8125 4.46875 -3.171875 5.125 -2.671875 C 5.78125 -2.179688 6.640625 -1.9375 7.703125 -1.9375 C 8.691406 -1.9375 9.472656 -2.15625 10.046875 -2.59375 C 10.617188 -3.03125 10.90625 -3.582031 10.90625 -4.25 C 10.90625 -4.9375 10.597656 -5.445312 9.984375 -5.78125 C 9.378906 -6.113281 8.441406 -6.441406 7.171875 -6.765625 C 6.003906 -7.066406 5.050781 -7.375 4.3125 -7.6875 C 3.582031 -8.007812 2.957031 -8.476562 2.4375 -9.09375 C 1.914062 -9.707031 1.65625 -10.519531 1.65625 -11.53125 C 1.65625 -12.332031 1.890625 -13.066406 2.359375 -13.734375 C 2.835938 -14.398438 3.515625 -14.925781 4.390625 -15.3125 C 5.265625 -15.707031 6.265625 -15.90625 7.390625 -15.90625 C 9.117188 -15.90625 10.515625 -15.46875 11.578125 -14.59375 C 12.648438 -13.71875 13.222656 -12.515625 13.296875 -10.984375 L 10.703125 -10.984375 C 10.648438 -11.804688 10.320312 -12.460938 9.71875 -12.953125 C 9.125 -13.453125 8.320312 -13.703125 7.3125 -13.703125 C 6.375 -13.703125 5.628906 -13.5 5.078125 -13.09375 C 4.523438 -12.695312 4.25 -12.175781 4.25 -11.53125 C 4.25 -11.019531 4.414062 -10.597656 4.75 -10.265625 C 5.082031 -9.929688 5.5 -9.660156 6 -9.453125 C 6.507812 -9.253906 7.210938 -9.035156 8.109375 -8.796875 C 9.234375 -8.484375 10.144531 -8.179688 10.84375 -7.890625 C 11.550781 -7.597656 12.15625 -7.15625 12.65625 -6.5625 C 13.164062 -5.976562 13.429688 -5.207031 13.453125 -4.25 C 13.453125 -3.394531 13.210938 -2.625 12.734375 -1.9375 C 12.253906 -1.25 11.582031 -0.710938 10.71875 -0.328125 C 9.851562 0.0546875 8.859375 0.25 7.734375 0.25 Z M 7.734375 0.25 "/></g></g></g><g fill="#000000" fill-opacity="1"><g transform="translate(550.01314, 232.212115)"><g><path d="M 7.734375 0.25 C 6.535156 0.25 5.457031 0.046875 4.5 -0.359375 C 3.550781 -0.765625 2.800781 -1.332031 2.25 -2.0625 C 1.695312 -2.800781 1.394531 -3.644531 1.34375 -4.59375 L 4.03125 -4.59375 C 4.101562 -3.8125 4.46875 -3.171875 5.125 -2.671875 C 5.78125 -2.179688 6.640625 -1.9375 7.703125 -1.9375 C 8.691406 -1.9375 9.472656 -2.15625 10.046875 -2.59375 C 10.617188 -3.03125 10.90625 -3.582031 10.90625 -4.25 C 10.90625 -4.9375 10.597656 -5.445312 9.984375 -5.78125 C 9.378906 -6.113281 8.441406 -6.441406 7.171875 -6.765625 C 6.003906 -7.066406 5.050781 -7.375 4.3125 -7.6875 C 3.582031 -8.007812 2.957031 -8.476562 2.4375 -9.09375 C 1.914062 -9.707031 1.65625 -10.519531 1.65625 -11.53125 C 1.65625 -12.332031 1.890625 -13.066406 2.359375 -13.734375 C 2.835938 -14.398438 3.515625 -14.925781 4.390625 -15.3125 C 5.265625 -15.707031 6.265625 -15.90625 7.390625 -15.90625 C 9.117188 -15.90625 10.515625 -15.46875 11.578125 -14.59375 C 12.648438 -13.71875 13.222656 -12.515625 13.296875 -10.984375 L 10.703125 -10.984375 C 10.648438 -11.804688 10.320312 -12.460938 9.71875 -12.953125 C 9.125 -13.453125 8.320312 -13.703125 7.3125 -13.703125 C 6.375 -13.703125 5.628906 -13.5 5.078125 -13.09375 C 4.523438 -12.695312 4.25 -12.175781 4.25 -11.53125 C 4.25 -11.019531 4.414062 -10.597656 4.75 -10.265625 C 5.082031 -9.929688 5.5 -9.660156 6 -9.453125 C 6.507812 -9.253906 7.210938 -9.035156 8.109375 -8.796875 C 9.234375 -8.484375 10.144531 -8.179688 10.84375 -7.890625 C 11.550781 -7.597656 12.15625 -7.15625 12.65625 -6.5625 C 13.164062 -5.976562 13.429688 -5.207031 13.453125 -4.25 C 13.453125 -3.394531 13.210938 -2.625 12.734375 -1.9375 C 12.253906 -1.25 11.582031 -0.710938 10.71875 -0.328125 C 9.851562 0.0546875 8.859375 0.25 7.734375 0.25 Z M 7.734375 0.25 "/></g></g></g><g fill="#000000" fill-opacity="1"><g transform="translate(564.911413, 232.212115)"><g><path d="M 21.015625 -15.921875 C 22.234375 -15.921875 23.316406 -15.671875 24.265625 -15.171875 C 25.210938 -14.671875 25.960938 -13.914062 26.515625 -12.90625 C 27.066406 -11.894531 27.34375 -10.664062 27.34375 -9.21875 L 27.34375 0 L 24.78125 0 L 24.78125 -8.84375 C 24.78125 -10.40625 24.394531 -11.597656 23.625 -12.421875 C 22.851562 -13.253906 21.8125 -13.671875 20.5 -13.671875 C 19.144531 -13.671875 18.066406 -13.238281 17.265625 -12.375 C 16.472656 -11.507812 16.078125 -10.257812 16.078125 -8.625 L 16.078125 0 L 13.5 0 L 13.5 -8.84375 C 13.5 -10.40625 13.113281 -11.597656 12.34375 -12.421875 C 11.570312 -13.253906 10.53125 -13.671875 9.21875 -13.671875 C 7.863281 -13.671875 6.785156 -13.238281 5.984375 -12.375 C 5.191406 -11.507812 4.796875 -10.257812 4.796875 -8.625 L 4.796875 0 L 2.203125 0 L 2.203125 -15.640625 L 4.796875 -15.640625 L 4.796875 -13.390625 C 5.304688 -14.203125 5.992188 -14.828125 6.859375 -15.265625 C 7.734375 -15.703125 8.691406 -15.921875 9.734375 -15.921875 C 11.046875 -15.921875 12.207031 -15.625 13.21875 -15.03125 C 14.226562 -14.445312 14.976562 -13.585938 15.46875 -12.453125 C 15.90625 -13.554688 16.628906 -14.410156 17.640625 -15.015625 C 18.648438 -15.617188 19.773438 -15.921875 21.015625 -15.921875 Z M 21.015625 -15.921875 "/></g></g></g><g fill="#000000" fill-opacity="1"><g transform="translate(594.308408, 232.212115)"><g><path d="M 16.46875 -8.421875 C 16.46875 -7.921875 16.441406 -7.394531 16.390625 -6.84375 L 3.875 -6.84375 C 3.976562 -5.300781 4.507812 -4.097656 5.46875 -3.234375 C 6.425781 -2.367188 7.59375 -1.9375 8.96875 -1.9375 C 10.082031 -1.9375 11.015625 -2.195312 11.765625 -2.71875 C 12.523438 -3.25 13.054688 -3.953125 13.359375 -4.828125 L 16.15625 -4.828125 C 15.738281 -3.316406 14.898438 -2.09375 13.640625 -1.15625 C 12.390625 -0.21875 10.832031 0.25 8.96875 0.25 C 7.476562 0.25 6.144531 -0.078125 4.96875 -0.734375 C 3.800781 -1.398438 2.882812 -2.347656 2.21875 -3.578125 C 1.5625 -4.804688 1.234375 -6.226562 1.234375 -7.84375 C 1.234375 -9.46875 1.554688 -10.890625 2.203125 -12.109375 C 2.847656 -13.328125 3.753906 -14.265625 4.921875 -14.921875 C 6.097656 -15.578125 7.445312 -15.90625 8.96875 -15.90625 C 10.445312 -15.90625 11.753906 -15.578125 12.890625 -14.921875 C 14.035156 -14.273438 14.914062 -13.382812 15.53125 -12.25 C 16.15625 -11.125 16.46875 -9.847656 16.46875 -8.421875 Z M 13.78125 -8.96875 C 13.78125 -9.957031 13.5625 -10.804688 13.125 -11.515625 C 12.6875 -12.234375 12.09375 -12.773438 11.34375 -13.140625 C 10.59375 -13.515625 9.757812 -13.703125 8.84375 -13.703125 C 7.53125 -13.703125 6.410156 -13.28125 5.484375 -12.4375 C 4.566406 -11.601562 4.039062 -10.445312 3.90625 -8.96875 Z M 13.78125 -8.96875 "/></g></g></g><g fill="#000000" fill-opacity="1"><g transform="translate(612.003671, 232.212115)"><g><path d="M 9.8125 -15.921875 C 11.71875 -15.921875 13.257812 -15.34375 14.4375 -14.1875 C 15.625 -13.039062 16.21875 -11.382812 16.21875 -9.21875 L 16.21875 0 L 13.640625 0 L 13.640625 -8.84375 C 13.640625 -10.40625 13.25 -11.597656 12.46875 -12.421875 C 11.6875 -13.253906 10.625 -13.671875 9.28125 -13.671875 C 7.90625 -13.671875 6.8125 -13.242188 6 -12.390625 C 5.195312 -11.535156 4.796875 -10.289062 4.796875 -8.65625 L 4.796875 0 L 2.203125 0 L 2.203125 -15.640625 L 4.796875 -15.640625 L 4.796875 -13.421875 C 5.304688 -14.210938 6.003906 -14.828125 6.890625 -15.265625 C 7.773438 -15.703125 8.75 -15.921875 9.8125 -15.921875 Z M 9.8125 -15.921875 "/></g></g></g><g fill="#000000" fill-opacity="1"><g transform="translate(630.269764, 232.212115)"><g><path d="M 5.359375 -13.5 L 5.359375 -4.28125 C 5.359375 -3.519531 5.519531 -2.984375 5.84375 -2.671875 C 6.175781 -2.359375 6.738281 -2.203125 7.53125 -2.203125 L 9.453125 -2.203125 L 9.453125 0 L 7.109375 0 C 5.660156 0 4.570312 -0.332031 3.84375 -1 C 3.125 -1.664062 2.765625 -2.757812 2.765625 -4.28125 L 2.765625 -13.5 L 0.75 -13.5 L 0.75 -15.640625 L 2.765625 -15.640625 L 2.765625 -19.578125 L 5.359375 -19.578125 L 5.359375 -15.640625 L 9.453125 -15.640625 L 9.453125 -13.5 Z M 5.359375 -13.5 "/></g></g></g><g fill="#000000" fill-opacity="1"><g transform="translate(640.658622, 232.212115)"><g><path d="M 3.03125 0.171875 C 2.53125 0.171875 2.109375 0 1.765625 -0.34375 C 1.421875 -0.6875 1.25 -1.101562 1.25 -1.59375 C 1.25 -2.09375 1.421875 -2.515625 1.765625 -2.859375 C 2.109375 -3.203125 2.53125 -3.375 3.03125 -3.375 C 3.5 -3.375 3.898438 -3.203125 4.234375 -2.859375 C 4.566406 -2.515625 4.734375 -2.09375 4.734375 -1.59375 C 4.734375 -1.101562 4.566406 -0.6875 4.234375 -0.34375 C 3.898438 0 3.5 0.171875 3.03125 0.171875 Z M 3.03125 0.171875 "/></g></g></g></svg>